<?xml version="1.0" standalone="no"?>
<!DOCTYPE svg PUBLIC "-//W3C//DTD SVG 1.1//EN" "http://www.w3.org/Graphics/SVG/1.1/DTD/svg11.dtd" >
<svg>
<metadata>
Created by FontForge 20090914 at Thu Jul 28 12:15:47 2022
 By www-data
&#194;&#169; 2005 Kamban Software. All rights reserved.
</metadata>
<defs>
<font id="AksharUnicode" horiz-adv-x="0" >
  <font-face 
    font-family="Akshar Unicode"
    font-weight="400"
    font-stretch="normal"
    units-per-em="2048"
    panose-1="0 0 4 0 0 0 0 0 0 0"
    ascent="1638"
    descent="-410"
    x-height="1063"
    cap-height="1466"
    bbox="-2279 -914.001 3240 2400"
    underline-thickness="120"
    underline-position="-260"
    unicode-range="U+000D-U+25CC"
  />
<missing-glyph horiz-adv-x="1024" 
d="M128 0v2048h768v-2048h-768zM256 128h512v1792h-512v-1792z" />
    <glyph glyph-name=".notdef" horiz-adv-x="1024" 
d="M128 0v2048h768v-2048h-768zM256 128h512v1792h-512v-1792z" />
    <glyph glyph-name=".null" horiz-adv-x="1581" 
 />
    <glyph glyph-name=".null" horiz-adv-x="1581" 
 />
    <glyph glyph-name="nonmarkingreturn" unicode="&#xd;" horiz-adv-x="682" 
 />
    <glyph glyph-name="space" unicode=" " horiz-adv-x="494" 
 />
    <glyph glyph-name="exclam" unicode="!" horiz-adv-x="569" 
d="M231 365l-55 776v325h223v-325l-53 -776h-115zM184 0v205h207v-205h-207z" />
    <glyph glyph-name="quotedbl" unicode="&#x22;" horiz-adv-x="727" 
d="M143 946l-49 281v239h205v-239l-45 -281h-111zM475 946l-49 281v239h205v-239l-47 -281h-109z" />
    <glyph glyph-name="numbersign" unicode="#" horiz-adv-x="1138" 
d="M102 -24l88 425h-170v150h199l76 362h-275v150h304l88 428h149l-88 -428h315l89 428h149l-86 -428h172v-150h-203l-73 -362h276v-150h-307l-86 -425h-152l86 425h-313l-86 -425h-152zM371 551h313l76 362h-316z" />
    <glyph glyph-name="dollar" unicode="$" horiz-adv-x="980" 
d="M123 307l65.0039 0.000976562c8.66699 -76 34 -135 76 -177c41.333 -41.333 96.666 -66.333 165.999 -75v570c-144.667 84.667 -237.334 153.667 -278.001 207c-40 54 -60 116.667 -60 188c0 91.333 31.333 171.333 94 240c63.333 68 144.666 110 243.999 126v109h92
v-104c76.667 0 141.667 -7 195 -21c56 -12 107.667 -33.667 155 -65c-25.333 -75.333 -47 -158 -65 -248h-68c0 74 -13.667 131.333 -41 172c-20 24.667 -44.667 43.667 -74 57c-29.333 12.667 -63.333 19 -102 19v-517c154.667 -82.667 256 -154 304 -214
c47.333 -60.667 71 -128.334 71 -203.001c0 -94.667 -33 -179 -99 -253c-66.667 -74.667 -158.667 -124.667 -276 -150v-164h-92v156c-42 0 -73 0.666992 -93 2s-47 6 -81 14c-46.667 8 -107.334 24.333 -182.001 49l30 139zM430.004 1296
c-54.667 -10.667 -97.334 -33.333 -128.001 -68s-46 -79.334 -46 -134.001c0 -48 12.333 -91.333 37 -130c24.667 -39.333 70.334 -78.666 137.001 -117.999v450zM522.004 61.002c64 12.667 113.333 40.333 148 83c34 42 51 94.333 51 157c0 56 -15.667 105.667 -47 149
c-31.333 44 -82 84.333 -152 121v-510z" />
    <glyph glyph-name="percent" unicode="%" horiz-adv-x="1820" 
d="M119 1114c0 104 26.332 192.667 78.999 266c52 74 128 111 228 111c92.667 0 169 -33 229 -99c60 -66.667 90 -162.667 90 -288c0 -126 -30.333 -222 -91 -288s-136 -99 -226 -99c-87.333 0 -160.666 33 -219.999 99s-89 165.333 -89 298zM431.999 1366
c-44.667 0 -82 -18.665 -112 -55.998c-29.333 -38 -44 -109.333 -44 -214c0 -94.667 14.667 -161 44 -199c30 -38 67.333 -57 112 -57c45.333 0 83 19.667 113 59s45 109.666 45 210.999c0 91.333 -15 156.666 -45 195.999c-30 40 -67.667 60 -113 60zM431.999 -52.998
l803 1544h145l-798 -1544h-150zM1067 344.002c0 105.333 26.3311 194.667 78.998 268c52.667 72.667 129.334 109 230.001 109c91.333 0 167.333 -33 228 -99c61.333 -65.333 92 -161.333 92 -288c0 -122.667 -30.667 -218 -92 -286c-62 -67.333 -138 -101 -228 -101
c-87.333 0 -160.666 33 -219.999 99s-89 165.333 -89 298zM1380 598.003c-43.333 0 -80 -19.332 -110 -57.999c-30 -38 -45 -109.333 -45 -214c0 -93.333 14.667 -159.333 44 -198s66.333 -58 111 -58c45.333 0 83 19.667 113 59c30 35.333 45 105.666 45 210.999
c0 94 -15.333 160.667 -46 200c-30.667 38.667 -68 58 -112 58z" />
    <glyph glyph-name="ampersand" unicode="&#x26;" horiz-adv-x="1366" 
d="M973 172c-60 -66.667 -125 -115.998 -195 -147.998c-69.333 -32 -144.333 -48 -225 -48c-151.333 0 -270.666 50.333 -357.999 151c-71.333 83.333 -107 175.333 -107 276c0 90.667 29 173 87 247c58 73.333 145 137.333 261 192
c-64 73.333 -107.333 133.666 -130 180.999s-34 94 -34 140c0 88.667 34.5 165.5 103.5 230.5s156.167 97.5 261.5 97.5c98 0 179 -30.667 243 -92c64.667 -61.333 97 -135 97 -221c0 -139.333 -92.333 -258.333 -277 -357l263 -336c30 57.333 53 125.666 69 204.999
l189 -41c-33.333 -126.667 -77 -231.667 -131 -315c69.333 -90 145.666 -165 228.999 -225l-121 -143c-72 47.333 -147 116 -225 206zM606 938.002c78 45.333 128.666 85.332 151.999 119.999s35 73.334 35 116.001c0 48.667 -15.667 89 -47 121c-32 32 -71.667 48 -119 48
c-46.667 0 -86.667 -15.667 -120 -47s-50 -69.333 -50 -114c0 -22 5.33301 -45 16 -69s28.334 -51.667 53.001 -83zM859.999 315.001l-330 409.999c-96.667 -58.667 -162 -112.667 -196 -162s-51 -98.333 -51 -147c0 -60 23.667 -122 71 -186
c46.667 -64.667 113.667 -97 201 -97c54.667 0 110.667 17 168 51c57.333 34.667 103 78.334 137 131.001z" />
    <glyph glyph-name="quotesingle" unicode="'" horiz-adv-x="391" 
d="M135 946l-45 275v245h205v-245l-47 -275h-113z" />
    <glyph glyph-name="parenleft" unicode="(" horiz-adv-x="681" 
d="M479 -430c-98 126 -181.667 272.667 -251 440c-68.667 168 -103 341.333 -103 520c0 161.333 25.333 313.666 76 456.999c60 169.333 152.667 337.333 278 504h129c-77.333 -132.667 -130.333 -231.667 -159 -297c-38.667 -84.667 -71.667 -184.667 -99 -300
s-41 -236.666 -41 -363.999c0 -323.333 99.667 -643.333 299 -960h-129z" />
    <glyph glyph-name="parenright" unicode=")" horiz-adv-x="681" 
d="M254 -430l-129 0.000976562c199.333 320.667 299 640.667 299 960c0 123.333 -14.333 247.666 -43 372.999c-23.333 106.667 -55.333 203 -96 289c-24.667 53.333 -50.667 106 -78 158l-82 141h129c61.333 -82 115.333 -165.333 162 -250
c46 -84.667 84 -169.334 114 -254.001c52 -147.333 78 -299.666 78 -456.999c0 -180 -34 -353.333 -102 -520c-68.667 -166 -152.667 -312.667 -252 -440z" />
    <glyph glyph-name="asterisk" unicode="*" horiz-adv-x="796" 
d="M63 1196l47.999 143.002c106 -36.667 183 -69.334 231 -98.001l-20 250h145c0 -36.667 -2.33301 -75.667 -7 -117c-4.66699 -40.667 -10.667 -84.334 -18 -131.001c28.667 15.333 63.334 31 104.001 47c41.333 16.667 86 33 134 49l45 -143
c-83.333 -26 -166.666 -44.333 -249.999 -55c40 -32.667 97.333 -95.667 172 -189l-119 -86c-40.667 56 -86.334 127.667 -137.001 215c-48 -90 -91.667 -161.667 -131 -215l-117 86c78 97.333 133.333 160.333 166 189c-86 16 -168 34.333 -246 55z" />
    <glyph glyph-name="plus" unicode="+" horiz-adv-x="1196" 
d="M512 238v401h-397v168h397v399h170v-399h399v-168h-399v-401h-170z" />
    <glyph glyph-name="comma" unicode="," horiz-adv-x="569" 
d="M182 0v205.001h205v-205c0 -76 -13.667 -136.667 -41 -182c-24.667 -44.667 -67 -80.667 -127 -108l-49 78c36.667 14.667 65 40 85 76c20 35.333 30 80.666 30 135.999h-103z" />
    <glyph glyph-name="hyphen" unicode="-" horiz-adv-x="681" 
d="M66 440v181h552v-181h-552z" />
    <glyph glyph-name="period" unicode="." horiz-adv-x="569" 
d="M186 0v205h205v-205h-205z" />
    <glyph glyph-name="slash" unicode="/" horiz-adv-x="569" 
d="M0 -24l426 1515h143l-424 -1515h-145z" />
    <glyph glyph-name="zero" unicode="0" horiz-adv-x="1138" 
d="M86 723c0 174.667 17.332 313.667 51.999 417c34.667 104 87.334 185.333 158.001 244c70 59.333 159 89 267 89c78 0 147 -16.333 207 -49c60 -32 108.667 -77.667 146 -137c38 -59.333 68 -131.333 90 -216c22.667 -84.667 34 -200.667 34 -348
c0 -88.667 -4 -167 -12 -235c-8 -67.333 -21.667 -128.333 -41 -183c-34 -102 -86.333 -182.333 -157 -241c-70 -58.667 -159 -88 -267 -88c-142 0 -253.333 50.333 -334 151c-95.333 121.333 -143 320 -143 596zM269.999 723c0 -237.333 28 -396.668 84 -478.001
s125.667 -122 209 -122c82 0 151.333 40.333 208 121s85 240.334 85 479.001c0 240 -28.333 400 -85 480s-126.667 120 -210 120c-80.667 0 -147 -34.667 -199 -104c-61.333 -90.667 -92 -256 -92 -496z" />
    <glyph glyph-name="one" unicode="1" horiz-adv-x="1138" 
d="M764 0h-180.001v1147c-42.667 -41.333 -100 -82.333 -172 -123c-30 -19.333 -62.667 -37.333 -98 -54c-36 -17.333 -66.333 -30.666 -91 -39.999v174c101.333 48 189 105.667 263 173c74.667 67.333 128.334 132.666 161.001 195.999h117v-1473z" />
    <glyph glyph-name="two" unicode="2" horiz-adv-x="1138" 
d="M1030 172l0.000976562 -172.002h-969c0 26 1.5 47.5 4.5 64.5s9.16699 37.167 18.5 60.5c23.333 66.667 62.333 132.334 117 197.001c54.667 64 133 137.667 235 221c157.333 126.667 264.666 229 321.999 307s86 151 86 219c0 71.333 -25.667 131.666 -77 180.999
c-51.333 48.667 -118 73 -200 73c-83.333 0 -151.666 -26 -204.999 -78c-54 -52 -81 -124.333 -81 -217l-185 21c12.667 136 60.667 240.667 144 314s193.666 110 330.999 110c140.667 0 252 -39 334 -117s123 -175 123 -291c0 -60 -12 -118.333 -36 -175
s-63.5 -115.667 -118.5 -177s-147.5 -147.333 -277.5 -258l-104 -88c-42.667 -37.333 -77.667 -69.666 -105 -96.999c-12 -13.333 -25 -28.666 -39 -45.999l-37 -52h719z" />
    <glyph glyph-name="three" unicode="3" horiz-adv-x="1138" 
d="M86 387l179.998 25c20.667 -102.667 56.334 -176.667 107.001 -222c50.667 -44.667 110.667 -67 180 -67c84.667 0 156 29 214 87s87 130.667 87 218c0 83.333 -27 152 -81 206s-122.667 81 -206 81c-35.333 0 -77.666 -7 -126.999 -21l21 158l28 -2
c75.333 0 144 20 206 60c62 40.667 93 102.667 93 186c0 65.333 -22 119.333 -66 162c-43.333 43.333 -101 65 -173 65c-36.667 0 -68.667 -5 -96 -15c-27.333 -10.667 -53.333 -27.667 -78 -51c-45.333 -40.667 -75.333 -106 -90 -196l-181 31
c22 120 72.333 213.333 151 280c78.667 67.333 175.334 101 290.001 101c79.333 0 152.666 -17 219.999 -51c67.333 -34.667 119 -82 155 -142c36.667 -60 55 -122.667 55 -188c0 -60.667 -17 -118.667 -51 -174c-36 -52 -86.667 -93 -152 -123
c86 -20.667 153.333 -63 202 -127c48.667 -63.333 73 -142 73 -236c0 -126.667 -47 -234.667 -141 -324c-93.333 -89.333 -211 -134 -353 -134c-127.333 0 -234 38.667 -320 116c-86 78 -135 177 -147 297z" />
    <glyph glyph-name="four" unicode="4" horiz-adv-x="1138" 
d="M662 0v350h-635v166l667 950h148v-950h198v-166h-198v-350h-180zM662 516v662l-459 -662h459z" />
    <glyph glyph-name="five" unicode="5" horiz-adv-x="1138" 
d="M86 385l188 13.999c14 -91.333 46 -160.333 96 -207c50.667 -46 112.334 -69 185.001 -69c86 0 159.333 33 220 99c60.667 66.667 91 153 91 259c0 102.667 -28.667 183.667 -86 243s-133 89 -227 89c-60 0 -112.667 -13.667 -158 -41
c-44.667 -24.667 -80.667 -58 -108 -100l-170 20l141 754h729v-172h-584l-79 -393c91.333 61.333 183.333 92 276 92c128.667 0 237 -44 325 -132s132 -202.333 132 -343c0 -134 -39 -248.667 -117 -344c-92.667 -118.667 -221 -178 -385 -178
c-132.667 0 -241.334 36.667 -326.001 110c-43.333 39.333 -78 84.333 -104 135s-39 105.334 -39 164.001z" />
    <glyph glyph-name="six" unicode="6" horiz-adv-x="1138" 
d="M1020 1108l-180 -14c-18 72 -40.667 123 -68 153c-46.667 50.667 -106.667 76 -180 76c-57.333 0 -108 -15.667 -152 -47c-53.333 -39.333 -97.333 -100 -132 -182s-52 -194.667 -52 -338c44 65.333 96.333 114 157 146s127 48 199 48
c120.667 0 222.667 -44.333 306 -133c84 -88.667 126 -202.667 126 -342c0 -88.667 -19.667 -173 -59 -253s-93 -141 -161 -183c-68.667 -42 -148 -63 -238 -63c-150.667 0 -273 54.667 -367 164c-94 110 -141 292 -141 546c0 284 51.667 490.333 155 619
c93.333 112 216.333 168 369 168c113.333 0 207.333 -32.333 282 -97c74 -64 119.333 -153.333 136 -268zM285 475c0 -62.667 12.334 -121.667 37.001 -177c25.333 -55.333 62 -98.333 110 -129s98.667 -46 152 -46c76 0 141 30.333 195 91s81 144.334 81 251.001
c0 99.333 -27.333 179 -82 239c-54.667 59.333 -122.334 89 -203.001 89c-80 0 -148.333 -29.833 -205 -89.5s-85 -135.834 -85 -228.501z" />
    <glyph glyph-name="seven" unicode="7" horiz-adv-x="1138" 
d="M96 1274v174.001h951v-141c-45.333 -48 -91 -105 -137 -171c-46.667 -65.333 -94 -140.333 -142 -225c-91.333 -164.667 -162.333 -334 -213 -508c-27.333 -95.333 -45.666 -173 -54.999 -233c-8.66699 -60 -13 -116.667 -13 -170h-186
c0 109.333 23.333 248.666 70 417.999c42 159.333 103.667 316 185 470c81.333 153.333 167.666 282 258.999 386h-719z" />
    <glyph glyph-name="eight" unicode="8" horiz-adv-x="1138" 
d="M362 795c-73.333 27.333 -128.665 66.3359 -165.998 117.003c-36.667 51.333 -55 112 -55 182c0 103.333 38.333 193.333 115 270c79.333 72.667 181.666 109 306.999 109c130 0 233.667 -37.333 311 -112c76.667 -74.667 115 -165 115 -271
c0 -67.333 -17.667 -126 -53 -176c-35.333 -50.667 -90 -90.334 -164 -119.001c91.333 -28.667 160.333 -76.334 207 -143.001c46.667 -66 70 -143.333 70 -232c0 -127.333 -44.333 -233.333 -133 -318c-89.333 -84 -206.333 -126 -351 -126s-261 42.667 -349 128
c-88 86 -132 192.667 -132 320c0 95.333 23.333 174.666 70 237.999c47.333 64 116.666 108.333 207.999 133zM326.001 1100c0 -68.667 22 -125.333 66 -170c44.667 -44 103 -66 175 -66c70 0 127 22 171 66c44.667 44.667 67 98 67 160c0 64 -23 118.667 -69 164
c-45.333 46 -102.333 69 -171 69c-69.333 0 -126.333 -21.667 -171 -65c-45.333 -44 -68 -96.667 -68 -158zM268.001 424.004c0 -49.333 11.667 -99.333 35 -150c24.667 -47.333 61 -84.333 109 -111c47.333 -26.667 99 -40 155 -40c87.333 0 158.333 28 213 84
c56 52 84 122.333 84 211c0 83.333 -28.667 155 -86 215c-58.667 56 -131 84 -217 84c-82 0 -152.333 -28 -211 -84c-54.667 -57.333 -82 -127 -82 -209z" />
    <glyph glyph-name="nine" unicode="9" horiz-adv-x="1138" 
d="M113 340l172.002 14.002c14.667 -80.667 42.334 -139.334 83.001 -176.001c41.333 -36.667 94.666 -55 159.999 -55c54.667 0 103.167 13 145.5 39s75.833 58 100.5 96s48 96.667 70 176c17.333 78 26 151 26 219l-2 37c-34 -54.667 -81.667 -100.334 -143 -137.001
s-130.333 -55 -207 -55c-118.667 0 -220.334 43.667 -305.001 131s-127 203.333 -127 348c0 146 43.667 265 131 357c87.333 92.667 197.333 139 330 139c47.333 0 92.333 -6.33301 135 -19c42 -12 83.667 -31.667 125 -59c79.333 -50.667 139.666 -123.667 180.999 -219
c40.667 -94.667 61 -232 61 -412c0 -188.667 -19.667 -338 -59 -448c-40 -110.667 -101 -195 -183 -253s-176.333 -87 -283 -87c-114.667 0 -208 31 -280 93c-71.333 62 -115 152.333 -131 271zM850.002 985.002c0 102.667 -27.333 184.666 -82 245.999s-121.667 92 -201 92
c-77.333 0 -146.333 -32.333 -207 -97c-60 -65.333 -90 -150.333 -90 -255c0 -91.333 27.667 -167 83 -227c55.333 -59.333 125.333 -89 210 -89c83.333 0 152 29.333 206 88s81 139.334 81 242.001z" />
    <glyph glyph-name="colon" unicode=":" horiz-adv-x="575" 
d="M289 981c28.667 0 54.001 -11.667 76.001 -35c22.667 -20.667 34 -46.667 34 -78c0 -30 -10.667 -56.667 -32 -80c-23.333 -20 -49.333 -30 -78 -30s-55.334 10 -80.001 30c-22 22 -33 48.667 -33 80c0 30 10.667 56.333 32 79s48.333 34 81 34zM289.001 188
c26 0 52 -10.668 78 -32.001c21.333 -26 32 -52.667 32 -80s-11.333 -52.666 -34 -75.999c-20.667 -24 -46 -36 -76 -36s-56.333 10.667 -79 32c-22.667 22 -34 48.667 -34 80s11 58 33 80c22 21.333 48.667 32 80 32z" />
    <glyph glyph-name="semicolon" unicode=";" horiz-adv-x="575" 
d="M289 981c27.333 0 52.668 -11.667 76.001 -35c24 -20.667 36 -46.667 36 -78c0 -30 -10.667 -56.667 -32 -80c-23.333 -20 -50 -30 -80 -30c-28.667 0 -55.334 10 -80.001 30c-22 22 -33 48.667 -33 80s11.667 58 35 80s49.333 33 78 33zM172.002 10l-31.001 36.999
c41.333 46.667 81 102 119 166c45.333 -12 84.333 -39.333 117 -82c12 -18 22.333 -37.667 31 -59c8 -22 12 -44.667 12 -68c0 -121.333 -65.667 -243 -197 -365c-4 -3.33301 -8 -7 -12 -11l-43 53c82 84.667 123 164 123 238c0 28.667 -9 52.334 -27 71.001
c-13.333 17.333 -31.666 26 -54.999 26z" />
    <glyph glyph-name="less" unicode="&#x3c;" horiz-adv-x="1366" 
d="M139 723l1088 457v-144l-912 -372l912 -375v-142l-1088 457v119z" />
    <glyph glyph-name="equal" unicode="=" horiz-adv-x="1366" 
d="M139 956h1088v-131h-1088v131zM139 498h1088v-131h-1088v131z" />
    <glyph glyph-name="greater" unicode="&#x3e;" horiz-adv-x="1366" 
d="M1225 602l-1086 -455v142l910 375l-910 372v144l1088 -459z" />
    <glyph glyph-name="question" unicode="?" horiz-adv-x="788" 
d="M119 1092l-72 -0.00292969l19 110l14 127c53.333 36.667 100.333 63.334 141 80.001c60 19.333 114.667 29 164 29c96.667 0 177 -30.667 241 -92c64.667 -60.667 97 -134.667 97 -222c0 -38 -6.5 -76.5 -19.5 -115.5s-28.5 -73.5 -46.5 -103.5l-120 -170
c-44 -61.333 -78.333 -120.666 -103 -177.999c-16 -45.333 -31.667 -119 -47 -221h-82c0 78 9.66699 145.667 29 203c6.66699 28.667 18.667 62.334 36 101.001c16.667 38.667 40.667 87.334 72 146.001c42.667 79.333 72 145.666 88 198.999l13 47l4 51
c0 62 -19.333 112.667 -58 152c-34 38 -81 57 -141 57c-52 0 -96.667 -14.667 -134 -44s-69 -81.333 -95 -156zM350 187.997c28.667 0 54.667 -11.334 78 -34.001c23.333 -20.667 35 -46.667 35 -78c0 -28.667 -10.667 -54 -32 -76c-21.333 -22.667 -48.333 -34 -81 -34
c-28.667 0 -54 10.667 -76 32c-22.667 22 -34 48 -34 78c0 28.667 10 55.334 30 80.001c26 21.333 52.667 32 80 32z" />
    <glyph glyph-name="at" unicode="@" horiz-adv-x="1878" 
d="M1409 958l-119.005 -399.003c-61.333 -212.667 -92 -339 -92 -379c0 -18.667 6.33301 -36.334 19 -53.001c12 -12 31 -20.333 57 -25c48 0 105.333 24 172 72s125.334 128 176.001 240s76 226 76 342c0 112 -27.333 217.333 -82 316c-54.667 98 -132.667 172 -234 222
c-100.667 50.667 -211.667 76 -333 76c-154.667 0 -297 -39.333 -427 -118c-130.667 -79.333 -235.334 -197.333 -314.001 -354c-78.667 -156 -118 -316 -118 -480c0 -76.667 8.33301 -149.667 25 -219c8 -36 18.333 -69.333 31 -100c12 -30.667 27.667 -63.667 47 -99
c65.333 -122.667 160.333 -217.334 285 -284.001c56 -28.667 117.667 -52 185 -70c67.333 -17.333 138 -26 212 -26c172 0 328.667 46.667 470 140s252.333 230.666 333 411.999h57c-57.333 -179.333 -165.666 -326.666 -324.999 -441.999
c-158.667 -114.667 -339 -172 -541 -172c-247.333 0 -454.666 84.667 -621.999 254s-251 380 -251 632c0 176.667 41 341 123 493s198.333 270.667 349 356c150 85.333 308 128 474 128c72.667 0 139 -6.66699 199 -20c30 -5.33301 59.333 -13.666 88 -24.999
c28.667 -10.667 57.334 -24.334 86.001 -41.001c110.667 -53.333 195.334 -135.666 254.001 -246.999c58.667 -110.667 88 -227.667 88 -351c0 -121.333 -26.667 -241.666 -80 -360.999s-122.333 -206.666 -207 -261.999s-172.667 -83 -264 -83
c-48.667 0 -86.667 11.667 -114 35c-26 25.333 -39 60 -39 104c0 27.333 0.666992 48 2 62c1.33301 13.333 6 41 14 83c-87.333 -107.333 -161.666 -181.666 -222.999 -222.999c-61.333 -40.667 -117.333 -61 -168 -61c-46.667 0 -88.667 21 -126 63
c-37.333 41.333 -56 98 -56 170c0 92.667 30.667 199.334 92 320.001c61.333 120 145.333 219 252 297c76 56 145 84 207 84c40.667 0 76 -10.667 106 -32s52 -57.333 66 -108l32 111zM1057 917.997c-45.333 0 -96.002 -26 -152.002 -78
c-70.667 -72.667 -134.667 -178 -192 -316c-40 -99.333 -60 -175 -60 -227c0 -45.333 11.667 -81.666 35 -108.999c24.667 -24 51.334 -36 80.001 -36c36.667 0 77.334 14 122.001 42c44 28 88.667 74 134 138c45.333 57.333 79.333 119.333 102 186
c37.333 105.333 56 189.333 56 252c0 45.333 -11.667 81.666 -35 108.999c-26 26 -56 39 -90 39z" />
    <glyph glyph-name="A" unicode="A" horiz-adv-x="1366" 
d="M-2 0l561 1466h209l600 -1466h-219l-172 444h-612l-162 -444h-205zM420 602h498l-154 406c-44 118.667 -79 220.334 -105 305.001c-9.33301 -46.667 -20.333 -93.667 -33 -141c-12 -46.667 -26.667 -93.334 -44 -140.001z" />
    <glyph glyph-name="B" unicode="B" horiz-adv-x="1366" 
d="M150 0l0.00195312 1466h550c108 0 196.667 -14.667 266 -44c70 -29.333 124 -75.666 162 -138.999c38.667 -63.333 58 -127 58 -191c0 -63.333 -16.667 -122 -50 -176c-32.667 -54.667 -84.334 -100 -155.001 -136c88.667 -27.333 157 -72 205 -134
c47.333 -62 71 -135.333 71 -220c0 -69.333 -15 -133.666 -45 -192.999c-25.333 -58.667 -60 -104 -104 -136s-98.333 -56.333 -163 -73c-64.667 -16 -143.334 -24 -236.001 -24h-559zM344.002 849.998l318.002 0.000976562c90 0 151.333 5.33301 184 16
c49.333 15.333 86.666 40.666 111.999 75.999c24.667 35.333 37 77 37 125c0 46.667 -11 88.667 -33 126c-22.667 37.333 -55.334 63 -98.001 77c-43.333 14.667 -119 22 -227 22h-293v-442zM344.004 171.999l365 -0.000976562c20 0 42 0.333008 66 1s46.333 3 67 7
c44.667 8.66699 82 22 112 40c30 18.667 54.667 46 74 82s29 77.333 29 124c0 53.333 -14.333 100 -43 140c-28.667 40.667 -68.667 69.334 -120 86.001c-51.333 17.333 -122 26 -212 26h-338v-506z" />
    <glyph glyph-name="C" unicode="C" horiz-adv-x="1478" 
d="M1204 514l195.001 -49.001c-41.333 -158.667 -114.333 -279.667 -219 -363c-105.333 -84 -235 -126 -389 -126c-158.667 0 -287 32 -385 96c-98.667 64 -174 158 -226 282c-52 124.667 -78 254.334 -78 389.001c0 152 29.333 285.333 88 400
c59.333 114.667 143.333 201.334 252 260.001c108 58.667 225.667 88 353 88c146 0 269 -37 369 -111c100.667 -74.667 170 -179.667 208 -315l-190 -45c-32.667 105.333 -81.334 182.666 -146.001 231.999c-65.333 48.667 -147 73 -245 73c-113.333 0 -208 -27 -284 -81
s-129.333 -126.667 -160 -218s-46 -185 -46 -281c0 -124 18.333 -232.667 55 -326c36 -93.333 92 -163 168 -209c76.667 -46 160 -69 250 -69c109.333 0 202 31 278 93c75.333 62.667 126 156 152 280z" />
    <glyph glyph-name="D" unicode="D" horiz-adv-x="1478" 
d="M158 0l-0.000976562 1466h506c107.333 0 194 -6.66699 260 -20c84.667 -20.667 156.334 -56.334 215.001 -107.001c76 -62.667 133.667 -146.334 173 -251.001c38.667 -105.333 58 -221 58 -347c0 -112 -13 -210.667 -39 -296s-58.333 -155.666 -97 -210.999
c-38.667 -56 -84 -101.333 -136 -136c-45.333 -30 -103.333 -54 -174 -72c-70 -17.333 -149.333 -26 -238 -26h-528zM351.999 172.001l314 -0.000976562c91.333 0 165.333 8.66699 222 26c56.667 18 102 44 136 78c46.667 46.667 82.667 108 108 184
c24.667 76.667 37 171 37 283c0 153.333 -25 271.333 -75 354c-49.333 82.667 -110.333 138.334 -183 167.001c-54.667 18.667 -138.667 28 -252 28h-307v-1120z" />
    <glyph glyph-name="E" unicode="E" horiz-adv-x="1366" 
d="M162 0v1466h1061v-174h-867v-448h811v-172h-811v-500h899v-172h-1093z" />
    <glyph glyph-name="F" unicode="F" horiz-adv-x="1251" 
d="M168 0v1466h989v-174h-795v-452h689v-174h-689v-666h-194z" />
    <glyph glyph-name="G" unicode="G" horiz-adv-x="1593" 
d="M844 575l-0.00390625 173h620v-543c-94 -75.333 -191.333 -132.333 -292 -171c-100 -38.667 -204.667 -58 -314 -58c-76.667 0 -145.667 7 -207 21s-123.333 37.667 -186 71c-117.333 61.333 -206 150.333 -266 267s-90 246.667 -90 390c0 146 30 280.333 90 403
c60 123.333 146 214.666 258 273.999s241 89 387 89c106.667 0 202 -17 286 -51c84.667 -34 151.334 -81.333 200.001 -142c48.667 -61.333 86.667 -141.666 114 -240.999l-176 -49c-23.333 76 -50.666 134.667 -81.999 176c-31.333 42 -77.333 76 -138 102
c-61.333 26 -129.333 39 -204 39c-49.333 0 -90.666 -2.66699 -123.999 -8s-68.666 -16.333 -105.999 -33c-65.333 -27.333 -117.333 -62.666 -156 -105.999c-39.333 -42.667 -70.333 -91.334 -93 -146.001c-37.333 -90 -56 -188.333 -56 -295c0 -128 22.333 -237 67 -327
c45.333 -89.333 112 -155 200 -197c87.333 -42 178 -63 272 -63c83.333 0 164 15.333 242 46c78.667 30.667 140.667 65.667 186 105v274h-432z" />
    <glyph glyph-name="H" unicode="H" horiz-adv-x="1478" 
d="M164 0v1466h194v-602h762v602h195v-1466h-195v690h-762v-690h-194z" />
    <glyph glyph-name="I" unicode="I" horiz-adv-x="569" 
d="M190 0v1466h195v-1466h-195z" />
    <glyph glyph-name="J" unicode="J" horiz-adv-x="1024" 
d="M59 416l173.997 24c0 -56 5.66699 -102.667 17 -140c10.667 -37.333 26.334 -67 47.001 -89c38 -42.667 90 -64 156 -64c46 0 87 11.333 123 34c36.667 22.667 62 53.667 76 93c13.333 40 20 101 20 183v1009h192v-999c0 -124 -14.667 -219 -44 -285
c-29.333 -66.667 -76.666 -117.667 -141.999 -153s-140.333 -53 -225 -53c-127.333 0 -225.666 36.667 -294.999 110c-34.667 36.667 -60 81.667 -76 135c-15.333 53.333 -23 118.333 -23 195z" />
    <glyph glyph-name="K" unicode="K" horiz-adv-x="1366" 
d="M150 0v1466h194v-727l727 727h264l-614 -594l641 -872h-256l-522 741l-240 -233v-508h-194z" />
    <glyph glyph-name="L" unicode="L" horiz-adv-x="1138" 
d="M150 0v1466h194v-1294h723v-172h-917z" />
    <glyph glyph-name="M" unicode="M" horiz-adv-x="1705" 
d="M152 0v1466h292l347 -1038l69 -217l78 235l352 1020h260v-1466h-186v1227l-426 -1227h-174l-424 1247v-1247h-188z" />
    <glyph glyph-name="N" unicode="N" horiz-adv-x="1478" 
d="M156 0v1466h198l770 -1151v1151h187v-1466h-199l-770 1153v-1153h-186z" />
    <glyph glyph-name="O" unicode="O" horiz-adv-x="1593" 
d="M98 715c0 241.333 65.667 431.334 197 570.001s300 208 506 208c135.333 0 257 -32.333 365 -97c108.667 -64 191.667 -154 249 -270s86 -247.667 86 -395c0 -146 -29.667 -277.667 -89 -395s-145 -207.333 -257 -270c-52 -30.667 -108 -53.334 -168 -68.001
s-122 -22 -186 -22c-139.333 0 -263 33 -371 99s-190.333 157 -247 273s-85 238.333 -85 367zM299 711.001c0 -176.667 47.667 -315.666 143 -416.999c96 -102 215 -153 357 -153c146 0 266 51.333 360 154s141 248 141 436c0 118.667 -20 223 -60 313
c-40 89.333 -99 158.666 -177 207.999c-78 48.667 -164.667 73 -260 73c-136.667 0 -230 -23.5 -280 -70.5l-149.5 -141.5c-49.667 -47.333 -74.5 -181.333 -74.5 -402z" />
    <glyph glyph-name="P" unicode="P" horiz-adv-x="1366" 
d="M158 0v1466h553c100.667 0 175 -4.66699 223 -14c75.333 -12 135.333 -35.333 180 -70c48 -31.333 87.667 -78.333 119 -141c13.333 -28.667 24.333 -59.667 33 -93c8 -33.333 12 -68.666 12 -105.999c0 -122.667 -39.667 -227.667 -119 -315s-223.333 -131 -432 -131
h-375v-596h-194zM352 767.999h379c122.667 0 211 23.333 265 70c54 46 81 112 81 198c0 61.333 -15.667 114 -47 158s-72.333 72.667 -123 86c-31.333 8 -91.333 12 -180 12h-375v-524z" />
    <glyph glyph-name="Q" unicode="Q" horiz-adv-x="1593" 
d="M1270 158c88.667 -63.333 171.333 -109.332 248 -137.999l-58 -134c-106.667 39.333 -211 99.333 -313 180c-109.333 -60 -229.666 -90 -360.999 -90c-133.333 0 -253.666 32 -360.999 96s-190.333 153.667 -249 269s-88 246 -88 392c0 144.667 29 275.667 87 393
c58 118 141.667 209 251 273c53.333 30 110.666 53 171.999 69c61.333 16.667 125.666 25 192.999 25c133.333 0 254 -32.333 362 -97c108 -64 191.333 -155 250 -273s88 -248 88 -390c0 -118.667 -18.333 -226.334 -55 -323.001c-36 -96 -91.333 -180 -166 -252z
M841.999 406.001c113.333 -30.667 205.334 -77.999 276.001 -141.999c114.667 105.333 172 261.666 172 468.999c0 117.333 -20 220.333 -60 309c-39.333 88 -98 157.333 -176 208c-78.667 50 -166.334 75 -263.001 75c-145.333 0 -265.333 -49.5 -360 -148.5
s-142 -246.833 -142 -443.5c0 -188 46.667 -333.667 140 -437s214 -155 362 -155c70.667 0 136 13 196 39c-60 40 -124 68 -192 84z" />
    <glyph glyph-name="R" unicode="R" horiz-adv-x="1479" 
d="M161 0v1466h650c130.667 0 230 -13.167 298 -39.5s122.333 -72.833 163 -139.5s61 -140.334 61 -221.001c0 -104 -33.667 -191.667 -101 -263s-171.333 -116.666 -312 -135.999c51.333 -24.667 90.333 -49 117 -73c56.667 -52 110.334 -117 161.001 -195l255 -399h-244
l-194 305c-56.667 88 -103.334 155.333 -140.001 202s-69.5 79.334 -98.5 98.001s-58.5 31.667 -88.5 39c-22 4.66699 -58 7 -108 7h-225v-651h-194zM355 818.999l417 0.00195312c88.667 0 158 9.16699 208 27.5s88 47.666 114 87.999s39 84.166 39 131.499
c0 69.333 -25.167 126.333 -75.5 171s-129.833 67 -238.5 67h-464v-485z" />
    <glyph glyph-name="S" unicode="S" horiz-adv-x="1366" 
d="M92 471l182.001 16c8.66699 -72 29 -131.667 61 -179c32 -48 81 -86.333 147 -115c66.667 -28.667 142.334 -43 227.001 -43c76 0 141.667 10.667 197 32c55.333 22 96.666 52 123.999 90c12.667 16.667 22.667 36 30 58c7.33301 21.333 11 43.666 11 66.999
c0 46.667 -13.333 87.334 -40 122.001s-70.667 63 -132 85c-32.667 14 -119.334 38 -260.001 72c-65.333 16 -122.333 32 -171 48s-86 30.667 -112 44c-70.667 36.667 -123 81.667 -157 135c-34.667 57.333 -52 118.666 -52 183.999c0 72.667 21.667 141.667 65 207
c42.667 64.667 104 113.667 184 147s169.333 50 268 50c54 0 104.333 -4.33301 151 -13c46.667 -8 91.667 -21.333 135 -40c83.333 -32.667 148 -84.667 194 -156c46.667 -70.667 70 -147 70 -229l-186 -15c-8 90.667 -41.333 160.667 -100 210
c-58.667 48.667 -144 73 -256 73c-116 0 -201 -21.667 -255 -65c-54 -44 -81 -96 -81 -156c0 -50.667 18 -93.334 54 -128.001s133.667 -70 293 -106c159.333 -35.333 268.333 -66.666 327 -93.999c83.333 -38 146 -87.667 188 -149c20.667 -32 36 -65 46 -99
c10.667 -34 16 -70.667 16 -110c0 -78 -22 -151.333 -66 -220c-44 -68 -108 -121.333 -192 -160c-83.333 -38.667 -178.333 -58 -285 -58c-134 0 -245.667 19.333 -335 58s-159.333 96.334 -210 173.001c-24.667 38 -44 79.667 -58 125c-14.667 46 -22 92.333 -22 139z" />
    <glyph glyph-name="T" unicode="T" horiz-adv-x="1251" 
d="M530 0v1292h-483v174h1163v-174h-485v-1292h-195z" />
    <glyph glyph-name="U" unicode="U" horiz-adv-x="1478" 
d="M1120 1466h195v-848c0 -148.667 -17 -265.334 -51 -350.001c-33.333 -84.667 -93.333 -154.667 -180 -210c-86.667 -54.667 -201 -82 -343 -82c-137.333 0 -249 23.333 -335 70c-86.667 46 -149 114.333 -187 205s-57 213 -57 367v848h192v-845
c0 -126 11.667 -220.333 35 -283c24.667 -60 65.667 -106.333 123 -139c61.333 -32.667 132.333 -49 213 -49c140.667 0 241.667 32.333 303 97s92 189.334 92 374.001v845z" />
    <glyph glyph-name="V" unicode="V" horiz-adv-x="1366" 
d="M578 0l-569.999 1466h211l381 -1065c1.33301 -2.66699 11.666 -34 30.999 -94c30 -91.333 45.667 -139.666 47 -144.999c9.33301 36.667 20.666 75.334 33.999 116.001c12.667 40 27.334 81 44.001 123l397 1065h197l-574 -1466h-198z" />
    <glyph glyph-name="W" unicode="W" horiz-adv-x="1933" 
d="M414 0l-389 1466h198l223 -960c22 -88.667 43.333 -189 64 -301l65 270l279 991h233l211 -741c53.333 -194 91 -367.333 113 -520c19.333 92.667 44 199 74 319l229 942h197l-404 -1466h-186l-309 1116l-45 172l-43 -172l-312 -1116h-198z" />
    <glyph glyph-name="X" unicode="X" horiz-adv-x="1366" 
d="M8 0l567 763.999l-499 702h231l266 -376c56 -79.333 95 -139.666 117 -180.999c30 49.333 69 105.333 117 168l295 389h211l-514 -692l555 -774h-242l-369 522l-63 99l-70 -109l-368 -512h-234z" />
    <glyph glyph-name="Y" unicode="Y" horiz-adv-x="1366" 
d="M571 0v621l-565 845h236l288 -442c50.667 -79.333 100.667 -162 150 -248l72 121c20 34 49.333 79.667 88 137l284 432h226l-584 -845v-621h-195z" />
    <glyph glyph-name="Z" unicode="Z" horiz-adv-x="1251" 
d="M41 0v180l752 938l79 96c26 30.667 50 56.667 72 78h-817v174h1049v-174l-824 -1016l-88 -104h936v-172h-1159z" />
    <glyph glyph-name="bracketleft" unicode="[" horiz-adv-x="569" 
d="M139 -407v1873h398v-149h-218v-1575h218v-149h-398z" />
    <glyph glyph-name="backslash" unicode="\" horiz-adv-x="569" 
d="M426 -24l-426 1515h145l424 -1515h-143z" />
    <glyph glyph-name="bracketright" unicode="]" horiz-adv-x="569" 
d="M436 -407h-397v149h217v1575h-217v149h397v-1873z" />
    <glyph glyph-name="asciicircum" unicode="^" horiz-adv-x="960" 
d="M240 690h-187l355 801h145l354 -801h-182l-246 596z" />
    <glyph glyph-name="underscore" unicode="_" horiz-adv-x="1138" 
d="M-30 -407v131h1191v-131h-1191z" />
    <glyph glyph-name="grave" unicode="`" horiz-adv-x="681" 
d="M465 1194h-146l-231 281h242z" />
    <glyph glyph-name="a" unicode="a" horiz-adv-x="1138" 
d="M827 131c-68 -57.333 -132.668 -97.668 -194.001 -121.001c-61.333 -22.667 -127 -34 -197 -34c-114.667 0 -203.667 29 -267 87s-95 130.667 -95 218c0 50 12 97 36 141c23.333 43.333 53.333 77.666 90 102.999c36 25.333 80 45.666 132 60.999l160 26
c144.667 16.667 251.667 37.334 321 62.001v47c0 72 -16.333 124 -49 156c-49.333 40.667 -118.333 61 -207 61c-82 0 -143.5 -15 -184.5 -45s-71.5 -82.667 -91.5 -158l-177 25c16.667 74.667 43.334 134.667 80.001 180c32.667 45.333 84.667 80.666 156 105.999
c70.667 26 152 39 244 39c90 0 163.667 -10 221 -30c54.667 -22 96 -49.333 124 -82s46.667 -73 56 -121c5.33301 -26 8.33301 -53.667 9 -83s1 -57.666 1 -84.999v-240c0 -173.333 3 -275.666 9 -306.999c5.33301 -31.333 11.333 -56.333 18 -75
c6.66699 -18 17 -38.667 31 -62h-189c-18.667 36.667 -31 80.334 -37 131.001zM812.999 531.998c-65.333 -24 -163.667 -46.334 -295 -67.001c-72 -9.33301 -124 -21.666 -156 -36.999c-30 -12 -53.333 -31.333 -70 -58c-17.333 -26.667 -26 -55 -26 -85
c0 -48 18 -88 54 -120c36.667 -32 89.667 -48 159 -48c70 0 131.667 15 185 45c54 30 94 71.667 120 125c19.333 42 29 102 29 180v65z" />
    <glyph glyph-name="b" unicode="b" horiz-adv-x="1138" 
d="M301 0l-168 0.000976562v1466h180v-524c75.333 95.333 172.333 143 291 143c67.333 0 130.333 -13 189 -39c58.667 -26.667 105.667 -63.334 141 -110.001c36.667 -44 66 -100.667 88 -170s33 -142.333 33 -219c0 -180.667 -45.667 -321 -137 -421
c-90.667 -100 -198 -150 -322 -150s-222.333 52.333 -295 157v-133zM299 539.001c0 -128.667 17.001 -221 51.001 -277c57.333 -91.333 134.666 -137 231.999 -137c77.333 0 144.666 34.333 201.999 103c57.333 68 86 169.333 86 304c0 138 -27.333 240 -82 306
c-55.333 66.667 -121.333 100 -198 100c-79.333 0 -147.666 -34 -204.999 -102c-57.333 -68.667 -86 -167.667 -86 -297z" />
    <glyph glyph-name="c" unicode="c" horiz-adv-x="1024" 
d="M827 389l179.002 -22.001c-20.667 -124.667 -71 -221 -151 -289s-177.333 -102 -292 -102c-146 0 -263 47.667 -351 143s-132 231 -132 407c0 116 18.667 217 56 303c38 86 95.333 150.333 172 193c77.333 42 162.333 63 255 63c114.667 0 209 -29.333 283 -88
c73.333 -58.667 120.333 -141 141 -247l-174 -27c-16.667 70.667 -46.334 124.334 -89.001 161.001c-43.333 36 -94.333 54 -153 54c-90 0 -163.667 -32.667 -221 -98c-57.333 -66 -86 -168.667 -86 -308c0 -140 27.667 -242.667 83 -308
c55.333 -66 126.666 -99 213.999 -99c71.333 0 130.333 21.667 177 65c47.333 42.667 77 109 89 199z" />
    <glyph glyph-name="d" unicode="d" horiz-adv-x="1138" 
d="M823 0v133.001c-65.333 -104.667 -164.333 -157 -297 -157c-82 0 -159.333 23.333 -232 70c-72 47.333 -127.333 113.333 -166 198s-58 180 -58 286c0 108 17.667 204.667 53 290s88.333 150.666 159 195.999c70 46 148.667 69 236 69c68.667 0 126 -13.667 172 -41
c48 -24 88.333 -58.667 121 -104v526h180v-1466h-168zM256 530.001c0 -137.333 28 -239.333 84 -306c56 -66 124.333 -99 205 -99c78 0 144.333 32.333 199 97c55.333 64.667 83 162 83 292c0 143.333 -28.333 250 -85 320c-56.667 69.333 -125 104 -205 104
c-80.667 0 -147.667 -32.667 -201 -98c-53.333 -66 -80 -169.333 -80 -310z" />
    <glyph glyph-name="e" unicode="e" horiz-adv-x="1138" 
d="M862 342l187 -23c-28.667 -106 -83 -189.667 -163 -251s-181.333 -92 -304 -92c-156 0 -279.333 48 -370 144s-136 230 -136 402c0 177.333 46 315.333 138 414c92 99.333 211 149 357 149c143.333 0 259.666 -47.667 348.999 -143c90 -95.333 135 -232 135 -410l-2 -47
h-793c0 -57.333 8.5 -107.833 25.5 -151.5s41.833 -82.5 74.5 -116.5c60.667 -61.333 134.667 -92 222 -92c66.667 0 123.334 17.333 170.001 52c46 34.667 82.667 89.667 110 165zM270 633h594c-8 88.667 -30.333 155.667 -67 201c-57.333 69.333 -132 104 -224 104
c-82.667 0 -153.667 -28.667 -213 -86c-60 -57.333 -90 -130.333 -90 -219z" />
    <glyph glyph-name="f" unicode="f" horiz-adv-x="569" 
d="M178 0v922h-160v141h160v113c0 69.333 7.33301 124 22 164c14 40.667 43.333 76 88 106c44 30 105 45 183 45c49.333 0 106 -6 170 -18l-29 -156c-14.667 2.66699 -31.667 4.66699 -51 6s-37 2 -53 2c-54.667 0 -93.667 -11.667 -117 -35s-35 -67 -35 -131v-96h207v-141
h-207v-922h-178z" />
    <glyph glyph-name="g" unicode="g" horiz-adv-x="1138" 
d="M102 -88l173.999 -25.998c8.66699 -54.667 29.334 -93.667 62.001 -117c46.667 -34 107.334 -51 182.001 -51c83.333 0 147.333 16.333 192 49c44 32.667 75.667 79.667 95 141c8 37.333 12 114.333 12 231c-78 -92.667 -176.333 -139 -295 -139
c-146 0 -258.667 52.667 -338 158c-80 104.667 -120 231 -120 379c0 100.667 18.333 193.667 55 279s89.667 151.333 159 198c68.667 47.333 150.667 71 246 71c126 0 229.333 -50.333 310 -151v129h165v-920c0 -164.667 -16.333 -281 -49 -349
c-32.667 -68.667 -85.334 -123.334 -158.001 -164.001c-72 -40 -162.667 -60 -272 -60c-64 0 -121.333 6.66699 -172 20c-50.667 14 -95.667 36 -135 66c-75.333 53.333 -113 138.666 -113 255.999zM251.999 551.002c0 -140.667 27.3311 -242.667 81.998 -306
s124.334 -95 209.001 -95c80.667 0 149.334 31 206.001 93s85 162.667 85 302c0 129.333 -29.333 227 -88 293c-58 66.667 -127 100 -207 100c-79.333 0 -147 -32.667 -203 -98c-56 -64.667 -84 -161 -84 -289z" />
    <glyph glyph-name="h" unicode="h" horiz-adv-x="1138" 
d="M135 0l0.000976562 1466h180v-526c84.667 96.667 190.667 145 318 145c79.333 0 147.666 -15.667 204.999 -47c58.667 -28.667 100 -71 124 -127c24.667 -56 37 -135 37 -237v-674h-180v674c0 90 -19.5 155.5 -58.5 196.5s-93.833 61.5 -164.5 61.5
c-52 0 -101.333 -13.667 -148 -41c-47.333 -27.333 -82 -65.666 -104 -114.999c-19.333 -49.333 -29 -114 -29 -194v-582h-180z" />
    <glyph glyph-name="i" unicode="i" horiz-adv-x="454" 
d="M135 1260v206h180v-206h-180zM135 0v1063h180v-1063h-180z" />
    <glyph glyph-name="j" unicode="j" horiz-adv-x="454" 
d="M133 1257v209h180v-209h-180zM-94 -411l35 153.001c32.667 -9.33301 60.667 -14 84 -14c35.333 0 62.333 11.667 81 35c18 23.333 27 84.666 27 183.999v1116h180v-1120c0 -130.667 -17 -222 -51 -274c-43.333 -66 -115 -99 -215 -99c-34 0 -59 1.33301 -75 4
c-15.333 2 -37.333 7 -66 15z" />
    <glyph glyph-name="k" unicode="k" horiz-adv-x="1024" 
d="M135 0v1466h180v-835l426 432h234l-406 -395l447 -668h-221l-353 543l-127 -121v-422h-180z" />
    <glyph glyph-name="l" unicode="l" horiz-adv-x="454" 
d="M131 0v1466h180v-1466h-180z" />
    <glyph glyph-name="m" unicode="m" horiz-adv-x="1705" 
d="M135 0l-0.00195312 1063h162v-150c32.667 50.667 76.667 92 132 124s118.333 48 189 48c76.667 0 140.667 -16 192 -48s87.333 -78 108 -138c82.667 124 191.667 186 327 186c105.333 0 186.666 -29.667 243.999 -89s86 -148.333 86 -267v-729h-180v670
c0 70.667 -6.33301 121.667 -19 153c-9.33301 31.333 -29.666 57 -60.999 77s-67.666 30 -108.999 30c-74.667 0 -136.667 -24.667 -186 -74s-74 -129.333 -74 -240v-616h-180v690c0 79.333 -14.333 139.333 -43 180c-31.333 40 -79.666 60 -144.999 60
c-50.667 0 -98 -13 -142 -39c-40.667 -27.333 -71 -66.666 -91 -117.999s-30 -125.333 -30 -222v-551h-180z" />
    <glyph glyph-name="n" unicode="n" horiz-adv-x="1138" 
d="M135 0l-0.000976562 1063h162v-152c79.333 116 192 174 338 174c66.667 0 125.334 -11.333 176.001 -34c56 -23.333 96.333 -53.333 121 -90c27.333 -37.333 45.666 -82 54.999 -134c5.33301 -27.333 8.33301 -56 9 -86s1 -59.333 1 -88v-653h-180v645
c0 74 -7 129 -21 165c-13.333 36 -37.666 65 -72.999 87s-77 33 -125 33c-76.667 0 -143 -24 -199 -72s-84 -140.667 -84 -278v-580h-180z" />
    <glyph glyph-name="o" unicode="o" horiz-adv-x="1138" 
d="M68 530c0 195.333 54.334 341.667 163.001 439c93.333 77.333 204.666 116 333.999 116c147.333 0 267 -47.667 359 -143c92.667 -95.333 139 -227 139 -395c0 -135.333 -20.333 -242.333 -61 -321c-40 -78 -100 -139.333 -180 -184c-80 -44 -165.667 -66 -257 -66
c-146 0 -265.333 47.667 -358 143s-139 232.333 -139 411zM254.001 530.001c0 -136 29.332 -237.334 87.999 -304.001c58.667 -67.333 133 -101 223 -101s164.333 33.333 223 100c30.667 36 53.334 79 68.001 129c15.333 50.667 23 111.667 23 183
c0 130.667 -30.333 230.334 -91 299.001c-60 68 -134.333 102 -223 102s-162.667 -34 -222 -102c-59.333 -67.333 -89 -169.333 -89 -306z" />
    <glyph glyph-name="p" unicode="p" horiz-adv-x="1138" 
d="M135 -407v1470h164v-139c38 53.333 81.333 93.333 130 120c48.667 27.333 107.667 41 177 41c90 0 170 -23 240 -69c69.333 -46.667 122 -113 158 -199c35.333 -86 53 -178.667 53 -278c0 -110.667 -19 -208.667 -57 -294c-38.667 -85.333 -96 -151.666 -172 -198.999
c-76.667 -46.667 -154.667 -70 -234 -70c-61.333 0 -115.333 12.5 -162 37.5s-85.667 57.5 -117 97.5v-518h-180zM299 523.999c0 -134.667 27.666 -234.666 82.999 -299.999c55.333 -66 122 -99 200 -99c78.667 0 146.667 33.667 204 101c57.333 68 86 173 86 315
c0 136 -27.333 237 -82 303c-55.333 66.667 -122 100 -200 100c-75.333 0 -143.666 -35.333 -204.999 -106c-57.333 -72.667 -86 -177.334 -86 -314.001z" />
    <glyph glyph-name="q" unicode="q" horiz-adv-x="1138" 
d="M811 -407v520c-24.667 -36 -63.667 -69 -117 -99c-27.333 -13.333 -53.333 -23 -78 -29c-24 -6 -51 -9 -81 -9c-127.333 0 -236.333 50.667 -327 152c-90.667 102 -136 239.667 -136 413c0 104.667 18.667 200 56 286s90 150.333 158 193
c68.667 43.333 146.667 65 234 65c130 0 233 -55 309 -165v143h162v-1470h-180zM256 535c0 -134 28.666 -237.333 85.999 -310c57.333 -66.667 126.333 -100 207 -100c76.667 0 142.334 32 197.001 96c55.333 64 83 163 83 297c0 142 -29.333 248.667 -88 320
c-58.667 70.667 -126.667 106 -204 106c-78 0 -144.333 -33.333 -199 -100c-54.667 -67.333 -82 -170.333 -82 -309z" />
    <glyph glyph-name="r" unicode="r" horiz-adv-x="681" 
d="M133 0l-0.000976562 1063h162v-162c19.333 35.333 39 66 59 92c20.667 26 39.334 45.333 56.001 58c35.333 22.667 73.333 34 114 34c60 0 122.333 -19 187 -57l-64 -168c-42 26 -85.667 39 -131 39c-39.333 0 -74.333 -11.333 -105 -34s-53.667 -55.667 -69 -99
c-19.333 -65.333 -29 -135.666 -29 -210.999v-555h-180z" />
    <glyph glyph-name="s" unicode="s" horiz-adv-x="1024" 
d="M63 317l178.999 27.0039c10.667 -70.667 38 -125.334 82 -164.001c47.333 -36.667 111.333 -55 192 -55c84.667 0 146.667 17 186 51c38.667 34 58 73 58 117c0 40.667 -17.667 72.667 -53 96c-26 18 -87.667 38.667 -185 62c-132 32.667 -222.667 60.334 -272 83.001
c-49.333 23.333 -89 57.666 -119 102.999c-26 45.333 -39 93 -39 143c0 48 11 91.333 33 130c22 39.333 51.333 73.333 88 102c24.667 17.333 63 35 115 53c22.667 5.33301 47.667 10 75 14s54 6 80 6c83.333 0 155.833 -11.5 217.5 -34.5s109.5 -55.833 143.5 -98.5
c28.667 -40.667 49 -95.334 61 -164.001l-176 -24c-8 53.333 -31.333 96.333 -70 129c-40.667 30 -94.334 45 -161.001 45c-83.333 0 -142.666 -13.667 -177.999 -41c-36 -27.333 -54 -59.333 -54 -96c0 -10 2 -20.333 6 -31c4.66699 -10.667 10.334 -21.667 17.001 -33
c14.667 -18.667 37.667 -34.334 69 -47.001l158 -47c121.333 -31.333 210 -59.333 266 -84c50.667 -20.667 90.334 -51.334 119.001 -92.001s43 -92.667 43 -156c0 -58.667 -17 -115.334 -51 -170.001c-35.333 -52 -86 -93 -152 -123c-31.333 -12 -66.833 -22 -106.5 -30
s-79.167 -12 -118.5 -12c-136.667 0 -241.334 28 -314.001 84c-72 56.667 -118.333 142.334 -139 257.001z" />
    <glyph glyph-name="t" unicode="t" horiz-adv-x="569" 
d="M528 162l27 -160.001c-27.333 -5.33301 -51 -9.33301 -71 -12c-20.667 -2.66699 -42.667 -4 -66 -4c-64 0 -114.667 10 -152 30c-36.667 20.667 -62 48 -76 82c-14.667 34.667 -22 105.667 -22 213v611h-131v141h131v262l178 109v-371h182v-141h-182v-621
c0 -49.333 3.33301 -81.666 10 -96.999c7.33301 -16 18.666 -28.333 33.999 -37c14.667 -8.66699 34.334 -13 59.001 -13h34c19.333 4 34.333 6.66699 45 8z" />
    <glyph glyph-name="u" unicode="u" horiz-adv-x="1138" 
d="M831 0l0.00195312 155.998c-82.667 -120 -195 -180 -337 -180c-60.667 0 -119.334 12.5 -176.001 37.5s-97 54.5 -121 88.5c-12.667 16.667 -23.334 36.334 -32.001 59.001s-16.667 47.667 -24 75c-6.66699 38 -10 93.667 -10 167v660h180v-590
c0 -99.333 3.66699 -162.666 11 -189.999c12 -48 35.667 -85.667 71 -113c40 -26 85.667 -39 137 -39c56 0 107 14 153 42s79 65 99 111c19.333 46.667 29 116.667 29 210v569h180v-1063h-160z" />
    <glyph glyph-name="v" unicode="v" horiz-adv-x="1024" 
d="M430 0l-403 1063h188l229 -637c7.33301 -19.333 21 -62.333 41 -129c12.667 -38 21.667 -66 27 -84l68 201l235 649h184l-401 -1063h-168z" />
    <glyph glyph-name="w" unicode="w" horiz-adv-x="1478" 
d="M332 0l-326 1063h187l167 -614l64 -228l55 219l168 623h187l157 -617l53 -202l62 205l182 614h174l-332 -1063h-186l-170 637l-41 180l-215 -817h-186z" />
    <glyph glyph-name="x" unicode="x" horiz-adv-x="1024" 
d="M14 0l389 553l-360 510h225l164 -250l74 -119l82 117l178 252h215l-367 -502l396 -561h-222l-219 330l-57 90l-279 -420h-219z" />
    <glyph glyph-name="y" unicode="y" horiz-adv-x="1024" 
d="M127 -409l-20.999 170c41.333 -11.333 76.333 -17 105 -17c40.667 0 72 7 94 21c23.333 10.667 43.333 29 60 55c9.33301 14 27.666 59 54.999 135l16 43l-403 1065h194l222 -617c12 -34 25 -73.333 39 -118c13.333 -44 25.333 -86.333 36 -127
c20.667 78.667 45.334 159 74.001 241l227 621h181l-404 -1081c-44.667 -118.667 -78 -198.667 -100 -240c-32.667 -58.667 -69.334 -102 -110.001 -130c-40 -28 -89.333 -42 -148 -42c-37.333 0 -76.333 7 -117 21z" />
    <glyph glyph-name="z" unicode="z" horiz-adv-x="1024" 
d="M41 0v145l676 777l-205 -7h-432v148h868v-121l-575 -674l-111 -123c36.667 0 66 0.666992 88 2c88.667 6 135 9 139 9h492v-156h-940z" />
    <glyph glyph-name="braceleft" unicode="{" horiz-adv-x="684" 
d="M57 612c49.333 0 90.3311 13.6689 122.998 41.002s55.334 63.666 68.001 108.999c4 27.333 7.66699 65.333 11 114c3.33301 48 5 88.333 5 121c0 110.667 2.66699 189.667 8 237c6 47.333 16.667 87.333 32 120c16 32.667 35.333 58.667 58 78c22 18.667 53.667 35 95 49
c27.333 6.66699 68.333 10 123 10h57v-158h-33c-70.667 0 -117 -12.667 -139 -38s-33 -81 -33 -167v-61v-49v-39v-33v-26c0 -62 -3.33301 -102.333 -10 -121c-12.667 -71.333 -33.667 -126.333 -63 -165c-29.333 -39.333 -74.666 -74 -135.999 -104
c74 -30 127.333 -76.333 160 -139s49 -166.334 49 -311.001l4 -231c5.33301 -45.333 19 -77.333 41 -96c24.667 -18 67 -27 127 -27h33v-156h-57c-66 0 -113.333 5 -142 15c-42 16 -76.667 40.333 -104 73c-27.333 33.333 -46.666 77.333 -57.999 132
c-8 52.667 -12 139 -12 259c0 116 -5.33301 198 -16 246c-11.333 48 -33.333 85.667 -66 113c-36.667 27.333 -78.334 41 -125.001 41v163z" />
    <glyph glyph-name="bar" unicode="|" horiz-adv-x="532" 
d="M188 -430v1921h156v-1921h-156z" />
    <glyph glyph-name="braceright" unicode="}" horiz-adv-x="684" 
d="M627 612l-0.00292969 -162.998c-50.667 0 -92.667 -13.667 -126 -41s-55 -64.333 -65 -111c-10.667 -46.667 -16 -124.667 -16 -234v-38v-33v-26c0 -57.333 -2 -98.333 -6 -123c-5.33301 -53.333 -16.666 -97 -33.999 -131s-37.666 -62 -60.999 -84
c-21.333 -18 -52 -33.667 -92 -47c-14.667 -4 -29.667 -7 -45 -9c-16 -1.33301 -42.667 -2 -80 -2h-55v156h31c69.333 0 115 13 137 39c23.333 23.333 35 79.333 35 168c0 81.333 0.666992 146 2 194s3.33301 89 6 123c9.33301 73.333 31.333 132 66 176
c31.333 44 76.333 78.667 135 104c-74 34.667 -127.333 82.667 -160 144s-49 163.666 -49 306.999v123c0 52 -1.66699 94 -5 126s-15.666 57.333 -36.999 76c-21.333 18 -64.666 27 -129.999 27h-31v158h55c68.667 0 120.667 -6.33301 156 -19
c35.333 -13.333 66.666 -37.333 93.999 -72s45.333 -78 54 -130c4 -26 7.33301 -60.667 10 -104c2.66699 -42.667 4 -94 4 -154c0 -124.667 5.33301 -208.667 16 -252c10 -42.667 31.333 -78.334 64 -107.001c16 -12 35 -21.667 57 -29c22 -8 45.333 -12 70 -12z" />
    <glyph glyph-name="asciitilde" unicode="~" horiz-adv-x="1196" 
d="M86 557l0.00390625 205.001c72.667 80.667 165.667 121 279 121c39.333 0 81.666 -6.33301 126.999 -19c36.667 -8 99.334 -31 188.001 -69l102 -37c22 -5.33301 36.667 -8.33301 44 -9c8 -0.666992 16.667 -1 26 -1c39.333 0 83.666 12.667 132.999 38
c45.333 26 87 59 125 99v-211c-42 -40 -84 -69.333 -126 -88c-42.667 -18 -92.667 -27 -150 -27c-42.667 0 -81.334 4.33301 -116.001 13c-34.667 9.33301 -91.334 31.666 -170.001 66.999s-145.334 53 -200.001 53c-43.333 0 -83.333 -8.66699 -120 -26
c-36 -18 -83.333 -54.333 -142 -109z" />
    <glyph glyph-name="copyright" unicode="&#xa9;" horiz-adv-x="1556" 
d="M778 1386c123.333 0 240.667 -30.335 352 -91.002c110.667 -60.667 198 -148 262 -262c64.667 -114 97 -232.333 97 -355c0 -120 -31 -236.667 -93 -350s-149.667 -201.666 -263 -264.999c-54.667 -30 -111.667 -53 -171 -69c-60 -16 -121.333 -24 -184 -24
c-120 0 -236.667 31.333 -350 94s-201.333 149.334 -264 260.001c-62.667 110 -94 228 -94 354c0 124 31.333 242.667 94 356s151 200.333 265 261s230.333 91 349 91zM778.001 1325c-113.333 0 -219.997 -27.332 -319.997 -81.999
c-100.667 -54.667 -180.334 -134.334 -239.001 -239.001c-28.667 -52 -50.334 -105 -65.001 -159c-15.333 -54 -23 -109.667 -23 -167c0 -112 28.333 -219.333 85 -322c56.667 -102 136 -181.667 238 -239c102.667 -57.333 210.667 -86 324 -86c116 0 223.333 27.667 322 83
c98 55.333 176.667 135.333 236 240c59.333 105.333 89 213.333 89 324s-29 218.667 -87 324c-58 104.667 -138 184.667 -240 240c-102.667 55.333 -209.334 83 -320.001 83zM1128 1135l20.998 -281.001h-39c-24.667 76.667 -64 135.334 -118 176.001
c-54 40 -115.667 60 -185 60c-56 0 -105 -10.667 -147 -32c-41.333 -21.333 -76.333 -52.333 -105 -93c-16.667 -24.667 -33 -62.334 -49 -113.001c-5.33301 -22 -10 -47 -14 -75c-4.66699 -28 -7 -53.667 -7 -77c0 -138.667 31 -242 93 -310
c61.333 -67.333 141 -101 239 -101c128.667 0 232.334 54 311.001 162l37 -21c-94 -135.333 -221.667 -203 -383 -203c-129.333 0 -238.833 43 -328.5 129s-134.5 191.333 -134.5 316c0 126.667 47 235.334 141 326.001c93.333 91.333 212.333 137 357 137l78 -7l109 -30
l36 -8c11.333 0 20.333 3 27 9s14.334 18 23.001 36h38z" />
    <glyph glyph-name="Agrave" unicode="&#xc0;" horiz-adv-x="1366" 
d="M-3 0l563 1466h209l600 -1466h-221l-171 444h-613l-161 -444h-206zM420 602l497.001 0.000976562l-153 406c-46.667 123.333 -81.334 224.666 -104.001 303.999c-18.667 -94 -45 -187.333 -79 -280zM824.001 1556h-145l-231 280h241z" />
    <glyph glyph-name="Aacute" unicode="&#xc1;" horiz-adv-x="1366" 
d="M-3 0l563 1466h209l600 -1466h-221l-171 444h-613l-161 -444h-206zM420 602l497.001 0.000976562l-153 406c-46.667 123.333 -81.334 224.666 -104.001 303.999c-18.667 -94 -45 -187.333 -79 -280zM541.001 1556l133 280h236l-220 -280h-149z" />
    <glyph glyph-name="glyph1903" unicode="&#xc2;" horiz-adv-x="1366" 
d="M-3 0l563 1466h209l600 -1466h-221l-171 444h-613l-161 -444h-206zM420 602l497.001 0.000976562l-153 406c-46.667 123.333 -81.334 224.666 -104.001 303.999c-18.667 -94 -45 -187.333 -79 -280zM664.001 1726l-113 -170h-206l216 280h192l225 -280h-204z" />
    <glyph glyph-name="Atilde" unicode="&#xc3;" horiz-adv-x="1366" 
d="M-3 0l563 1466h209l600 -1466h-221l-171 444h-613l-161 -444h-206zM420 602l497.001 0.000976562l-153 406c-46.667 123.333 -81.334 224.666 -104.001 303.999c-18.667 -94 -45 -187.333 -79 -280zM349.001 1556c-0.666992 69.333 18.3369 124.666 57.0039 165.999
c38 41.333 86.667 62 146 62c41.333 0 97.666 -18 168.999 -54c39.333 -20 70.666 -30 93.999 -30c21.333 0 37.666 5.83301 48.999 17.5s19.333 34.834 24 69.501h130c-2 -76 -21.167 -133 -57.5 -171s-82.5 -57 -138.5 -57c-42 0 -97.333 18.667 -166 56
c-44.667 24 -77.334 36 -98.001 36c-22.667 0 -41 -8 -55 -24c-14.667 -16 -21.667 -39.667 -21 -71h-133z" />
    <glyph glyph-name="Acircumflex" unicode="&#xc4;" horiz-adv-x="1366" 
d="M-3 0l563 1466h209l600 -1466h-221l-171 444h-613l-161 -444h-206zM420 602l497.001 0.000976562l-153 406c-46.667 123.333 -81.334 224.666 -104.001 303.999c-18.667 -94 -45 -187.333 -79 -280zM379.001 1556v205h188v-205h-188zM752.001 1556v205h188v-205h-188z
" />
    <glyph glyph-name="Ccedilla" unicode="&#xc7;" horiz-adv-x="1479" 
d="M1204 514l194.004 -49.002c-40.667 -159.333 -113.834 -280.833 -219.501 -364.5s-234.834 -125.5 -387.501 -125.5c-158 0 -286.5 32.167 -385.5 96.5s-174.333 157.5 -226 279.5s-77.5 253 -77.5 393c0 152.667 29.167 285.834 87.5 399.501s141.333 200 249 259
s226.167 88.5 355.5 88.5c146.667 0 270 -37.333 370 -112s169.667 -179.667 209 -315l-191 -45c-34 106.667 -83.333 184.334 -148 233.001s-146 73 -244 73c-112.667 0 -206.834 -27 -282.501 -81s-128.834 -126.5 -159.501 -217.5s-46 -184.833 -46 -281.5
c0 -124.667 18.167 -233.5 54.5 -326.5s92.833 -162.5 169.5 -208.5s159.667 -69 249 -69c108.667 0 200.667 31.333 276 94s126.333 155.667 153 279zM620.004 -154.002l52 177h134l-33 -107c56.667 -6.66699 99.334 -24.167 128.001 -52.5s43 -59.833 43 -94.5
c0 -50 -24 -94.167 -72 -132.5s-120.333 -57.5 -217 -57.5c-54.667 0 -102.667 4 -144 12l11 117c42.667 -2.66699 74 -4 94 -4c62.667 0 106.667 8.66699 132 26c19.333 13.333 29 29.666 29 48.999c0 12 -3.83301 22.667 -11.5 32s-21.834 17.333 -42.501 24
s-55 10.334 -103 11.001z" />
    <glyph glyph-name="Egrave" unicode="&#xc8;" horiz-adv-x="1366" 
d="M162 0v1466h1060v-173h-866v-449h811v-172h-811v-499h900v-173h-1094zM850 1556h-145l-231 280h241z" />
    <glyph glyph-name="Ecircumflex" unicode="&#xca;" horiz-adv-x="1366" 
d="M162 0v1466h1060v-173h-866v-449h811v-172h-811v-499h900v-173h-1094zM707 1726l-113 -170h-206l216 280h192l225 -280h-204z" />
    <glyph glyph-name="Edieresis" unicode="&#xcb;" horiz-adv-x="1366" 
d="M162 0v1466h1060v-173h-866v-449h811v-172h-811v-499h900v-173h-1094zM425 1556v205h188v-205h-188zM798 1556v205h188v-205h-188z" />
    <glyph glyph-name="Igrave" unicode="&#xcc;" horiz-adv-x="569" 
d="M191 0v1466h194v-1466h-194zM430 1556h-145l-231 280h241z" />
    <glyph glyph-name="Iacute" unicode="&#xcd;" horiz-adv-x="569" 
d="M191 0v1466h194v-1466h-194zM141 1556l133 280h236l-220 -280h-149z" />
    <glyph glyph-name="Icircumflex" unicode="&#xce;" horiz-adv-x="569" 
d="M191 0v1466h194v-1466h-194zM287 1726l-113 -170h-206l216 280h192l225 -280h-204z" />
    <glyph glyph-name="Idieresis" unicode="&#xcf;" horiz-adv-x="569" 
d="M191 0v1466h194v-1466h-194zM4 1556v205h188v-205h-188zM377 1556v205h188v-205h-188z" />
    <glyph glyph-name="Ntilde" unicode="&#xd1;" horiz-adv-x="1479" 
d="M156 0v1466h199l770 -1151v1151h186v-1466h-199l-770 1152v-1152h-186zM430 1556c-0.666992 69.333 18.3369 124.666 57.0039 165.999c38 41.333 86.667 62 146 62c41.333 0 97.666 -18 168.999 -54c39.333 -20 70.666 -30 93.999 -30
c21.333 0 37.666 5.83301 48.999 17.5s19.333 34.834 24 69.501h130c-2 -76 -21.167 -133 -57.5 -171s-82.5 -57 -138.5 -57c-42 0 -97.333 18.667 -166 56c-44.667 24 -77.334 36 -98.001 36c-22.667 0 -41 -8 -55 -24c-14.667 -16 -21.667 -39.667 -21 -71h-133z" />
    <glyph glyph-name="Ograve" unicode="&#xd2;" horiz-adv-x="1593" 
d="M99 714c0 243.333 65.332 433.834 195.999 571.501s299.334 206.5 506.001 206.5c135.333 0 257.333 -32.333 366 -97s191.5 -154.834 248.5 -270.501s85.5 -246.834 85.5 -393.501c0 -148.667 -30 -281.667 -90 -399s-145 -206.166 -255 -266.499
s-228.667 -90.5 -356 -90.5c-138 0 -261.333 33.333 -370 100s-191 157.667 -247 273s-84 237.333 -84 366zM298.999 711.001c0 -176.667 47.501 -315.834 142.501 -417.501s214.167 -152.5 357.5 -152.5c146 0 266.167 51.333 360.5 154s141.5 248.334 141.5 437.001
c0 119.333 -20.167 223.5 -60.5 312.5s-99.333 158 -177 207s-164.834 73.5 -261.501 73.5c-137.333 0 -255.5 -47.167 -354.5 -141.5s-148.5 -251.833 -148.5 -472.5zM916 1556h-145l-231 280h241z" />
    <glyph glyph-name="Oacute" unicode="&#xd3;" horiz-adv-x="1593" 
d="M99 714c0 243.333 65.332 433.834 195.999 571.501s299.334 206.5 506.001 206.5c135.333 0 257.333 -32.333 366 -97s191.5 -154.834 248.5 -270.501s85.5 -246.834 85.5 -393.501c0 -148.667 -30 -281.667 -90 -399s-145 -206.166 -255 -266.499
s-228.667 -90.5 -356 -90.5c-138 0 -261.333 33.333 -370 100s-191 157.667 -247 273s-84 237.333 -84 366zM298.999 711.001c0 -176.667 47.501 -315.834 142.501 -417.501s214.167 -152.5 357.5 -152.5c146 0 266.167 51.333 360.5 154s141.5 248.334 141.5 437.001
c0 119.333 -20.167 223.5 -60.5 312.5s-99.333 158 -177 207s-164.834 73.5 -261.501 73.5c-137.333 0 -255.5 -47.167 -354.5 -141.5s-148.5 -251.833 -148.5 -472.5zM677 1556l133 280h236l-220 -280h-149z" />
    <glyph glyph-name="glyph1913" unicode="&#xd4;" horiz-adv-x="1593" 
d="M99 714c0 243.333 65.332 433.834 195.999 571.501s299.334 206.5 506.001 206.5c135.333 0 257.333 -32.333 366 -97s191.5 -154.834 248.5 -270.501s85.5 -246.834 85.5 -393.501c0 -148.667 -30 -281.667 -90 -399s-145 -206.166 -255 -266.499
s-228.667 -90.5 -356 -90.5c-138 0 -261.333 33.333 -370 100s-191 157.667 -247 273s-84 237.333 -84 366zM298.999 711.001c0 -176.667 47.501 -315.834 142.501 -417.501s214.167 -152.5 357.5 -152.5c146 0 266.167 51.333 360.5 154s141.5 248.334 141.5 437.001
c0 119.333 -20.167 223.5 -60.5 312.5s-99.333 158 -177 207s-164.834 73.5 -261.501 73.5c-137.333 0 -255.5 -47.167 -354.5 -141.5s-148.5 -251.833 -148.5 -472.5zM798 1726l-113 -170h-206l216 280h192l225 -280h-204z" />
    <glyph glyph-name="Otilde" unicode="&#xd5;" horiz-adv-x="1593" 
d="M99 714c0 243.333 65.332 433.834 195.999 571.501s299.334 206.5 506.001 206.5c135.333 0 257.333 -32.333 366 -97s191.5 -154.834 248.5 -270.501s85.5 -246.834 85.5 -393.501c0 -148.667 -30 -281.667 -90 -399s-145 -206.166 -255 -266.499
s-228.667 -90.5 -356 -90.5c-138 0 -261.333 33.333 -370 100s-191 157.667 -247 273s-84 237.333 -84 366zM298.999 711.001c0 -176.667 47.501 -315.834 142.501 -417.501s214.167 -152.5 357.5 -152.5c146 0 266.167 51.333 360.5 154s141.5 248.334 141.5 437.001
c0 119.333 -20.167 223.5 -60.5 312.5s-99.333 158 -177 207s-164.834 73.5 -261.501 73.5c-137.333 0 -255.5 -47.167 -354.5 -141.5s-148.5 -251.833 -148.5 -472.5zM466 1556c-0.666992 69.333 18.3369 124.666 57.0039 165.999c38 41.333 86.667 62 146 62
c41.333 0 97.666 -18 168.999 -54c39.333 -20 70.666 -30 93.999 -30c21.333 0 37.666 5.83301 48.999 17.5s19.333 34.834 24 69.501h130c-2 -76 -21.167 -133 -57.5 -171s-82.5 -57 -138.5 -57c-42 0 -97.333 18.667 -166 56c-44.667 24 -77.334 36 -98.001 36
c-22.667 0 -41 -8 -55 -24c-14.667 -16 -21.667 -39.667 -21 -71h-133z" />
    <glyph glyph-name="glyph1870" unicode="&#xd6;" horiz-adv-x="1593" 
d="M99 714c0 243.333 65.332 433.834 195.999 571.501s299.334 206.5 506.001 206.5c135.333 0 257.333 -32.333 366 -97s191.5 -154.834 248.5 -270.501s85.5 -246.834 85.5 -393.501c0 -148.667 -30 -281.667 -90 -399s-145 -206.166 -255 -266.499
s-228.667 -90.5 -356 -90.5c-138 0 -261.333 33.333 -370 100s-191 157.667 -247 273s-84 237.333 -84 366zM298.999 711.001c0 -176.667 47.501 -315.834 142.501 -417.501s214.167 -152.5 357.5 -152.5c146 0 266.167 51.333 360.5 154s141.5 248.334 141.5 437.001
c0 119.333 -20.167 223.5 -60.5 312.5s-99.333 158 -177 207s-164.834 73.5 -261.501 73.5c-137.333 0 -255.5 -47.167 -354.5 -141.5s-148.5 -251.833 -148.5 -472.5zM516 1556v205h188v-205h-188zM889 1556v205h188v-205h-188z" />
    <glyph glyph-name="Ugrave" unicode="&#xd9;" horiz-adv-x="1479" 
d="M1120 1466l193.996 -0.000976562v-847c0 -147.333 -16.667 -264.333 -50 -351s-93.5 -157.167 -180.5 -211.5s-201.167 -81.5 -342.5 -81.5c-137.333 0 -249.666 23.667 -336.999 71s-149.666 115.833 -186.999 205.5s-56 212.167 -56 367.5v847h194v-846
c0 -127.333 11.833 -221.166 35.5 -281.499s64.334 -106.833 122.001 -139.5s128.167 -49 211.5 -49c142.667 0 244.334 32.333 305.001 97s91 189 91 373v846zM853.996 1556h-145l-231 280h241z" />
    <glyph glyph-name="Uacute" unicode="&#xda;" horiz-adv-x="1479" 
d="M1120 1466l193.996 -0.000976562v-847c0 -147.333 -16.667 -264.333 -50 -351s-93.5 -157.167 -180.5 -211.5s-201.167 -81.5 -342.5 -81.5c-137.333 0 -249.666 23.667 -336.999 71s-149.666 115.833 -186.999 205.5s-56 212.167 -56 367.5v847h194v-846
c0 -127.333 11.833 -221.166 35.5 -281.499s64.334 -106.833 122.001 -139.5s128.167 -49 211.5 -49c142.667 0 244.334 32.333 305.001 97s91 189 91 373v846zM613.996 1556l133 280h236l-220 -280h-149z" />
    <glyph glyph-name="Ucircumflex" unicode="&#xdb;" horiz-adv-x="1479" 
d="M1120 1466l193.996 -0.000976562v-847c0 -147.333 -16.667 -264.333 -50 -351s-93.5 -157.167 -180.5 -211.5s-201.167 -81.5 -342.5 -81.5c-137.333 0 -249.666 23.667 -336.999 71s-149.666 115.833 -186.999 205.5s-56 212.167 -56 367.5v847h194v-846
c0 -127.333 11.833 -221.166 35.5 -281.499s64.334 -106.833 122.001 -139.5s128.167 -49 211.5 -49c142.667 0 244.334 32.333 305.001 97s91 189 91 373v846zM735.996 1726l-113 -170h-206l216 280h192l225 -280h-204z" />
    <glyph glyph-name="Udieresis" unicode="&#xdc;" horiz-adv-x="1479" 
d="M1120 1466l193.996 -0.000976562v-847c0 -147.333 -16.667 -264.333 -50 -351s-93.5 -157.167 -180.5 -211.5s-201.167 -81.5 -342.5 -81.5c-137.333 0 -249.666 23.667 -336.999 71s-149.666 115.833 -186.999 205.5s-56 212.167 -56 367.5v847h194v-846
c0 -127.333 11.833 -221.166 35.5 -281.499s64.334 -106.833 122.001 -139.5s128.167 -49 211.5 -49c142.667 0 244.334 32.333 305.001 97s91 189 91 373v846zM453.996 1556v205h188v-205h-188zM826.996 1556v205h188v-205h-188z" />
    <glyph glyph-name="agrave" unicode="&#xe0;" horiz-adv-x="1139" 
d="M828 131c-66.667 -56.667 -130.834 -96.6699 -192.501 -120.003s-127.834 -35 -198.501 -35c-116.667 0 -206.334 28.5 -269.001 85.5s-94 129.833 -94 218.5c0 52 11.833 99.5 35.5 142.5s54.667 77.5 93 103.5s81.5 45.667 129.5 59
c35.333 9.33301 88.666 18.333 159.999 27c145.333 17.333 252.333 38 321 62c0.666992 24.667 1 40.334 1 47.001c0 73.333 -17 125 -51 155c-46 40.667 -114.333 61 -205 61c-84.667 0 -147.167 -14.833 -187.5 -44.5s-70.166 -82.167 -89.499 -157.5l-176 24
c16 75.333 42.333 136.166 79 182.499s89.667 82 159 107s149.666 37.5 240.999 37.5c90.667 0 164.334 -10.667 221.001 -32s98.334 -48.166 125.001 -80.499s45.334 -73.166 56.001 -122.499c6 -30.667 9 -86 9 -166v-240c0 -167.333 3.83301 -273.166 11.5 -317.499
s22.834 -86.833 45.501 -127.5h-188c-18.667 37.333 -30.667 81 -36 131zM813 532.997c-65.333 -26.667 -163.332 -49.333 -293.999 -68c-74 -10.667 -126.333 -22.667 -157 -36s-54.334 -32.833 -71.001 -58.5s-25 -54.167 -25 -85.5c0 -48 18.167 -88 54.5 -120
s89.5 -48 159.5 -48c69.333 0 131 15.167 185 45.5s93.667 71.833 119 124.5c19.333 40.667 29 100.667 29 180v66zM715.001 1194h-145l-231 280h241z" />
    <glyph glyph-name="aacute" unicode="&#xe1;" horiz-adv-x="1139" 
d="M828 131c-66.667 -56.667 -130.834 -96.6699 -192.501 -120.003s-127.834 -35 -198.501 -35c-116.667 0 -206.334 28.5 -269.001 85.5s-94 129.833 -94 218.5c0 52 11.833 99.5 35.5 142.5s54.667 77.5 93 103.5s81.5 45.667 129.5 59
c35.333 9.33301 88.666 18.333 159.999 27c145.333 17.333 252.333 38 321 62c0.666992 24.667 1 40.334 1 47.001c0 73.333 -17 125 -51 155c-46 40.667 -114.333 61 -205 61c-84.667 0 -147.167 -14.833 -187.5 -44.5s-70.166 -82.167 -89.499 -157.5l-176 24
c16 75.333 42.333 136.166 79 182.499s89.667 82 159 107s149.666 37.5 240.999 37.5c90.667 0 164.334 -10.667 221.001 -32s98.334 -48.166 125.001 -80.499s45.334 -73.166 56.001 -122.499c6 -30.667 9 -86 9 -166v-240c0 -167.333 3.83301 -273.166 11.5 -317.499
s22.834 -86.833 45.501 -127.5h-188c-18.667 37.333 -30.667 81 -36 131zM813 532.997c-65.333 -26.667 -163.332 -49.333 -293.999 -68c-74 -10.667 -126.333 -22.667 -157 -36s-54.334 -32.833 -71.001 -58.5s-25 -54.167 -25 -85.5c0 -48 18.167 -88 54.5 -120
s89.5 -48 159.5 -48c69.333 0 131 15.167 185 45.5s93.667 71.833 119 124.5c19.333 40.667 29 100.667 29 180v66zM463.001 1194l133 280h236l-220 -280h-149z" />
    <glyph glyph-name="acircumflex" unicode="&#xe2;" horiz-adv-x="1139" 
d="M828 131c-66.667 -56.667 -130.834 -96.6699 -192.501 -120.003s-127.834 -35 -198.501 -35c-116.667 0 -206.334 28.5 -269.001 85.5s-94 129.833 -94 218.5c0 52 11.833 99.5 35.5 142.5s54.667 77.5 93 103.5s81.5 45.667 129.5 59
c35.333 9.33301 88.666 18.333 159.999 27c145.333 17.333 252.333 38 321 62c0.666992 24.667 1 40.334 1 47.001c0 73.333 -17 125 -51 155c-46 40.667 -114.333 61 -205 61c-84.667 0 -147.167 -14.833 -187.5 -44.5s-70.166 -82.167 -89.499 -157.5l-176 24
c16 75.333 42.333 136.166 79 182.499s89.667 82 159 107s149.666 37.5 240.999 37.5c90.667 0 164.334 -10.667 221.001 -32s98.334 -48.166 125.001 -80.499s45.334 -73.166 56.001 -122.499c6 -30.667 9 -86 9 -166v-240c0 -167.333 3.83301 -273.166 11.5 -317.499
s22.834 -86.833 45.501 -127.5h-188c-18.667 37.333 -30.667 81 -36 131zM813 532.997c-65.333 -26.667 -163.332 -49.333 -293.999 -68c-74 -10.667 -126.333 -22.667 -157 -36s-54.334 -32.833 -71.001 -58.5s-25 -54.167 -25 -85.5c0 -48 18.167 -88 54.5 -120
s89.5 -48 159.5 -48c69.333 0 131 15.167 185 45.5s93.667 71.833 119 124.5c19.333 40.667 29 100.667 29 180v66zM566.001 1364l-113 -170h-206l216 280h192l225 -280h-204z" />
    <glyph glyph-name="atilde" unicode="&#xe3;" horiz-adv-x="1139" 
d="M828 131c-66.667 -56.667 -130.834 -96.6699 -192.501 -120.003s-127.834 -35 -198.501 -35c-116.667 0 -206.334 28.5 -269.001 85.5s-94 129.833 -94 218.5c0 52 11.833 99.5 35.5 142.5s54.667 77.5 93 103.5s81.5 45.667 129.5 59
c35.333 9.33301 88.666 18.333 159.999 27c145.333 17.333 252.333 38 321 62c0.666992 24.667 1 40.334 1 47.001c0 73.333 -17 125 -51 155c-46 40.667 -114.333 61 -205 61c-84.667 0 -147.167 -14.833 -187.5 -44.5s-70.166 -82.167 -89.499 -157.5l-176 24
c16 75.333 42.333 136.166 79 182.499s89.667 82 159 107s149.666 37.5 240.999 37.5c90.667 0 164.334 -10.667 221.001 -32s98.334 -48.166 125.001 -80.499s45.334 -73.166 56.001 -122.499c6 -30.667 9 -86 9 -166v-240c0 -167.333 3.83301 -273.166 11.5 -317.499
s22.834 -86.833 45.501 -127.5h-188c-18.667 37.333 -30.667 81 -36 131zM813 532.997c-65.333 -26.667 -163.332 -49.333 -293.999 -68c-74 -10.667 -126.333 -22.667 -157 -36s-54.334 -32.833 -71.001 -58.5s-25 -54.167 -25 -85.5c0 -48 18.167 -88 54.5 -120
s89.5 -48 159.5 -48c69.333 0 131 15.167 185 45.5s93.667 71.833 119 124.5c19.333 40.667 29 100.667 29 180v66zM229.001 1219c-0.666992 69.333 18.3369 124.666 57.0039 165.999c38 41.333 86.667 62 146 62c41.333 0 97.666 -18 168.999 -54
c39.333 -20 70.666 -30 93.999 -30c21.333 0 37.666 5.83301 48.999 17.5s19.333 34.834 24 69.501h130c-2 -76 -21.167 -133 -57.5 -171s-82.5 -57 -138.5 -57c-42 0 -97.333 18.667 -166 56c-44.667 24 -77.334 36 -98.001 36c-22.667 0 -41 -8 -55 -24
c-14.667 -16 -21.667 -39.667 -21 -71h-133z" />
    <glyph glyph-name="adieresis" unicode="&#xe4;" horiz-adv-x="1139" 
d="M828 131c-66.667 -56.667 -130.834 -96.6699 -192.501 -120.003s-127.834 -35 -198.501 -35c-116.667 0 -206.334 28.5 -269.001 85.5s-94 129.833 -94 218.5c0 52 11.833 99.5 35.5 142.5s54.667 77.5 93 103.5s81.5 45.667 129.5 59
c35.333 9.33301 88.666 18.333 159.999 27c145.333 17.333 252.333 38 321 62c0.666992 24.667 1 40.334 1 47.001c0 73.333 -17 125 -51 155c-46 40.667 -114.333 61 -205 61c-84.667 0 -147.167 -14.833 -187.5 -44.5s-70.166 -82.167 -89.499 -157.5l-176 24
c16 75.333 42.333 136.166 79 182.499s89.667 82 159 107s149.666 37.5 240.999 37.5c90.667 0 164.334 -10.667 221.001 -32s98.334 -48.166 125.001 -80.499s45.334 -73.166 56.001 -122.499c6 -30.667 9 -86 9 -166v-240c0 -167.333 3.83301 -273.166 11.5 -317.499
s22.834 -86.833 45.501 -127.5h-188c-18.667 37.333 -30.667 81 -36 131zM813 532.997c-65.333 -26.667 -163.332 -49.333 -293.999 -68c-74 -10.667 -126.333 -22.667 -157 -36s-54.334 -32.833 -71.001 -58.5s-25 -54.167 -25 -85.5c0 -48 18.167 -88 54.5 -120
s89.5 -48 159.5 -48c69.333 0 131 15.167 185 45.5s93.667 71.833 119 124.5c19.333 40.667 29 100.667 29 180v66zM283.001 1270v205h188v-205h-188zM656.001 1270v205h188v-205h-188z" />
    <glyph glyph-name="aring" unicode="&#xe5;" horiz-adv-x="1139" 
d="M828 131c-66.667 -56.667 -130.834 -96.6699 -192.501 -120.003s-127.834 -35 -198.501 -35c-116.667 0 -206.334 28.5 -269.001 85.5s-94 129.833 -94 218.5c0 52 11.833 99.5 35.5 142.5s54.667 77.5 93 103.5s81.5 45.667 129.5 59
c35.333 9.33301 88.666 18.333 159.999 27c145.333 17.333 252.333 38 321 62c0.666992 24.667 1 40.334 1 47.001c0 73.333 -17 125 -51 155c-46 40.667 -114.333 61 -205 61c-84.667 0 -147.167 -14.833 -187.5 -44.5s-70.166 -82.167 -89.499 -157.5l-176 24
c16 75.333 42.333 136.166 79 182.499s89.667 82 159 107s149.666 37.5 240.999 37.5c90.667 0 164.334 -10.667 221.001 -32s98.334 -48.166 125.001 -80.499s45.334 -73.166 56.001 -122.499c6 -30.667 9 -86 9 -166v-240c0 -167.333 3.83301 -273.166 11.5 -317.499
s22.834 -86.833 45.501 -127.5h-188c-18.667 37.333 -30.667 81 -36 131zM813 532.997c-65.333 -26.667 -163.332 -49.333 -293.999 -68c-74 -10.667 -126.333 -22.667 -157 -36s-54.334 -32.833 -71.001 -58.5s-25 -54.167 -25 -85.5c0 -48 18.167 -88 54.5 -120
s89.5 -48 159.5 -48c69.333 0 131 15.167 185 45.5s93.667 71.833 119 124.5c19.333 40.667 29 100.667 29 180v66zM383.001 1338c0 48.667 17.833 90.667 53.5 126s77.834 53 126.501 53c49.333 0 91.666 -17.833 126.999 -53.5s53 -78.834 53 -129.501
c0 -51.333 -17.667 -94.666 -53 -129.999s-77.333 -53 -126 -53c-50 0 -92.667 17.833 -128 53.5s-53 80.167 -53 133.5zM459.001 1337c0 -31.333 10.5 -57.667 31.5 -79s45.833 -32 74.5 -32s53.5 10.667 74.5 32s31.5 47 31.5 77s-10.333 55.667 -31 77s-45.667 32 -75 32
c-28.667 0 -53.5 -10.5 -74.5 -31.5s-31.5 -46.167 -31.5 -75.5z" />
    <glyph glyph-name="ccedilla" unicode="&#xe7;" horiz-adv-x="1024" 
d="M828 389l177.001 -23c-19.333 -122 -68.833 -217.5 -148.5 -286.5s-177.5 -103.5 -293.5 -103.5c-145.333 0 -262.166 47.5 -350.499 142.5s-132.5 231.167 -132.5 408.5c0 114.667 19 215 57 301s95.833 150.5 173.5 193.5s162.167 64.5 253.5 64.5
c115.333 0 209.666 -29.167 282.999 -87.5s120.333 -141.166 141 -248.499l-175 -27c-16.667 71.333 -46.167 125 -88.5 161s-93.5 54 -153.5 54c-90.667 0 -164.334 -32.5 -221.001 -97.5s-85 -167.833 -85 -308.5c0 -142.667 27.333 -246.334 82 -311.001s126 -97 214 -97
c70.667 0 129.667 21.667 177 65s77.333 110 90 200zM411.001 -134l52 177h134l-33 -107c56.667 -6.66699 99.334 -24.167 128.001 -52.5s43 -59.833 43 -94.5c0 -50 -24 -94.167 -72 -132.5s-120.333 -57.5 -217 -57.5c-54.667 0 -102.667 4 -144 12l11 117
c42.667 -2.66699 74 -4 94 -4c62.667 0 106.667 8.66699 132 26c19.333 13.333 29 29.666 29 48.999c0 12 -3.83301 22.667 -11.5 32s-21.834 17.333 -42.501 24s-55 10.334 -103 11.001z" />
    <glyph glyph-name="egrave" unicode="&#xe8;" horiz-adv-x="1139" 
d="M862 342l185.998 -23.002c-29.333 -108.667 -83.666 -193 -162.999 -253s-180.666 -90 -303.999 -90c-155.333 0 -278.5 47.833 -369.5 143.5s-136.5 229.834 -136.5 402.501c0 178.667 46 317.334 138 416.001s211.333 148 358 148c142 0 258 -48.333 348 -145
s135 -232.667 135 -408c0 -10.667 -0.333008 -26.667 -1 -48h-792c6.66699 -116.667 39.667 -206 99 -268s133.333 -93 222 -93c66 0 122.333 17.333 169 52s83.667 90 111 166zM270.998 632.998h592.999c-8 89.333 -30.667 156.333 -68 201
c-57.333 69.333 -131.666 104 -222.999 104c-82.667 0 -152.167 -27.667 -208.5 -83s-87.5 -129.333 -93.5 -222zM685.997 1194h-145l-231 280h241z" />
    <glyph glyph-name="eacute" unicode="&#xe9;" horiz-adv-x="1139" 
d="M862 342l185.998 -23.002c-29.333 -108.667 -83.666 -193 -162.999 -253s-180.666 -90 -303.999 -90c-155.333 0 -278.5 47.833 -369.5 143.5s-136.5 229.834 -136.5 402.501c0 178.667 46 317.334 138 416.001s211.333 148 358 148c142 0 258 -48.333 348 -145
s135 -232.667 135 -408c0 -10.667 -0.333008 -26.667 -1 -48h-792c6.66699 -116.667 39.667 -206 99 -268s133.333 -93 222 -93c66 0 122.333 17.333 169 52s83.667 90 111 166zM270.998 632.998h592.999c-8 89.333 -30.667 156.333 -68 201
c-57.333 69.333 -131.666 104 -222.999 104c-82.667 0 -152.167 -27.667 -208.5 -83s-87.5 -129.333 -93.5 -222zM464.997 1194l133 280h236l-220 -280h-149z" />
    <glyph glyph-name="ecircumflex" unicode="&#xea;" horiz-adv-x="1139" 
d="M862 342l185.998 -23.002c-29.333 -108.667 -83.666 -193 -162.999 -253s-180.666 -90 -303.999 -90c-155.333 0 -278.5 47.833 -369.5 143.5s-136.5 229.834 -136.5 402.501c0 178.667 46 317.334 138 416.001s211.333 148 358 148c142 0 258 -48.333 348 -145
s135 -232.667 135 -408c0 -10.667 -0.333008 -26.667 -1 -48h-792c6.66699 -116.667 39.667 -206 99 -268s133.333 -93 222 -93c66 0 122.333 17.333 169 52s83.667 90 111 166zM270.998 632.998h592.999c-8 89.333 -30.667 156.333 -68 201
c-57.333 69.333 -131.666 104 -222.999 104c-82.667 0 -152.167 -27.667 -208.5 -83s-87.5 -129.333 -93.5 -222zM566.997 1364l-113 -170h-206l216 280h192l225 -280h-204z" />
    <glyph glyph-name="edieresis" unicode="&#xeb;" horiz-adv-x="1139" 
d="M862 342l185.998 -23.002c-29.333 -108.667 -83.666 -193 -162.999 -253s-180.666 -90 -303.999 -90c-155.333 0 -278.5 47.833 -369.5 143.5s-136.5 229.834 -136.5 402.501c0 178.667 46 317.334 138 416.001s211.333 148 358 148c142 0 258 -48.333 348 -145
s135 -232.667 135 -408c0 -10.667 -0.333008 -26.667 -1 -48h-792c6.66699 -116.667 39.667 -206 99 -268s133.333 -93 222 -93c66 0 122.333 17.333 169 52s83.667 90 111 166zM270.998 632.998h592.999c-8 89.333 -30.667 156.333 -68 201
c-57.333 69.333 -131.666 104 -222.999 104c-82.667 0 -152.167 -27.667 -208.5 -83s-87.5 -129.333 -93.5 -222zM283.997 1270v205h188v-205h-188zM656.997 1270v205h188v-205h-188z" />
    <glyph glyph-name="ntilde" unicode="&#xf1;" horiz-adv-x="1139" 
d="M135 0l-0.000976562 1062h162v-151c78 116.667 190.667 175 338 175c64 0 122.833 -11.5 176.5 -34.5s93.834 -53.167 120.501 -90.5s45.334 -81.666 56.001 -132.999c6.66699 -33.333 10 -91.666 10 -174.999v-653h-180v646c0 73.333 -7 128.166 -21 164.499
s-38.833 65.333 -74.5 87s-77.5 32.5 -125.5 32.5c-76.667 0 -142.834 -24.333 -198.501 -73s-83.5 -141 -83.5 -277v-580h-180zM261.999 1219c-0.666992 69.333 18.3369 124.666 57.0039 165.999c38 41.333 86.667 62 146 62c41.333 0 97.666 -18 168.999 -54
c39.333 -20 70.666 -30 93.999 -30c21.333 0 37.666 5.83301 48.999 17.5s19.333 34.834 24 69.501h130c-2 -76 -21.167 -133 -57.5 -171s-82.5 -57 -138.5 -57c-42 0 -97.333 18.667 -166 56c-44.667 24 -77.334 36 -98.001 36c-22.667 0 -41 -8 -55 -24
c-14.667 -16 -21.667 -39.667 -21 -71h-133z" />
    <glyph glyph-name="ograve" unicode="&#xf2;" horiz-adv-x="1139" 
d="M68 531c0 196.667 54.6689 342.334 164.002 437.001c91.333 78.667 202.666 118 333.999 118c146 0 265.333 -47.833 358 -143.5s139 -227.834 139 -396.501c0 -136.667 -20.5 -244.167 -61.5 -322.5s-100.667 -139.166 -179 -182.499s-163.833 -65 -256.5 -65
c-148.667 0 -268.834 47.667 -360.501 143s-137.5 232.666 -137.5 411.999zM253.002 531c0 -136 29.6689 -237.833 89.002 -305.5s134 -101.5 224 -101.5c89.333 0 163.666 34 222.999 102s89 171.667 89 311c0 131.333 -29.833 230.833 -89.5 298.5
s-133.834 101.5 -222.501 101.5c-90 0 -164.667 -33.667 -224 -101s-89 -169 -89 -305zM687.004 1194h-145l-231 280h241z" />
    <glyph glyph-name="oacute" unicode="&#xf3;" horiz-adv-x="1139" 
d="M68 531c0 196.667 54.6689 342.334 164.002 437.001c91.333 78.667 202.666 118 333.999 118c146 0 265.333 -47.833 358 -143.5s139 -227.834 139 -396.501c0 -136.667 -20.5 -244.167 -61.5 -322.5s-100.667 -139.166 -179 -182.499s-163.833 -65 -256.5 -65
c-148.667 0 -268.834 47.667 -360.501 143s-137.5 232.666 -137.5 411.999zM253.002 531c0 -136 29.6689 -237.833 89.002 -305.5s134 -101.5 224 -101.5c89.333 0 163.666 34 222.999 102s89 171.667 89 311c0 131.333 -29.833 230.833 -89.5 298.5
s-133.834 101.5 -222.501 101.5c-90 0 -164.667 -33.667 -224 -101s-89 -169 -89 -305zM466.004 1194l133 280h236l-220 -280h-149z" />
    <glyph glyph-name="ocircumflex" unicode="&#xf4;" horiz-adv-x="1139" 
d="M68 531c0 196.667 54.6689 342.334 164.002 437.001c91.333 78.667 202.666 118 333.999 118c146 0 265.333 -47.833 358 -143.5s139 -227.834 139 -396.501c0 -136.667 -20.5 -244.167 -61.5 -322.5s-100.667 -139.166 -179 -182.499s-163.833 -65 -256.5 -65
c-148.667 0 -268.834 47.667 -360.501 143s-137.5 232.666 -137.5 411.999zM253.002 531c0 -136 29.6689 -237.833 89.002 -305.5s134 -101.5 224 -101.5c89.333 0 163.666 34 222.999 102s89 171.667 89 311c0 131.333 -29.833 230.833 -89.5 298.5
s-133.834 101.5 -222.501 101.5c-90 0 -164.667 -33.667 -224 -101s-89 -169 -89 -305zM568.004 1364l-113 -170h-206l216 280h192l225 -280h-204z" />
    <glyph glyph-name="otilde" unicode="&#xf5;" horiz-adv-x="1139" 
d="M68 531c0 196.667 54.6689 342.334 164.002 437.001c91.333 78.667 202.666 118 333.999 118c146 0 265.333 -47.833 358 -143.5s139 -227.834 139 -396.501c0 -136.667 -20.5 -244.167 -61.5 -322.5s-100.667 -139.166 -179 -182.499s-163.833 -65 -256.5 -65
c-148.667 0 -268.834 47.667 -360.501 143s-137.5 232.666 -137.5 411.999zM253.002 531c0 -136 29.6689 -237.833 89.002 -305.5s134 -101.5 224 -101.5c89.333 0 163.666 34 222.999 102s89 171.667 89 311c0 131.333 -29.833 230.833 -89.5 298.5
s-133.834 101.5 -222.501 101.5c-90 0 -164.667 -33.667 -224 -101s-89 -169 -89 -305zM231.004 1219c-0.666992 69.333 18.3369 124.666 57.0039 165.999c38 41.333 86.667 62 146 62c41.333 0 97.666 -18 168.999 -54c39.333 -20 70.666 -30 93.999 -30
c21.333 0 37.666 5.83301 48.999 17.5s19.333 34.834 24 69.501h130c-2 -76 -21.167 -133 -57.5 -171s-82.5 -57 -138.5 -57c-42 0 -97.333 18.667 -166 56c-44.667 24 -77.334 36 -98.001 36c-22.667 0 -41 -8 -55 -24c-14.667 -16 -21.667 -39.667 -21 -71h-133z" />
    <glyph glyph-name="odieresis" unicode="&#xf6;" horiz-adv-x="1139" 
d="M68 531c0 196.667 54.6689 342.334 164.002 437.001c91.333 78.667 202.666 118 333.999 118c146 0 265.333 -47.833 358 -143.5s139 -227.834 139 -396.501c0 -136.667 -20.5 -244.167 -61.5 -322.5s-100.667 -139.166 -179 -182.499s-163.833 -65 -256.5 -65
c-148.667 0 -268.834 47.667 -360.501 143s-137.5 232.666 -137.5 411.999zM253.002 531c0 -136 29.6689 -237.833 89.002 -305.5s134 -101.5 224 -101.5c89.333 0 163.666 34 222.999 102s89 171.667 89 311c0 131.333 -29.833 230.833 -89.5 298.5
s-133.834 101.5 -222.501 101.5c-90 0 -164.667 -33.667 -224 -101s-89 -169 -89 -305zM285.004 1270v205h188v-205h-188zM658.004 1270v205h188v-205h-188z" />
    <glyph glyph-name="ugrave" unicode="&#xf9;" horiz-adv-x="1139" 
d="M831 0l-0.000976562 155.998c-82.667 -120 -195 -180 -337 -180c-62.667 0 -121.167 12 -175.5 36s-94.666 54.167 -120.999 90.5s-44.833 80.833 -55.5 133.5c-7.33301 35.333 -11 91.333 -11 168v658h180v-589c0 -94 3.66699 -157.333 11 -190
c11.333 -47.333 35.333 -84.5 72 -111.5s82 -40.5 136 -40.5s104.667 13.833 152 41.5s80.833 65.334 100.5 113.001s29.5 116.834 29.5 207.501v569h180v-1062h-161zM727.999 1194h-145l-231 280h241z" />
    <glyph glyph-name="uacute" unicode="&#xfa;" horiz-adv-x="1139" 
d="M831 0l-0.000976562 155.998c-82.667 -120 -195 -180 -337 -180c-62.667 0 -121.167 12 -175.5 36s-94.666 54.167 -120.999 90.5s-44.833 80.833 -55.5 133.5c-7.33301 35.333 -11 91.333 -11 168v658h180v-589c0 -94 3.66699 -157.333 11 -190
c11.333 -47.333 35.333 -84.5 72 -111.5s82 -40.5 136 -40.5s104.667 13.833 152 41.5s80.833 65.334 100.5 113.001s29.5 116.834 29.5 207.501v569h180v-1062h-161zM452.999 1194l133 280h236l-220 -280h-149z" />
    <glyph glyph-name="ucircumflex" unicode="&#xfb;" horiz-adv-x="1139" 
d="M831 0l-0.000976562 155.998c-82.667 -120 -195 -180 -337 -180c-62.667 0 -121.167 12 -175.5 36s-94.666 54.167 -120.999 90.5s-44.833 80.833 -55.5 133.5c-7.33301 35.333 -11 91.333 -11 168v658h180v-589c0 -94 3.66699 -157.333 11 -190
c11.333 -47.333 35.333 -84.5 72 -111.5s82 -40.5 136 -40.5s104.667 13.833 152 41.5s80.833 65.334 100.5 113.001s29.5 116.834 29.5 207.501v569h180v-1062h-161zM563.999 1364l-113 -170h-206l216 280h192l225 -280h-204z" />
    <glyph glyph-name="udieresis" unicode="&#xfc;" horiz-adv-x="1139" 
d="M831 0l-0.000976562 155.998c-82.667 -120 -195 -180 -337 -180c-62.667 0 -121.167 12 -175.5 36s-94.666 54.167 -120.999 90.5s-44.833 80.833 -55.5 133.5c-7.33301 35.333 -11 91.333 -11 168v658h180v-589c0 -94 3.66699 -157.333 11 -190
c11.333 -47.333 35.333 -84.5 72 -111.5s82 -40.5 136 -40.5s104.667 13.833 152 41.5s80.833 65.334 100.5 113.001s29.5 116.834 29.5 207.501v569h180v-1062h-161zM280.999 1270v205h188v-205h-188zM653.999 1270v205h188v-205h-188z" />
    <glyph glyph-name="ydieresis" unicode="&#xff;" horiz-adv-x="1024" 
d="M127 -409l-19.999 168.999c39.333 -10.667 73.666 -16 102.999 -16c40 0 72 6.66699 96 20s43.667 32 59 56c11.333 18 29.666 62.667 54.999 134c3.33301 10 8.66602 24.667 15.999 44l-403 1064h194l221 -615c28.667 -78 54.334 -160 77.001 -246
c20.667 82.667 45.334 163.334 74.001 242.001l227 619h180l-404 -1080c-43.333 -116.667 -77 -197 -101 -241c-32 -59.333 -68.667 -102.833 -110 -130.5s-90.666 -41.5 -147.999 -41.5c-34.667 0 -73.334 7.33301 -116.001 22zM243.001 1270v205h188v-205h-188z
M616.001 1270v205h188v-205h-188z" />
    <glyph glyph-name="lacute" unicode="&#x13a;" horiz-adv-x="569" 
d="M191 0v1466h194v-1466h-194zM141 1556l133 280h236l-220 -280h-149z" />
    <glyph glyph-name="Ydieresis" unicode="&#x178;" horiz-adv-x="1366" 
d="M571 0v621.001l-565 845h236l289 -442c53.333 -82.667 103 -165.334 149 -248.001c44 76.667 97.333 163 160 259l284 431h226l-585 -845v-621h-194zM397 1556v205h188v-205h-188zM770 1556v205h188v-205h-188z" />
    <glyph glyph-name="gravecomb" unicode="&#x300;" 
d="M-601 1778c-40.667 32 -60.999 60.667 -60.999 86c3.33301 16 8 29.333 14 40c10 16.667 28 25 54 25c14 0 27.167 -2.5 39.5 -7.5s29.166 -18.167 50.499 -39.5l301 -303h-82z" />
    <glyph glyph-name="acutecomb" unicode="&#x301;" 
d="M-450 1552h-81.999l301 303c21.333 21.333 38.166 34.5 50.499 39.5s25.5 7.5 39.5 7.5c26 0 44 -8.33301 54 -25c6 -10.667 10.667 -24 14 -40c0 -25.333 -20.333 -54 -61 -86z" />
    <glyph glyph-name="uni0302" unicode="&#x302;" 
d="M-90 1500h-70l-250 210l-247 -210h-70l254 342h127z" />
    <glyph glyph-name="tildecomb" unicode="&#x303;" 
d="M-776 1617l-31.999 -0.00195312c2.66699 91.333 21.667 157.333 57 198s79 61 131 61c27.333 0 52.333 -4.33301 75 -13c30 -11.333 72.5 -35.166 127.5 -71.499s95.833 -54.5 122.5 -54.5c21.333 0 40.166 9 56.499 27s29.166 55.333 38.499 112h31
c0.666992 -62 -7.5 -111.167 -24.5 -147.5s-41 -64.666 -72 -84.999s-62.167 -30.5 -93.5 -30.5c-52.667 0 -118 26.667 -196 80c-42 28.667 -70.333 46 -85 52s-29 9 -43 9c-27.333 0 -49 -12 -65 -36c-7.33301 -11.333 -16.666 -45 -27.999 -101z" />
    <glyph glyph-name="uni0304" unicode="&#x304;" 
d="M-747 1764h555v-110h-555v110z" />
    <glyph glyph-name="uni0305" unicode="&#x305;" 
d="M-770 1740h637v-110h-637v110z" />
    <glyph glyph-name="uni0306" unicode="&#x306;" 
d="M-738 1900l31 0.000976562c22 -40.667 47.333 -69.334 76 -86.001c48 -28.667 108.333 -43 181 -43s132.667 14 180 42c34 19.333 57.667 48.333 71 87h33c-6 -82.667 -36.5 -150 -91.5 -202s-119.833 -78 -194.5 -78c-74 0 -138.333 25.833 -193 77.5
s-85.667 119.167 -93 202.5z" />
    <glyph glyph-name="uni0307" unicode="&#x307;" 
d="M-567 1620c-26 0 -51.668 9.66699 -77.001 29c-24 20 -36 47 -36 81c0 25.333 11 53 33 83c22.667 22.667 49.334 34 80.001 34c32.667 0 59.667 -11.667 81 -35c22.667 -22.667 34 -50 34 -82c0 -34 -12.833 -60.833 -38.5 -80.5s-51.167 -29.5 -76.5 -29.5z" />
    <glyph glyph-name="uni0308" unicode="&#x308;" 
d="M-717 1753c0 23.333 8.66699 46.166 26 68.499s41.333 33.5 72 33.5c26 0 49.667 -10.167 71 -30.5s32 -44.166 32 -71.499c0 -28 -10.333 -52.667 -31 -74c-20.667 -19.333 -44.667 -29 -72 -29c-30 0 -53.833 11.167 -71.5 33.5s-26.5 45.5 -26.5 69.5zM-310 1753
c0 23.333 8.66895 46.167 26.002 68.5s41.666 33.5 72.999 33.5l19 -1c4 0 10.333 -2.33301 19 -7c7.33301 -2 18 -9 32 -21c10.667 -9.33301 18.667 -21 24 -35l6 -18l2 -20c0 -26.667 -10.333 -50.5 -31 -71.5s-44.334 -31.5 -71.001 -31.5c-24.667 0 -49 11 -73 33
c-17.333 22.667 -26 46 -26 70z" />
    <glyph glyph-name="hookabovecomb" unicode="&#x309;" 
d="M-518 1928c46.667 18.667 90.499 26.665 131.499 23.998s77.5 -14.667 109.5 -36c42.667 -28 62.334 -64.5 59.001 -109.5s-33.333 -85.833 -90 -122.5c-21.333 -14.667 -51 -31.667 -89 -51l-38 25c18.667 9.33301 34 18 46 26c30 20 45.5 43.333 46.5 70
s-11.5 48.334 -37.5 65.001c-17.333 12 -39.333 17.833 -66 17.5s-50 -7.16602 -70 -20.499l-16 108l14 5v-1z" />
    <glyph glyph-name="uni030A" unicode="&#x30a;" 
d="M-359 2003c53.333 0 98.666 -18.667 135.999 -56s56 -82.333 56 -135c0 -53.333 -18.667 -98.666 -56 -135.999s-82.666 -56 -135.999 -56c-52.667 0 -97.667 18.667 -135 56s-56 82.666 -56 135.999c0 52.667 18.5 97.667 55.5 135s82.167 56 135.5 56zM-359 1934
c-34 0 -62.833 -11.833 -86.5 -35.5s-35.5 -52.5 -35.5 -86.5c0 -33.333 11.833 -62 35.5 -86s52.5 -36 86.5 -36s62.833 12 86.5 36s35.5 52.667 35.5 86c0 34 -11.833 62.833 -35.5 86.5s-52.5 35.5 -86.5 35.5z" />
    <glyph glyph-name="uni030B" unicode="&#x30b;" 
d="M-690 1645h-69l255 261c18.667 18.667 32.5 30.167 41.5 34.5s20.5 6.5 34.5 6.5c24 0 39.667 -6.66699 47 -20l7 -15l4 -22c0 -29.333 -17.667 -54 -53 -74zM-379 1631l-63.999 0.000976562l233 268c17.333 19.333 30.166 31.166 38.499 35.499s18.833 6.5 31.5 6.5
c22 0 36.333 -6.66699 43 -20l6 -16l4 -22c0 -30 -16 -55.333 -48 -76z" />
    <glyph glyph-name="uni030C" unicode="&#x30c;" 
d="M-65 1978l-256 -342h-127l-254 342h69l248 -211l250 211h70z" />
    <glyph glyph-name="uni030D" unicode="&#x30d;" 
d="M-174 1547v386h88v-386h-88z" />
    <glyph glyph-name="uni030E" unicode="&#x30e;" horiz-adv-x="6" 
d="M-335 1544v386h88v-386h-88zM-145 1544v386h88v-386h-88z" />
    <glyph glyph-name="uni030F" unicode="&#x30f;" horiz-adv-x="7" 
d="M-399 1721c-35.333 20 -53 44.667 -53 74l4 22l7 15c7.33301 13.333 23 20 47 20c14 0 25.5 -2.16699 34.5 -6.5s22.833 -15.833 41.5 -34.5l255 -261h-69zM-687 1712c-32 20.667 -47.999 45.999 -47.999 75.999l4 22l6 16c6.66699 13.333 21 20 43 20
c12.667 0 23.167 -2.16699 31.5 -6.5s21.166 -16.166 38.499 -35.499l233 -268h-64z" />
    <glyph glyph-name="uni0310" unicode="&#x310;" 
d="M-61 1818c14 -38 21 -69.334 21 -94.001c0 -43.333 -15.667 -75.333 -47 -96l-46 -27l-57 -26c-38.667 -15.333 -74 -23 -106 -23l-29 1l-34 3c-12 2 -29.667 8.33301 -53 19c-38 16 -74.333 36.333 -109 61c-26 18 -39 48 -39 90c0 18.667 1.33301 34.334 4 47.001
c2 14.667 7.33301 31 16 49c12 -58 38.833 -104.167 80.5 -138.5s96.167 -51.5 163.5 -51.5c62 0 114.667 17.667 158 53c51.333 40 77 84.333 77 133zM-218 1837c0 -24 -8.33203 -43.333 -24.999 -58s-35.667 -22 -57 -22c-22 0 -41.333 7.33301 -58 22
c-16 16 -24 35.333 -24 58c0 24 8 43 24 57c15.333 16.667 34.666 25 57.999 25c21.333 0 40.333 -8.33301 57 -25c16.667 -14.667 25 -33.667 25 -57z" />
    <glyph glyph-name="uni0311" unicode="&#x311;" horiz-adv-x="6" 
d="M-565 1742.5c54.667 51.667 119 77.501 193 77.501c74.667 0 139.5 -26 194.5 -78s85.5 -119.333 91.5 -202h-33c-13.333 38.667 -37 67.667 -71 87c-47.333 28 -107.333 42 -180 42s-133 -14.333 -181 -43c-28.667 -16.667 -54 -45.334 -76 -86.001h-31
c7.33301 83.333 38.333 150.833 93 202.5z" />
    <glyph glyph-name="uni0312" unicode="&#x312;" 
d="M-92 1911l-0.000976562 -36.001c-31.333 0 -60.666 -7 -87.999 -21s-48.333 -32.667 -63 -56s-22 -45.333 -22 -66c0 -12 2 -20.667 6 -26c4.66699 -5.33301 9.66699 -8 15 -8c4.66699 0 13 3 25 9c16.667 9.33301 31 14 43 14c25.333 0 45.666 -7.66699 60.999 -23
s23 -36.666 23 -63.999c0 -28 -9.66699 -51 -29 -69s-44.666 -27 -75.999 -27c-36.667 0 -68 14.333 -94 43s-39 68 -39 118c0 74 28 132 84 174c30 23.333 81.333 36 154 38z" />
    <glyph glyph-name="uni0313" unicode="&#x313;" horiz-adv-x="247" 
d="M-80 1500l0.000976562 36.001c31.333 0 60.666 7 87.999 21s48.333 32.667 63 56s22 45.333 22 66c0 12 -2 20.667 -6 26c-4.66699 5.33301 -9.66699 8 -15 8c-4.66699 0 -13 -3 -25 -9c-16.667 -9.33301 -31 -14 -43 -14c-25.333 0 -45.666 7.66699 -60.999 23
s-23 36.666 -23 63.999c0 28 9.66699 51 29 69s44.666 27 75.999 27c36.667 0 68 -14.333 94 -43s39 -68 39 -118c0 -74 -28 -132 -84 -174c-30 -23.333 -81.333 -36 -154 -38z" />
    <glyph glyph-name="uni0314" unicode="&#x314;" 
d="M-239 1558c-56 42 -83.999 99.999 -83.999 173.999c0 50 13 89.333 39 118s57.333 43 94 43c31.333 0 56.666 -9 75.999 -27s29 -41 29 -69c0 -27.333 -7.66699 -48.666 -23 -63.999s-35.666 -23 -60.999 -23c-12 0 -26.333 4.66699 -43 14c-12 6 -20.333 9 -25 9
c-5.33301 0 -10.333 -2.66699 -15 -8c-4 -5.33301 -6 -14 -6 -26c0 -20.667 7.33301 -42.667 22 -66s35.667 -42 63 -56s56.666 -21 87.999 -21v-36c-72.667 2 -124 14.667 -154 38z" />
    <glyph glyph-name="uni0315" unicode="&#x315;" horiz-adv-x="360" 
d="M-3 1212l0.000976562 36.001c31.333 0 60.666 7 87.999 21s48.333 32.667 63 56s22 45.333 22 66c0 12 -2 20.667 -6 26c-4.66699 5.33301 -9.66699 8 -15 8c-4.66699 0 -13 -3 -25 -9c-16.667 -9.33301 -31 -14 -43 -14c-25.333 0 -45.666 7.66699 -60.999 23
s-23 36.666 -23 63.999c0 28 9.66699 51 29 69s44.666 27 75.999 27c36.667 0 68 -14.333 94 -43s39 -68 39 -118c0 -74 -28 -132 -84 -174c-30 -23.333 -81.333 -36 -154 -38z" />
    <glyph glyph-name="uni0316" unicode="&#x316;" 
d="M-413 -221c-28.667 20 -43 44.667 -43 74l4 21l5 16c6 12.667 19 19 39 19c11.333 0 20.833 -2 28.5 -6s19.167 -15.667 34.5 -35l211 -261h-58z" />
    <glyph glyph-name="uni0317" unicode="&#x317;" 
d="M-291 -440h-58l211 261c15.333 19.333 26.833 31 34.5 35s17.167 6 28.5 6c20 0 33 -6.33301 39 -19l5 -16l4 -21c0 -29.333 -14.333 -54 -43 -74z" />
    <glyph glyph-name="uni0318" unicode="&#x318;" horiz-adv-x="7" 
d="M-532 -219v-88h344v-133h96v314h-96v-93h-344z" />
    <glyph glyph-name="uni0319" unicode="&#x319;" 
d="M-436 -219v93h-96v-314h96v133h344v88h-344z" />
    <glyph glyph-name="uni031A" unicode="&#x31a;" 
d="M-237 1831h-463v110h543v-308h-80v198z" />
    <glyph glyph-name="uni031B" unicode="&#x31b;" horiz-adv-x="7" 
d="M-313 1154l11.001 37c28 -14.667 56.5 -21 85.5 -19s53.833 11.667 74.5 29s34.334 36.333 41.001 57c4 12.667 5 22.667 3 30c-2.66699 7.33301 -6.33398 12.333 -11.001 15c-4 2 -12.333 2.66699 -25 2c-18 -2 -32.333 -0.333008 -43 5
c-22.667 12 -38.334 29.333 -47.001 52s-8.66699 47.667 0 75c8.66699 28.667 24.667 47.834 48 57.501s49 7.5 77 -6.5c32.667 -16.667 56 -45.667 70 -87s13 -87.333 -3 -138c-24 -76 -67.667 -122.667 -131 -140c-34.667 -10.667 -84.667 -0.333984 -150 30.999z" />
    <glyph glyph-name="uni031C" unicode="&#x31c;" 
d="M-261.5 -373c-40.333 39.333 -60.502 85.334 -60.502 138.001c0 54 20.333 100.667 61 140s93.334 61 158.001 65v-23c-30 -9.33301 -52.667 -26.333 -68 -51c-22 -34 -33 -77 -33 -129s11.333 -95.333 34 -130c12.667 -20.667 35 -38.667 67 -54v-23
c-65.333 5.33301 -118.166 27.666 -158.499 66.999z" />
    <glyph glyph-name="uni031D" unicode="&#x31d;" 
d="M-165 -97h-88v-344h-133v-96h314v96h-93v344z" />
    <glyph glyph-name="uni031E" unicode="&#x31e;" 
d="M-168 -227h93v96h-314v-96h133v-344h88v344z" />
    <glyph glyph-name="uni031F" unicode="&#x31f;" 
d="M-260 -440v93h-96v95h96v107h123v-107h97v-95h-97v-93h-123z" />
    <glyph glyph-name="uni0320" unicode="&#x320;" 
d="M-590 -99h497v-110h-497v110z" />
    <glyph glyph-name="uni0321" unicode="&#x321;" 
d="M-81 22c0 -149.333 -31.6689 -263.667 -95.002 -343s-151.666 -119 -264.999 -119c-57.333 0 -101.666 10.333 -132.999 31c-13.333 9.33301 -24.333 20 -33 32s-13 24.667 -13 38c0 21.333 7.83301 40.833 23.5 58.5s35.167 26.5 58.5 26.5
c30.667 0 68.667 -19.667 114 -59c36 -32 64.667 -48 86 -48c32 0 55.333 17 70 51s28.667 106.667 42 218v114h145z" />
    <glyph glyph-name="uni0322" unicode="&#x322;" horiz-adv-x="400" 
d="M-75 22l-0.00195312 -113.999c13.333 -111.333 27.333 -184 42 -218s38 -51 70 -51c21.333 0 50 16 86 48c45.333 39.333 83.333 59 114 59c23.333 0 42.833 -8.83301 58.5 -26.5s23.5 -37.167 23.5 -58.5c0 -13.333 -4.33301 -26 -13 -38s-19.667 -22.667 -33 -32
c-31.333 -20.667 -75.666 -31 -132.999 -31c-113.333 0 -201.666 39.667 -264.999 119s-95 193.666 -95 342.999h145z" />
    <glyph glyph-name="dotbelowcomb" unicode="&#x323;" 
d="M-451 -460c-26 0 -51.668 9.66699 -77.001 29c-24 20 -36 47 -36 81c0 25.333 11 53 33 83c22.667 22.667 49.334 34 80.001 34c32.667 0 59.667 -11.667 81 -35c22.667 -22.667 34 -50 34 -82c0 -34 -12.833 -60.833 -38.5 -80.5s-51.167 -29.5 -76.5 -29.5z" />
    <glyph glyph-name="uni0324" unicode="&#x324;" horiz-adv-x="300" 
d="M-669 -636c0 23.333 8.66699 46.166 26 68.499s41.333 33.5 72 33.5c26 0 49.667 -10.167 71 -30.5s32 -44.166 32 -71.499c0 -28 -10.333 -52.667 -31 -74c-20.667 -19.333 -44.667 -29 -72 -29c-30 0 -53.833 11.167 -71.5 33.5s-26.5 45.5 -26.5 69.5zM-262 -636
c0 23.333 8.66895 46.167 26.002 68.5s41.666 33.5 72.999 33.5l19 -1c4 0 10.333 -2.33301 19 -7c7.33301 -2 18 -9 32 -21c10.667 -9.33301 18.667 -21 24 -35l6 -18l2 -20c0 -26.667 -10.333 -50.5 -31 -71.5s-44.334 -31.5 -71.001 -31.5c-24.667 0 -49 11 -73 33
c-17.333 22.667 -26 46 -26 70z" />
    <glyph glyph-name="uni0325" unicode="&#x325;" 
d="M-295 -57c53.333 0 98.666 -18.667 135.999 -56s56 -82.333 56 -135c0 -53.333 -18.667 -98.666 -56 -135.999s-82.666 -56 -135.999 -56c-52.667 0 -97.667 18.667 -135 56s-56 82.666 -56 135.999c0 52.667 18.5 97.667 55.5 135s82.167 56 135.5 56zM-295 -126
c-34 0 -62.833 -11.833 -86.5 -35.5s-35.5 -52.5 -35.5 -86.5c0 -33.333 11.833 -62 35.5 -86s52.5 -36 86.5 -36s62.833 12 86.5 36s35.5 52.667 35.5 86c0 34 -11.833 62.833 -35.5 86.5s-52.5 35.5 -86.5 35.5z" />
    <glyph glyph-name="uni0326" unicode="&#x326;" 
d="M-343 -440l0.000976562 36.001c31.333 0 60.666 7 87.999 21s48.333 32.667 63 56s22 45.333 22 66c0 12 -2 20.667 -6 26c-4.66699 5.33301 -9.66699 8 -15 8c-4.66699 0 -13 -3 -25 -9c-16.667 -9.33301 -31 -14 -43 -14c-25.333 0 -45.666 7.66699 -60.999 23
s-23 36.666 -23 63.999c0 28 9.66699 51 29 69s44.666 27 75.999 27c36.667 0 68 -14.333 94 -43s39 -68 39 -118c0 -74 -28 -132 -84 -174c-30 -23.333 -81.333 -36 -154 -38z" />
    <glyph glyph-name="uni0327" unicode="&#x327;" 
d="M-255 95h60.001l-50 -79c42 -10.667 73.333 -28.667 94 -54s31 -56 31 -92c0 -48 -20 -90.167 -60 -126.5s-91.667 -54.5 -155 -54.5c-24.667 0 -56 2.33301 -94 7v43c18.667 -2.66699 34.667 -4 48 -4c34 0 62.667 11.167 86 33.5s35 47.833 35 76.5
c0 20 -7.66699 37.333 -23 52s-34.333 22 -57 22c-6.66699 0 -15.334 -0.666992 -26.001 -2z" />
    <glyph glyph-name="uni0328" unicode="&#x328;" horiz-adv-x="260" 
d="M-235 16h52c-17.333 -34.667 -26 -67.667 -26 -99c0 -56 17.333 -100 52 -132c46 -42 100 -63 162 -63c38 0 77.667 7.66699 119 23l21 -32c-58.667 -32.667 -102.667 -53.5 -132 -62.5s-62.333 -13.5 -99 -13.5c-72.667 0 -129 18 -169 54s-60 79.333 -60 130
c0 35.333 7.16699 70.833 21.5 106.5s33.833 65.167 58.5 88.5z" />
    <glyph glyph-name="uni0329" unicode="&#x329;" horiz-adv-x="6" 
d="M-180 -440v386h88v-386h-88z" />
    <glyph glyph-name="uni032A" unicode="&#x32a;" 
d="M-624 -74h543v-308h-80v198h-383v-188h-80v298z" />
    <glyph glyph-name="uni032B" unicode="&#x32b;" 
d="M-46 -222c-0.666992 -41.333 -13.002 -75.498 -37.002 -102.498s-52.333 -40.833 -85 -41.5c-26.667 1.33301 -52 14 -76 38c-25.333 24 -44 56 -56 96c-13.333 -40 -32.333 -71.667 -57 -95c-25.333 -24 -51 -35.667 -77 -35c-32.667 -0.666992 -61 12.666 -85 39.999
c-23.333 25.333 -34.666 56 -33.999 92c0 39.333 5.33301 72.333 16 99c12.667 28 27.667 47.333 45 58c7.33301 4 14.333 6.33301 21 7c6.66699 -0.666992 11.667 -3 15 -7c6.66699 -8 9.66699 -17 9 -27c0 -8 -3 -12.333 -9 -13c-16 -2 -30.667 -10 -44 -24
c-10.667 -11.333 -16.334 -25 -17.001 -41c0 -22 8.33301 -40.667 25 -56c16 -15.333 35.667 -23.333 59 -24c26 0 51.333 9.33301 76 28c24 18.667 43.333 44 58 76c14 -32 32.667 -57.333 56 -76c24 -20 49 -30 75 -30c23.333 -0.666992 43.333 6.66602 60 21.999
s25 34 25 56c0.666992 10 -4.66602 21 -15.999 33c-7.33301 8.66699 -21.666 19.667 -42.999 33c-6.66699 4 -9.66699 9.66699 -9 17c0 10.667 3 18 9 22c6 4.66699 12 7 18 7s12 -2.33301 18 -7c19.333 -17.333 34.333 -39 45 -65c9.33301 -25.333 14.333 -52 15 -80v0z
" />
    <glyph glyph-name="uni032C" unicode="&#x32c;" 
d="M-37 -98l-256 -342h-127l-254 342h69l248 -211l250 211h70z" />
    <glyph glyph-name="uni032D" unicode="&#x32d;" 
d="M-108 -440l-250 211l-248 -211h-69l254 342h127l256 -342h-70z" />
    <glyph glyph-name="uni032E" unicode="&#x32e;" 
d="M-631 -54l31 0.000976562c22 -40.667 47.333 -69.334 76 -86.001c48 -28.667 108.333 -43 181 -43s132.667 14 180 42c34 19.333 57.667 48.333 71 87h33c-6 -82.667 -36.5 -150 -91.5 -202s-119.833 -78 -194.5 -78c-74 0 -138.333 25.833 -193 77.5
s-85.667 119.167 -93 202.5z" />
    <glyph glyph-name="uni032F" unicode="&#x32f;" 
d="M-545 -138.5c54.667 51.667 119 77.501 193 77.501c74.667 0 139.5 -26 194.5 -78s85.5 -119.333 91.5 -202h-33c-13.333 38.667 -37 67.667 -71 87c-47.333 28 -107.333 42 -180 42s-133 -14.333 -181 -43c-28.667 -16.667 -54 -45.334 -76 -86.001h-31
c7.33301 83.333 38.333 150.833 93 202.5z" />
    <glyph glyph-name="uni0330" unicode="&#x330;" 
d="M-712 -341l-31.999 -0.00195312c2.66699 91.333 21.667 157.333 57 198s79 61 131 61c27.333 0 52.333 -4.33301 75 -13c30 -11.333 72.5 -35.166 127.5 -71.499s95.833 -54.5 122.5 -54.5c21.333 0 40.166 9 56.499 27s29.166 55.333 38.499 112h31
c0.666992 -62 -7.5 -111.167 -24.5 -147.5s-41 -64.666 -72 -84.999s-62.167 -30.5 -93.5 -30.5c-52.667 0 -118 26.667 -196 80c-42 28.667 -70.333 46 -85 52s-29 9 -43 9c-27.333 0 -49 -12 -65 -36c-7.33301 -11.333 -16.666 -45 -27.999 -101z" />
    <glyph glyph-name="uni0331" unicode="&#x331;" 
d="M-813 -99h584v-110h-584v110z" />
    <glyph glyph-name="uni0332" unicode="&#x332;" 
d="M-810 -92h704v-110h-704v110z" />
    <glyph glyph-name="uni0333" unicode="&#x333;" 
d="M-791 -52h704v-110h-704v110zM-791 -262h704v-110h-704v110z" />
    <glyph glyph-name="uni0334" unicode="&#x334;" 
d="M-533 397l-23.9971 0.00195312c2 86.667 16 149.334 42 188.001s58.333 58 97 58c20 0 38.333 -4 55 -12c22 -10.667 53.333 -33.334 94 -68.001s70.667 -52 90 -52c16 0 30 8.66699 42 26s21.333 52.666 28 105.999h23c0.666992 -58.667 -5.33301 -105.334 -18 -140.001
s-30.334 -61.667 -53.001 -81s-45.667 -29 -69 -29c-38.667 0 -87 25.333 -145 76c-30.667 27.333 -51.334 43.833 -62.001 49.5s-21.334 8.5 -32.001 8.5c-20 0 -36 -11.333 -48 -34c-5.33301 -10.667 -12 -42.667 -20 -96z" />
    <glyph glyph-name="uni0335" unicode="&#x335;" 
d="M-507 567h447v-110h-447v110z" />
    <glyph glyph-name="uni0336" unicode="&#x336;" 
d="M-767 548h694v-110h-694v110z" />
    <glyph glyph-name="uni0337" unicode="&#x337;" 
d="M-459 519l299 304l73 -82l-290 -294z" />
    <glyph glyph-name="uni0338" unicode="&#x338;" horiz-adv-x="7" 
d="M-646 272l479 484l73 -82l-470 -474z" />
    <glyph glyph-name="uni0339" unicode="&#x339;" 
d="M-276 -440l-0.00195312 22.999c32 15.333 54.333 33.333 67 54c22.667 34.667 34 78 34 130s-11 95 -33 129c-15.333 24.667 -38 41.667 -68 51v23c64.667 -4 117.334 -25.667 158.001 -65s61 -86 61 -140c0 -52.667 -20.167 -98.667 -60.5 -138
s-93.166 -61.666 -158.499 -66.999z" />
    <glyph glyph-name="uni033A" unicode="&#x33a;" 
d="M-617 -70h80v-188h383v198h80v-308h-543v298z" />
    <glyph glyph-name="uni033B" unicode="&#x33b;" 
d="M-322 -103h220v-243h-223zM-289 -313h153v177h-151z" />
    <glyph glyph-name="uni033C" unicode="&#x33c;" 
d="M-128 -168c-26 -0.666992 -51.002 -10.665 -75.002 -29.998c-23.333 -19.333 -42 -45 -56 -77c-14.667 32 -34 57.333 -58 76c-24.667 19.333 -50 28.666 -76 27.999c-14 0 -27 -3 -39 -9l-49 72c0.666992 0.666992 1.33398 1 2.00098 1
c24 27.333 52.333 40.666 85 39.999c26 0.666992 51.667 -11 77 -35c24.667 -23.333 43.667 -55 57 -95c12 40.667 30.667 72.667 56 96c24 24 49.333 36.667 76 38c30.667 0 57.334 -11.667 80.001 -35l-33 -82c-14 8 -29.667 12 -47 12z" />
    <glyph glyph-name="uni033D" unicode="&#x33d;" 
d="M-582 1100l199 232l-184 214h115l84 -105l37 -50l42 49l91 106h110l-187 -211l202 -235h-113l-112 138l-29 38l-143 -176h-112z" />
    <glyph glyph-name="uni033E" unicode="&#x33e;" 
d="M-366 1707l-0.00195312 31.999c91.333 -2.66699 157.333 -21.667 198 -57s61 -79 61 -131c0 -27.333 -4.33301 -52.333 -13 -75c-11.333 -30 -35.166 -72.5 -71.499 -127.5s-54.5 -95.833 -54.5 -122.5c0 -21.333 9 -40.166 27 -56.499s55.333 -29.166 112 -38.499v-31
c-62 -0.666992 -111.167 7.5 -147.5 24.5s-64.666 41 -84.999 72s-30.5 62.167 -30.5 93.5c0 52.667 26.667 118 80 196c28.667 42 46 70.333 52 85s9 29 9 43c0 27.333 -12 49 -36 65c-11.333 7.33301 -45 16.666 -101 27.999z" />
    <glyph glyph-name="uni033F" unicode="&#x33f;" 
d="M-757 1817h704v-110h-704v110zM-757 1607h704v-110h-704v110z" />
    <glyph glyph-name="uni0340" unicode="&#x340;" horiz-adv-x="7" 
d="M-491 1299c-40.667 32 -60.999 60.667 -60.999 86c3.33301 16 8 29.333 14 40c10 16.667 28 25 54 25c14 0 27.167 -2.5 39.5 -7.5s29.166 -18.167 50.499 -39.5l301 -303h-82z" />
    <glyph glyph-name="uni0341" unicode="&#x341;" 
d="M-430 1100h-81.999l301 303c21.333 21.333 38.166 34.5 50.499 39.5s25.5 7.5 39.5 7.5c26 0 44 -8.33301 54 -25c6 -10.667 10.667 -24 14 -40c0 -25.333 -20.333 -54 -61 -86z" />
    <glyph glyph-name="uni0342" unicode="&#x342;" horiz-adv-x="6" 
d="M-809 1184l-31.999 -0.00195312c2.66699 91.333 21.667 157.333 57 198s79 61 131 61c27.333 0 52.333 -4.33301 75 -13c30 -11.333 72.5 -35.166 127.5 -71.499s95.833 -54.5 122.5 -54.5c21.333 0 40.166 9 56.499 27s29.166 55.333 38.499 112h31
c0.666992 -62 -7.5 -111.167 -24.5 -147.5s-41 -64.666 -72 -84.999s-62.167 -30.5 -93.5 -30.5c-52.667 0 -118 26.667 -196 80c-42 28.667 -70.333 46 -85 52s-29 9 -43 9c-27.333 0 -49 -12 -65 -36c-7.33301 -11.333 -16.666 -45 -27.999 -101z" />
    <glyph glyph-name="uni0343" unicode="&#x343;" horiz-adv-x="407" 
d="M30 727l0.000976562 36.001c31.333 0 60.666 7 87.999 21s48.333 32.667 63 56s22 45.333 22 66c0 12 -2 20.667 -6 26c-4.66699 5.33301 -9.66699 8 -15 8c-4.66699 0 -13 -3 -25 -9c-16.667 -9.33301 -31 -14 -43 -14c-25.333 0 -45.666 7.66699 -60.999 23
s-23 36.666 -23 63.999c0 28 9.66699 51 29 69s44.666 27 75.999 27c36.667 0 68 -14.333 94 -43s39 -68 39 -118c0 -74 -28 -132 -84 -174c-30 -23.333 -81.333 -36 -154 -38z" />
    <glyph glyph-name="uni0344" unicode="&#x344;" horiz-adv-x="222" 
d="M-520 1203c0 23.333 8.66699 46.166 26 68.499s41.333 33.5 72 33.5c26 0 49.667 -10.167 71 -30.5s32 -44.166 32 -71.499c0 -28 -10.333 -52.667 -31 -74c-20.667 -19.333 -44.667 -29 -72 -29c-30 0 -53.833 11.167 -71.5 33.5s-26.5 45.5 -26.5 69.5zM-113 1203
c0 23.333 8.66895 46.167 26.002 68.5s41.666 33.5 72.999 33.5l19 -1c4 0 10.333 -2.33301 19 -7c7.33301 -2 18 -9 32 -21c10.667 -9.33301 18.667 -21 24 -35l6 -18l2 -20c0 -26.667 -10.333 -50.5 -31 -71.5s-44.334 -31.5 -71.001 -31.5c-24.667 0 -49 11 -73 33
c-17.333 22.667 -26 46 -26 70zM-179.998 1279l-76.999 -30l173 391c12 28.667 22.167 47.167 30.5 55.5s20.166 15.5 35.499 21.5c26.667 10 46.667 9.66699 60 -1l14 -14l13 -22c12.667 -32 3.66699 -66 -27 -102z" />
    <glyph glyph-name="uni0345" unicode="&#x345;" horiz-adv-x="433" 
d="M29 95l-45.998 -102.998c-33.333 -106.667 -50.333 -178.667 -51 -216s13.666 -62.333 42.999 -75c19.333 -8.66699 52 -5.66699 98 9c57.333 17.333 100 19.666 128 6.99902c21.333 -9.33301 35.666 -25.333 42.999 -48s6.33301 -43.667 -3 -63
c-5.33301 -12 -14.333 -21.833 -27 -29.5s-27 -12.834 -43 -15.501c-37.333 -6 -82 2.66699 -134 26c-103.333 46 -168 118 -194 216c-24.667 98.667 -6.66699 215.667 54 351z" />
    <glyph glyph-name="uni0346" unicode="&#x346;" 
d="M-662 1458h543v-308h-80v198h-383v-188h-80v298z" />
    <glyph glyph-name="uni0347" unicode="&#x347;" horiz-adv-x="7" 
d="M-810 -52h704v-110h-704v110zM-810 -262h704v-110h-704v110z" />
    <glyph glyph-name="uni0348" unicode="&#x348;" horiz-adv-x="6" 
d="M-415 -440v386h88v-386h-88zM-225 -440v386h88v-386h-88z" />
    <glyph glyph-name="uni0349" unicode="&#x349;" 
d="M-499 -61h406v-308h-80v198h-326v110z" />
    <glyph glyph-name="uni034A" unicode="&#x34a;" horiz-adv-x="2" 
d="M-385 1240c-20 17.333 -33.998 28.334 -41.998 33.001c-10.667 5.33301 -21.334 8 -32.001 8c-20 0 -36 -11.333 -48 -34c-5.33301 -10.667 -12 -42.667 -20 -96h-24c2 86.667 16 149.334 42 188.001s58.333 58 97 58c20 0 38.333 -4 55 -12c17.333 -8 40 -23.667 68 -47
l77 78l62 -69l-65 -66c17.333 -10.667 31.333 -16 42 -16c16 0 30 8.66699 42 26s21.333 52.666 28 105.999h23c0.666992 -58.667 -5.33301 -105.334 -18 -140.001s-30.334 -61.667 -53.001 -81s-45.667 -29 -69 -29c-26.667 0 -57.667 11.667 -93 35l-81 -82l-69 61z" />
    <glyph glyph-name="uni034B" unicode="&#x34b;" horiz-adv-x="300" 
d="M-459 1356l-31.999 -0.00195312c2.66699 91.333 21.667 157.333 57 198s79 61 131 61c27.333 0 52.333 -4.33301 75 -13c30 -11.333 72.5 -35.166 127.5 -71.499s95.833 -54.5 122.5 -54.5c21.333 0 40.166 9 56.499 27s29.166 55.333 38.499 112h31
c0.666992 -62 -7.5 -111.167 -24.5 -147.5s-41 -64.666 -72 -84.999s-62.167 -30.5 -93.5 -30.5c-52.667 0 -118 26.667 -196 80c-42 28.667 -70.333 46 -85 52s-29 9 -43 9c-27.333 0 -49 -12 -65 -36c-7.33301 -11.333 -16.666 -45 -27.999 -101zM-165.999 1139
c-23.333 0 -46.166 8.66699 -68.499 26s-33.5 41.333 -33.5 72c0 26 10.167 49.667 30.5 71s44.166 32 71.499 32c28 0 52.667 -10.333 74 -31c19.333 -20.667 29 -44.667 29 -72c0 -30 -11.167 -53.833 -33.5 -71.5s-45.5 -26.5 -69.5 -26.5zM-165.999 1616
c-23.333 0 -46.167 8.66895 -68.5 26.002s-33.5 41.666 -33.5 72.999l1 19c0 4 2.33301 10.333 7 19c2 7.33301 9 18 21 32c9.33301 10.667 21 18.667 35 24l18 6l20 2c26.667 0 50.5 -10.333 71.5 -31s31.5 -44.334 31.5 -71.001c0 -24.667 -11 -49 -33 -73
c-22.667 -17.333 -46 -26 -70 -26z" />
    <glyph glyph-name="uni034C" unicode="&#x34c;" horiz-adv-x="300" 
d="M-359 1565l-23.9961 10.9971c36.667 60.667 75.667 98.667 117 114s81.666 14 120.999 -4c20 -9.33301 36.667 -20.666 50 -33.999c18 -18 40.667 -48.667 68 -92s51 -69.666 71 -78.999c16 -7.33301 33.333 -7.66602 52 -0.999023s42.334 27.334 71.001 62.001l23 -10
c-22.667 -42 -47.334 -72.333 -74.001 -91s-55.334 -29.5 -86.001 -32.5s-57.667 0.833008 -81 11.5c-38.667 18 -77 58 -115 120c-20.667 34 -35.334 55.5 -44.001 64.5s-18 15.833 -28 20.5c-20.667 9.33301 -41.334 8.66602 -62.001 -2.00098
c-10 -4.66699 -29.667 -24 -59 -58zM-478.996 1385l-23.9961 10.9971c36.667 60.667 75.667 98.667 117 114s81.666 14 120.999 -4c20 -9.33301 36.667 -20.666 50 -33.999c18 -18 40.667 -48.667 68 -92s51 -69.666 71 -78.999c16 -7.33301 33.333 -7.66602 52 -0.999023
s42.334 27.334 71.001 62.001l23 -10c-22.667 -42 -47.334 -72.333 -74.001 -91s-55.334 -29.5 -86.001 -32.5s-57.667 0.833008 -81 11.5c-38.667 18 -77 58 -115 120c-20.667 34 -35.334 55.5 -44.001 64.5s-18 15.833 -28 20.5
c-20.667 9.33301 -41.334 8.66602 -62.001 -2.00098c-10 -4.66699 -29.667 -24 -59 -58z" />
    <glyph glyph-name="uni034D" unicode="&#x34d;" 
d="M-472 -229l70 -42v-53l-158 97v46l158 96v-53l-67 -40h319l-83 49v53l174 -106l-1 -46l-172 -105v54l84 50h-324z" />
    <glyph glyph-name="uni034E" unicode="&#x34e;" 
d="M-189 -187l-50 -83h-53l107 174h46l104 -172h-54l-50 84v-254l-50 -2v253z" />
    <glyph glyph-name="uni034F" unicode="&#x34f;" horiz-adv-x="480" 
 />
    <glyph glyph-name="uni0350" unicode="&#x350;" 
d="M-41 1297l-500 -197v61l419 163l-419 161v62l501 -199z" />
    <glyph glyph-name="uni0351" unicode="&#x351;" 
d="M-93 1883l0.000976562 -31c-40.667 -22 -69.334 -47.333 -86.001 -76c-28.667 -48 -43 -108.333 -43 -181s14 -132.667 42 -180c19.333 -34 48.333 -57.667 87 -71v-33c-82.667 6 -150 36.5 -202 91.5s-78 119.833 -78 194.5c0 74 25.833 138.333 77.5 193
s119.167 85.667 202.5 93z" />
    <glyph glyph-name="uni0352" unicode="&#x352;" 
d="M-198 1684c-43.333 35.333 -96 52.999 -158 52.999c-67.333 0 -121.833 -17.167 -163.5 -51.5s-68.5 -80.5 -80.5 -138.5c-8.66699 18 -14 34.333 -16 49c-2.66699 12.667 -4 28.334 -4 47.001c0 42 13 72 39 90c34.667 24.667 71 45 109 61c23.333 10.667 41 17 53 19
l34 3l29 1c32 0 67.333 -7.66699 106 -23l57 -26l46 -27c31.333 -20.667 47 -52.667 47 -96c0 -24.667 -7 -56 -21 -94c0 48.667 -25.667 93 -77 133zM-303 1475c-16.667 -16.667 -35.668 -25 -57.001 -25c-23.333 0 -42.666 8.33301 -57.999 25c-16 14 -24 33 -24 57
c0 22.667 8 42 24 58c16.667 14.667 36 22 58 22c21.333 0 40.333 -7.33301 57 -22s25 -34 25 -58c0 -23.333 -8.33301 -42.333 -25 -57z" />
    <glyph glyph-name="uni0353" unicode="&#x353;" 
d="M-563 -592l199 232l-184 214h115l84 -105l37 -50l42 49l91 106h110l-187 -211l202 -235h-113l-112 138l-29 38l-143 -176h-112z" />
    <glyph glyph-name="uni0354" unicode="&#x354;" 
d="M-540 -279l501 199v-62l-419 -161l419 -163v-61l-500 197z" />
    <glyph glyph-name="uni0355" unicode="&#x355;" 
d="M-53 -324l-500 -197v61l419 163l-419 161v62l501 -199z" />
    <glyph glyph-name="uni0356" unicode="&#x356;" 
d="M-123 -67l113 -373h-35l-92 312l-93 -312h-35l112 373h30zM-282 -258l-285 -147v46l239 121l-239 120v46l286 -148z" />
    <glyph glyph-name="uni0357" unicode="&#x357;" horiz-adv-x="7" 
d="M-325 1100l-0.000976562 31c40.667 22 69.334 47.333 86.001 76c28.667 48 43 108.333 43 181s-14 132.667 -42 180c-19.333 34 -48.333 57.667 -87 71v33c82.667 -6 150 -36.5 202 -91.5s78 -119.833 78 -194.5c0 -74 -25.833 -138.333 -77.5 -193
s-119.167 -85.667 -202.5 -93z" />
    <glyph glyph-name="uni0358" unicode="&#x358;" horiz-adv-x="273" 
 />
    <glyph glyph-name="uni0359" unicode="&#x359;" horiz-adv-x="200" 
 />
    <glyph glyph-name="uni035A" unicode="&#x35a;" horiz-adv-x="280" 
 />
    <glyph glyph-name="uni035B" unicode="&#x35b;" horiz-adv-x="313" 
 />
    <glyph glyph-name="uni035C" unicode="&#x35c;" horiz-adv-x="347" 
 />
    <glyph glyph-name="uni035D" unicode="&#x35d;" horiz-adv-x="407" 
d="M-665 1837h52.999c37.333 -48 80.666 -81.667 129.999 -101c82 -34 185 -51 309 -51c124.667 0 227.334 16.333 308.001 49c58 23.333 98.667 57.666 122 102.999h56c-10 -97.333 -62.167 -176.666 -156.5 -237.999s-205.166 -92 -332.499 -92
c-126.667 0 -236.667 30.5 -330 91.5s-146.333 140.5 -159 238.5z" />
    <glyph glyph-name="uni035E" unicode="&#x35e;" horiz-adv-x="391" 
d="M-577 1617h864v-110h-864v110z" />
    <glyph glyph-name="uni035F" unicode="&#x35f;" horiz-adv-x="391" 
d="M-650 -74h864v-110h-864v110z" />
    <glyph glyph-name="uni0360" unicode="&#x360;" horiz-adv-x="500" 
d="M-603 1511l-49 -0.00195312c4 91.333 33 157.333 87 198s121 61 201 61c41.333 0 79.666 -4.33301 114.999 -13c45.333 -11.333 110.166 -35.166 194.499 -71.499s146.833 -54.5 187.5 -54.5c32.667 0 61.5 9 86.5 27s44.833 55.333 59.5 112h47
c1.33301 -62 -11.167 -111.167 -37.5 -147.5s-63.166 -64.666 -110.499 -84.999s-95 -30.5 -143 -30.5c-80.667 0 -180.667 26.667 -300 80c-64 28.667 -107.333 46 -130 52s-44.667 9 -66 9c-41.333 0 -74.333 -12 -99 -36c-11.333 -11.333 -25.666 -45 -42.999 -101z" />
    <glyph glyph-name="uni0361" unicode="&#x361;" horiz-adv-x="500" 
d="M-493 1745.5c93.333 61 203.334 91.5 330.001 91.5c127.333 0 238.166 -30.667 332.499 -92s146.5 -140.666 156.5 -237.999h-56c-23.333 45.333 -64 79.666 -122 102.999c-80.667 32.667 -183.334 49 -308.001 49c-124 0 -227 -17 -309 -51
c-49.333 -19.333 -92.666 -53 -129.999 -101h-53c12.667 98 65.667 177.5 159 238.5z" />
    <glyph glyph-name="uni0362" unicode="&#x362;" horiz-adv-x="500" 
d="M-133 -243l141 29h-728l-5 50h724l-139 30v52l400 -86v-46l-393 -82v53z" />
    <glyph glyph-name="uni0363" unicode="&#x363;" horiz-adv-x="7" 
d="M-192 1561c-48.667 -26 -78.999 -41 -90.999 -45c-18.667 -6 -38.334 -9 -59.001 -9c-32.667 0 -59.5 7.66699 -80.5 23s-31.5 35.666 -31.5 60.999c0 16 5 30 15 42c14 16 38.5 31.167 73.5 45.5s92.833 31.5 173.5 51.5v13c0 32.667 -7.5 55 -22.5 67
s-36.833 18 -65.5 18c-21.333 0 -38.333 -4 -51 -12s-19 -17.333 -19 -28l1 -20c0 -11.333 -4 -20 -12 -26s-18.667 -9 -32 -9c-12.667 0 -23 3.16699 -31 9.5s-12 14.833 -12 25.5c0 20.667 15 39.5 45 56.5s72.333 25.5 127 25.5c42 0 76.333 -5 103 -15
c20 -7.33301 34.667 -18.666 44 -33.999c6 -10.667 9 -31.667 9 -63v-111c0 -31.333 1 -50.5 3 -57.5s4.83301 -11.667 8.5 -14s8.16699 -3.5 13.5 -3.5s10 1 14 3c7.33301 2.66699 21.333 11.334 42 26.001v-20c-38 -36 -74.667 -54 -110 -54
c-16.667 0 -30 4.16699 -40 12.5s-15 22.166 -15 41.499zM-191.999 1584v123.998c-52 -14 -85.333 -24 -100 -30c-27.333 -10.667 -46.833 -21.667 -58.5 -33s-17.5 -23.666 -17.5 -36.999c0 -17.333 7.33301 -31.666 22 -42.999s31.667 -17 51 -17c26 0 60.333 12 103 36z
" />
    <glyph glyph-name="uni0364" unicode="&#x364;" horiz-adv-x="7" 
d="M-401 1765c0 -58.667 19.333 -104.668 58 -138.001s84 -50 136 -50c35.333 0 65.833 7.16699 91.5 21.5s47.167 38.5 64.5 72.5l18 -8c-8 -39.333 -31.5 -75.166 -70.5 -107.499s-88.167 -48.5 -147.5 -48.5c-64 0 -118.667 18.5 -164 55.5s-68 86.5 -68 148.5
c0 67.333 23.333 119.833 70 157.5s105.334 56.5 176.001 56.5c59.333 0 108.166 -14.5 146.499 -43.5s57.5 -67.833 57.5 -116.5h-368zM-401 1790l246.999 -0.000976562c-2 24.667 -6.33301 42.334 -13 53.001c-9.33301 16 -23.666 28.5 -42.999 37.5
s-39.333 13.5 -60 13.5c-32 0 -60.667 -9.16699 -86 -27.5s-40.333 -43.833 -45 -76.5z" />
    <glyph glyph-name="uni0365" unicode="&#x365;" horiz-adv-x="7" 
d="M-148 2088c16 0 29.833 -4.16699 41.5 -12.5s17.5 -18.166 17.5 -29.5c0 -12 -5.83301 -22.167 -17.5 -30.5s-25.5 -12.5 -41.5 -12.5c-16.667 0 -30.667 4.16699 -42 12.5s-17 18.5 -17 30.5c0 11.333 5.66699 21.166 17 29.5c11.333 8.33301 25.333 12.5 42 12.5z
M-100 1888l0.000976562 -308.001c0 -24 2.5 -40 7.5 -48s12.167 -14 21.5 -18s26.666 -6 51.999 -6v-15h-259v15c26 0 43.5 1.83301 52.5 5.5s16.167 9.66699 21.5 18s8 24.5 8 48.5v147c0 42 -2 69 -6 81c-2.66699 8.66699 -6.83398 14.834 -12.501 18.501
s-13.5 5.5 -23.5 5.5c-11.333 0 -24.666 -2 -39.999 -6l-8 15l161 47h25z" />
    <glyph glyph-name="uni0366" unicode="&#x366;" 
d="M-230 1823c64.667 0 116.333 -17.998 155 -53.998c33.333 -30.667 50 -65.667 50 -105c0 -28 -9.16699 -56.167 -27.5 -84.5s-43.5 -49.833 -75.5 -64.5s-67.667 -22 -107 -22c-64 0 -115 18.667 -153 56c-32 31.333 -48 66.666 -48 105.999
c0 28.667 9.66699 57.167 29 85.5s44.833 49.166 76.5 62.499s65.167 20 100.5 20zM-244.001 1801c-16.667 0 -33.334 -3.66602 -50.001 -10.999s-30.167 -19.833 -40.5 -37.5s-15.5 -40.5 -15.5 -68.5c0 -45.333 12.333 -84.5 37 -117.5s57.334 -49.5 98.001 -49.5
c30 0 54.833 9.16699 74.5 27.5s29.5 49.5 29.5 93.5c0 55.333 -16.333 98.666 -49 129.999c-22 22 -50 33 -84 33z" />
    <glyph glyph-name="uni0367" unicode="&#x367;" 
d="M-83 1802l-0.00292969 -181.999c0 -34.667 0.833008 -55.834 2.5 -63.501s4.66699 -13 9 -16s9.16602 -4.5 14.499 -4.5c7.33301 0 16 1.66699 26 5l5 -11l-102 -37h-16v64c-29.333 -28 -51.666 -45.667 -66.999 -53s-31.666 -11 -48.999 -11
c-18.667 0 -35 4.83301 -49 14.5s-23.833 22.167 -29.5 37.5s-8.5 37 -8.5 65v134c0 14 -1.66699 23.667 -5 29s-8.33301 9.5 -15 12.5s-19 4.5 -37 4.5v12h119v-201c0 -28 5.5 -46.333 16.5 -55s24.167 -13 39.5 -13c10.667 0 22.834 3 36.501 9s29.834 17.333 48.501 34
v170c0 16.667 -3.5 28 -10.5 34s-21.833 9.33301 -44.5 10v12h116z" />
    <glyph glyph-name="uni0368" unicode="&#x368;" horiz-adv-x="7" 
d="M-53 1649c-12.667 -50 -37.166 -88.4971 -73.499 -115.497s-76.5 -40.5 -120.5 -40.5c-52.667 0 -98.5 18.167 -137.5 54.5s-58.5 85.166 -58.5 146.499c0 60 21.667 108.667 65 146s95.333 56 156 56c45.333 0 82.666 -9.83301 111.999 -29.5s44 -40.167 44 -61.5
c0 -10.667 -4.16699 -19.334 -12.5 -26.001s-19.833 -10 -34.5 -10c-20 0 -35 5.33301 -45 16c-6 6 -9.83301 17.167 -11.5 33.5s-8.5 28.833 -20.5 37.5c-12 8 -28.333 12 -49 12c-33.333 0 -60.333 -10.333 -81 -31c-27.333 -26.667 -41 -62.334 -41 -107.001
c0 -45.333 13.5 -85.333 40.5 -120s63.5 -52 109.5 -52c33.333 0 63 9.33301 89 28c18.667 12.667 36.667 35.667 54 69z" />
    <glyph glyph-name="uni0369" unicode="&#x369;" 
d="M-181 1548c-21.333 -19.333 -42.333 -33.333 -63 -42s-43 -13 -67 -13c-48.667 0 -91 17.5 -127 52.5s-54 80.167 -54 135.5s20 105.833 60 151.5s91.333 68.5 154 68.5c39.333 0 71.666 -10.667 96.999 -32v71c0 44 -1.16699 71 -3.5 81s-6.16602 16.833 -11.499 20.5
s-11.666 5.5 -18.999 5.5c-8.66699 0 -20 -2.33301 -34 -7l-6 15l132 47h22v-445c0 -44.667 1.16699 -72 3.5 -82s6.16602 -17 11.499 -21s11.666 -6 18.999 -6c8.66699 0 20.334 2.33301 35.001 7l5 -15l-132 -47h-22v55zM-181 1577l0.000976562 198.999
c-2 18.667 -7.83301 35.834 -17.5 51.501s-22.5 27.5 -38.5 35.5s-31.333 12 -46 12c-28.667 0 -54 -11 -76 -33c-29.333 -29.333 -44 -72 -44 -128s14.167 -99.167 42.5 -129.5s59.833 -45.5 94.5 -45.5c29.333 0 57.666 12.667 84.999 38z" />
    <glyph glyph-name="uni036A" unicode="&#x36a;" 
d="M-364 2008v-242.998c36 29.333 64.667 48.166 86 56.499s42.333 12.5 63 12.5c26 0 48 -5.16699 66 -15.5s31.333 -26.5 40 -48.5c6.66699 -15.333 10 -43.666 10 -84.999v-117c0 -21.333 2 -35.666 6 -42.999c3.33301 -6 9 -10.667 17 -14s22.333 -5 43 -5v-13h-220v13
h11c20.667 0 35 2.33301 43 7s13.667 11.667 17 21c1.33301 3.33301 2 14.666 2 33.999v117c0 36 -2.5 59.667 -7.5 71s-13.167 19.833 -24.5 25.5s-24.666 8.5 -39.999 8.5c-16 0 -32.667 -3 -50 -9s-38 -18.667 -62 -38v-175c0 -22.667 1.66699 -36.834 5 -42.501
s9.66602 -10.334 18.999 -14.001s25.333 -5.5 48 -5.5v-13h-221v13c20 0 35.667 2.33301 47 7c6 2 11 6.33301 15 13s6 20.667 6 42v300c0 38 -1.16699 61.333 -3.5 70s-6 14.5 -11 17.5s-11.833 4.5 -20.5 4.5c-6.66699 0 -17.667 -2 -33 -6l-7 13l134 41h22z" />
    <glyph glyph-name="uni036B" unicode="&#x36b;" 
d="M-415 1756l36.9922 36c10 8 20.333 14.167 31 18.5s21.667 6.5 33 6.5c18 0 33.5 -5.16699 46.5 -15.5s21.833 -25.5 26.5 -45.5c21.333 24.667 39.5 41 54.5 49s30.5 12 46.5 12c15.333 0 29 -4 41 -12s21.333 -20.667 28 -38c4.66699 -12.667 7 -32 7 -58v-124
c0 -18 1.33301 -30.333 4 -37c2.66699 -4.66699 6.83398 -8.66699 12.501 -12s14.834 -5 27.501 -5v-11h-143v11h6c12.667 0 22.334 2.66699 29.001 8c4.66699 3.33301 8.33398 8.66602 11.001 15.999c0.666992 3.33301 1 13.333 1 30v124c0 24 -3 40.667 -9 50
c-8 13.333 -21 20 -39 20c-11.333 0 -22.666 -2.66699 -33.999 -8s-25 -15.666 -41 -30.999l-1 -4l1 -13v-138c0 -19.333 1.16699 -31.5 3.5 -36.5s6.5 -9.16699 12.5 -12.5s16.333 -5 31 -5v-11h-146v11c16 0 27 2 33 6s10 9.66699 12 17
c1.33301 3.33301 2 13.666 2 30.999v124c0 24 -3.66699 41 -11 51c-9.33301 13.333 -22.333 20 -39 20c-11.333 0 -22.666 -3 -33.999 -9c-17.333 -9.33301 -30.666 -19.666 -39.999 -30.999v-155c0 -18.667 1.33301 -30.834 4 -36.501s6.5 -10 11.5 -13
s15.5 -4.5 31.5 -4.5v-11h-143v11c13.333 0 22.666 1.5 27.999 4.5s9.33301 7.5 12 13.5s4 18 4 36v110c0 32 -1 52.667 -3 62c-1.33301 6.66699 -3.66602 11.334 -6.99902 14.001s-7.66602 4 -12.999 4c-6 0 -13 -1.66699 -21 -5l-5 12l87 35h14v-61z" />
    <glyph glyph-name="uni036C" unicode="&#x36c;" 
d="M-218 1817l0.000976562 -62.999c39.333 42 79.333 63 120 63c18.667 0 34.167 -3.5 46.5 -10.5s18.5 -14.833 18.5 -23.5c0 -8 -4.33301 -14.833 -13 -20.5s-19.334 -8.5 -32.001 -8.5c-12 0 -25.333 3.5 -40 10.5s-25.667 10.5 -33 10.5c-6 0 -12.333 -2 -19 -6
c-15.333 -8 -31.333 -21.667 -48 -41v-135c0 -16 3.33301 -28 10 -36c4.66699 -5.33301 12.5 -9.83301 23.5 -13.5s27.167 -5.5 48.5 -5.5v-11h-239v11c24 0 41.667 2.33301 53 7c8.66699 3.33301 14.667 8.66602 18 15.999c1.33301 3.33301 2 13 2 29v110
c0 32.667 -1 52 -3 58s-6 10.5 -12 13.5s-13.333 4.5 -22 4.5c-10.667 0 -22.667 -1.66699 -36 -5l-5 12l141 34h21z" />
    <glyph glyph-name="uni036D" unicode="&#x36d;" 
d="M-189 2010l0.00195312 -126h109v-30h-109v-249c0 -24.667 4.33301 -41.334 13 -50.001s19.667 -13 33 -13c11.333 0 22.333 2.83301 33 8.5s18.667 14.167 24 25.5h20c-12 -27.333 -28.833 -48 -50.5 -62s-43.834 -21 -66.501 -21c-16 0 -31.333 3.5 -46 10.5
s-25.5 17.167 -32.5 30.5s-10.5 34 -10.5 62v258h-74v14c18.667 6 37.667 16.333 57 31s36.666 32.334 51.999 53.001c8 10.667 19 30 33 58h15z" />
    <glyph glyph-name="uni036E" unicode="&#x36e;" 
d="M-495 1842l201.999 0.00195312v-14h-13c-12 0 -21.333 -2.33301 -28 -7s-10 -11 -10 -19s3.33301 -18 10 -30l100 -187l100 194c7.33301 13.333 11 23.666 11 30.999c0 3.33301 -1.33301 6.33301 -4 9c-3.33301 3.33301 -7.66602 5.66602 -12.999 6.99902s-16 2 -32 2v14
h140v-14c-16 -0.666992 -27.333 -3 -34 -7c-10.667 -8 -20.334 -20.333 -29.001 -37l-153 -291h-19l-153 286c-6.66699 13.333 -13.167 22.833 -19.5 28.5s-14.5 10.5 -24.5 14.5c-5.33301 2 -15.666 4 -30.999 6v14z" />
    <glyph glyph-name="uni036F" unicode="&#x36f;" 
d="M-486 1862l206.998 0.00390625v-15c-13.333 0 -22.666 -1.83301 -27.999 -5.5s-8 -8.5 -8 -14.5c0 -6.66699 5.66699 -16.667 17 -30c3.33301 -4.66699 8.66602 -11.334 15.999 -20.001l31 -42l36 42c22.667 26 34 42.667 34 50c0 5.33301 -2.66699 10 -8 14s-14 6 -26 6
v15h148v-15c-15.333 -0.666992 -28.666 -4.33398 -39.999 -11.001c-16 -8.66699 -37.333 -28.334 -64 -59.001l-60 -68l109 -132c26.667 -32.667 45.834 -52.167 57.501 -58.5s26.5 -9.83301 44.5 -10.5v-15h-207v15c14 0 25 2.66699 33 8c6.66699 3.33301 10 8 10 14
c0 6.66699 -10.333 22.334 -31 47.001l-64 79l-71 -79c-21.333 -24 -32 -38.333 -32 -43c0 -6.66699 3.5 -12.667 10.5 -18s17.833 -8 32.5 -8v-15h-144v15c12 1.33301 22.333 4.66602 31 9.99902c12 7.33301 32.333 27 61 59l92 103l-83 101
c-24 29.333 -42.5 47.666 -55.5 54.999s-29.167 11 -48.5 11v15z" />
    <glyph glyph-name="uni0901" unicode="&#x901;" 
d="M-380 1300c-75.333 0 -152 30.667 -230 92c-78.667 61.333 -149 145 -211 251l61 25c38 -64 90.667 -114.667 158 -152c68 -38 142 -57 222 -57s154 19 222 57c67.333 37.333 120 88 158 152l61 -25c-62 -106 -132.333 -189.667 -211 -251
c-78 -61.333 -154.667 -92 -230 -92zM-380 1570l-110 122l110 122l110 -122z" />
    <glyph glyph-name="uni0902" unicode="&#x902;" 
d="M-233 1530l-108 108l108 118l108 -118z" />
    <glyph glyph-name="uni0903" unicode="&#x903;" horiz-adv-x="465" 
d="M235 183l-105 108l105 117l108 -117zM238 573l-108 107l108 118l108 -118z" />
    <glyph glyph-name="uni0905" unicode="&#x905;" horiz-adv-x="1424" 
d="M577 173c-90 0 -183.33 38.334 -279.997 115.001c-96.667 77.333 -183.334 182 -260.001 314l74 50c56.667 -98.667 122.334 -176.667 197.001 -234s148 -86 220 -86c57.333 0 106.666 20.333 147.999 61c40.667 41.333 61 90.666 61 147.999c0 29.333 -10 57 -30 83
c-19.333 26.667 -46 48.334 -80 65.001c-30 -16.667 -62.333 -30.334 -97 -41.001c-36 -10.667 -73.667 -17.667 -113 -21l-61 123c90.667 8 166.667 35.333 228 82c61.333 47.333 92 102 92 164c0 34 -14.667 63 -44 87c-28.667 23.333 -63.334 35 -104.001 35
c-54 0 -106 -6 -156 -18c-50 -12.667 -96.333 -31 -139 -55l-110 135c42.667 24.667 87.667 43 135 55c47.333 12.667 96.333 19 147 19c75.333 0 159.666 -37.667 252.999 -113s140 -144.333 140 -207c0 -34 -6.33301 -66.333 -19 -97
c-13.333 -30.667 -31.666 -55.667 -54.999 -75c42.667 -36 85.667 -63.333 129 -82c42 -18.667 81 -28 117 -28c33.333 0 68.666 7.33301 105.999 22c38 14 76.667 35 116 63v369l-271 -1l-86 115h602l86 -115l-197 1v-1106l-134 74v479c-20 -20 -42.667 -35 -68 -45
c-26 -10.667 -52.667 -16 -80 -16c-34.667 0 -69 6 -103 18c-34 12.667 -65 31 -93 55c16 -60 24 -92.667 24 -98c0 -81.333 -28.667 -151 -86 -209c-57.333 -56.667 -127 -85 -209 -85z" />
    <glyph glyph-name="uni0906" unicode="&#x906;" horiz-adv-x="1740" 
d="M1503 1105l-174.998 0.000976562v-1105l-135 74v479c-20 -20 -42.667 -35 -68 -45c-26 -10.667 -52.667 -16 -80 -16c-34.667 0 -69 6 -103 18c-34 12.667 -65 31 -93 55c16 -60 24 -92.667 24 -98c0 -82.667 -28.667 -152.334 -86 -209.001s-127 -85 -209 -85
c-90 0 -183.333 38.333 -280 115c-96.667 77.333 -183.334 182 -260.001 314l74 50c56.667 -98.667 122.334 -176.667 197.001 -234s148 -86 220 -86c57.333 0 106.666 20.333 147.999 61c40.667 41.333 61 90.666 61 147.999c0 28 -10 55.667 -30 83
c-19.333 26.667 -46 48.334 -80 65.001c-30 -16.667 -62.333 -30.334 -97 -41.001c-47.333 -14 -85 -21 -113 -21l-61 123c80 0 156 27.333 228 82c61.333 46.667 92 101.334 92 164.001c0 34 -14.667 63 -44 87c-28.667 23.333 -63.334 35 -104.001 35
c-54 0 -106 -6 -156 -18c-50 -12.667 -96.333 -31 -139 -55l-110 135c42.667 24.667 87.667 43 135 55c47.333 12.667 96.333 19 147 19c75.333 0 159.666 -37.667 252.999 -113s140 -144.333 140 -207c0 -34 -6.33301 -66.333 -19 -97
c-13.333 -30.667 -31.666 -55.667 -54.999 -75c42.667 -36 85.667 -63.333 129 -82c42 -18.667 81 -28 117 -28c30.667 0 66 7.33301 106 22c38 14 76.667 35 116 63v369h-271l-86 114h602h310l86 -115h-196v-1105l-135 74v1031z" />
    <glyph glyph-name="uni0907" unicode="&#x907;" horiz-adv-x="787" 
d="M623 -217l-224.997 321.001c-72.667 0 -134.334 16 -185.001 48c-50.667 32.667 -76 72 -76 118c0 28.667 10 51.334 30 68.001c21.333 18 46.666 27 75.999 27c28.667 0 57 -12 85 -36c28 -23.333 51.333 -55 70 -95c61.333 0 114.333 20 159 60
c44 39.333 66 86.666 66 141.999c0 22.667 -5.66699 42 -17 58c-12 16.667 -26 25 -42 25c-17.333 0 -43 -5.66699 -77 -17c-34 -12 -59.667 -18 -77 -18c-58.667 0 -121 36.667 -187 110c-65.333 73.333 -98 143.333 -98 210c0 43.333 16 79.666 48 108.999
c32.667 30.667 72 46 118 46h261v146h-557l-86 115h888l86 -115h-196v-289h-325c-32.667 0 -60.667 -8.33301 -84 -25s-35 -36 -35 -58c0 -30 11.667 -55.333 35 -76s51.333 -31 84 -31c16 0 39.667 4 71 12c32 8 56 12 72 12c49.333 0 101 -30 155 -90
c54.667 -60 82 -117 82 -171c0 -75.333 -24.333 -134 -73 -176c-80.667 -70 -129.334 -100 -146.001 -90l195 -266z" />
    <glyph glyph-name="uni0908" unicode="&#x908;" horiz-adv-x="807" 
d="M562 1220c-45.333 42.667 -75.666 86 -90.999 130c-20.667 59.333 -31 101.333 -31 126c0 42.667 16 78.334 48 107.001c34.667 30.667 92.334 46 173.001 46c21.333 -0.666992 54.333 -19.667 99 -57c30 -25.333 55.667 -68 77 -128l-93 -17
c-17.333 30 -36 53.333 -56 70c-23.333 20 -41.666 30 -54.999 30c-22.667 0 -41.667 -11 -57 -33v-79c0 -27.333 13.667 -57.333 41 -90c56.667 -68 85 -103 85 -105h101l86 -115h-196v-289h-325c-32.667 0 -60.667 -8.33301 -84 -25s-35 -36 -35 -58
c0 -30 11.667 -55.333 35 -76s51.333 -31 84 -31c16 0 39.667 4 71 12c32 8 56 12 72 12c49.333 0 101 -30 155 -90c54.667 -60 82 -117 82 -171c0 -75.333 -24.333 -134 -73 -176c-80.667 -70 -129.334 -100 -146.001 -90l195 -266l-95 -74l-225 321
c-72.667 0 -134.334 16 -185.001 48c-50.667 32.667 -76 72 -76 118c0 28.667 10 51.334 30 68.001c21.333 18 46.666 27 75.999 27c28.667 0 57 -12 85 -36c28 -23.333 51.333 -55 70 -95c61.333 0 114.333 20 159 60c44 39.333 66 86.666 66 141.999
c0 22.667 -5.66699 42 -17 58c-12 16.667 -26 25 -42 25c-17.333 0 -43 -5.66699 -77 -17c-34 -12 -59.667 -18 -77 -18c-58.667 0 -121 36.667 -187 110c-65.333 73.333 -98 143.333 -98 210c0 43.333 16 79.666 48 108.999c32.667 30.667 72 46 118 46h261v146h-557
l-86 115h647z" />
    <glyph glyph-name="uni0909" unicode="&#x909;" horiz-adv-x="974" 
d="M589 68c-102 0 -198.665 40.332 -289.998 120.999c-92 80 -163.333 172.667 -214 278l91 74c34 -100 91.667 -177.667 173 -233c102 -70 178 -105 228 -105c47.333 0 87.666 18 120.999 54c34 36 51 79.333 51 130c0 49.333 -17.333 95 -52 137
c-34 42.667 -79.667 74.667 -137 96c-60.667 -16.667 -112 -25 -154 -25l-74 128l123 7c63.333 0 118 21.667 164 65c45.333 43.333 68 95 68 155c0 31.333 -8.33301 58.333 -25 81c-14.667 19.333 -39 44 -73 74h-583l-110 115h1082l86 -115h-340
c37.333 -50.667 64.666 -95.667 81.999 -135c18.667 -42.667 28 -82 28 -118c0 -32 -14.333 -65.667 -43 -101c-28 -35.333 -66.667 -67 -116 -95c70 -26 126.333 -66 169 -120c42.667 -53.333 64 -111.333 64 -174c0 -81.333 -31 -150.666 -93 -207.999
s-137.333 -86 -226 -86z" />
    <glyph glyph-name="uni090A" unicode="&#x90a;" horiz-adv-x="1310" 
d="M752 717l121.003 41.998c48 23.333 91.667 35 131 35c104 0 177.333 -40.667 220 -122c32.667 -64.667 49 -134.334 49 -209.001c0 -70 -40.667 -176.333 -122 -319l-147 74c47.333 68.667 83.666 132 108.999 190s38 109 38 153c0 28 -9.66699 51.333 -29 70
c-18.667 18.667 -41.667 28 -69 28c-18.667 0 -49.667 -4.66699 -93 -14c-100.667 -21.333 -145.667 -44.666 -135 -69.999l7 -39c42.667 -53.333 64 -111.333 64 -174c0 -81.333 -31 -150.666 -93 -207.999s-137.333 -86 -226 -86c-102 0 -198.667 40.333 -290 121
c-92 80 -163.333 172.667 -214 278l91 74c34 -100 91.667 -177.667 173 -233c102 -70 178 -105 228 -105c47.333 0 87.666 18 120.999 54c34 36 51 79.333 51 130c0 49.333 -17.333 95 -52 137c-34 42.667 -79.667 74.667 -137 96c-60.667 -16.667 -112 -25 -154 -25
l-74 128l123 7c63.333 0 118 21.667 164 65c45.333 43.333 68 95 68 155c0 31.333 -8.33301 58.333 -25 81c-14.667 19.333 -39 44 -73 74h-583l-110 115h1441l86 -115h-699c37.333 -50.667 64.666 -95.667 81.999 -135c18 -41.333 27.333 -80.666 28 -117.999
c0.666992 -24.667 -9.33301 -52.667 -30 -84c-10.667 -16 -24 -33 -40 -51z" />
    <glyph glyph-name="uni090B" unicode="&#x90b;" horiz-adv-x="1496" 
d="M-86 1220h1586l86 -115h-746v-370c18 -8 41.333 -14 70 -18c20 -4.66699 41.333 -7 64 -7c20 0 40.333 3.33301 61 10c20 6.66699 40.667 15.667 62 27c-8 11.333 -14 27.666 -18 48.999c-4.66699 21.333 -7 46 -7 74c0 16 7.66699 30.333 23 43
c14.667 12 31.667 18 51 18c34 0 69 -20.333 105 -61c36 -41.333 54 -82.333 54 -123c0 -24 -8 -45 -24 -63c-16.667 -18 -37 -29.667 -61 -35c78 -78 138.333 -154.333 181 -229c42 -74 63 -140.667 63 -200c0 -50 -17.667 -93 -53 -129c-36 -36 -79.333 -54 -130 -54
c-44 0 -89.333 17.333 -136 52c-46.667 35.333 -87 83.333 -121 144l61 37c26 -39.333 53.333 -69.666 82 -90.999s54.334 -32 77.001 -32c28 0 51.333 12 70 36c18.667 23.333 28 52.333 28 87c0 70 -61.333 192.333 -184 367c-18 -8 -36 -14 -54 -18
c-18 -4.66699 -36.667 -7 -56 -7c-102.667 0 -172 8.33301 -208 25v-637l-135 74v428l-490 -294l-73 123l563 306c-46 32.667 -93 57 -141 73c-48 16.667 -95 25 -141 25c-52 0 -102 -7.33301 -150 -22c-48.667 -14.667 -92.334 -36 -131.001 -64l-86 159
c112.667 41.333 214.667 62 306 62c49.333 0 103.333 -14 162 -42s119 -67.333 181 -118v395h-705z" />
    <glyph glyph-name="uni090C" unicode="&#x90c;" horiz-adv-x="1278" 
d="M893 180c32 38 89.002 111.999 171.002 221.999c41.333 54.667 62 111 62 169c0 40.667 -10.667 75.334 -32 104.001s-47.666 43 -78.999 43c-81.333 0 -152.333 -35 -213 -105c-60 -70 -95 -157.333 -105 -262l-135 61c21.333 82 41.666 143.333 60.999 184
c-26 39.333 -57.667 69.333 -95 90c-37.333 21.333 -75 32 -113 32c-50.667 0 -94 -20.333 -130 -61s-54 -89.667 -54 -147c0 -75.333 36 -155.666 108 -240.999c72 -86 171 -165 297 -237l-49 -73c-155.333 89.333 -278 187.666 -368 294.999
c-90 106.667 -135 208.334 -135 305.001c0 82 30 151.333 90 208c59.333 57.333 131.666 86 216.999 86c56.667 0 110 -15.667 160 -47c50 -30.667 90.333 -72 121 -124c34.667 50 73.667 89 117 117s86 42 128 42v264h-917l-86 115h1364l86 -115h-312v-277
c62 -16 104 -53.667 126 -113c38.667 -60 58 -128.333 58 -205c0 -66.667 -21.333 -136.334 -64 -209.001c-42 -73.333 -102.333 -142.333 -181 -207l3 -11c0 -2 -28.333 -37 -85 -105c-27.333 -32.667 -41 -62.667 -41 -90v-79c15.333 -22 34.333 -33 57 -33
c13.333 0 31.666 10 54.999 30c20 16.667 38.667 40 56 70l93 -17c-21.333 -60 -47 -102.667 -77 -128c-44.667 -37.333 -77.667 -56.333 -99 -57c-52 -1.33301 -95 5 -129 19l-30 16l-14 11c-19.333 17.333 -35.333 53 -48 107c-19.333 82 -14 139.667 16 173z" />
    <glyph glyph-name="uni090D" unicode="&#x90d;" horiz-adv-x="909" 
d="M467 1331c-66.667 0 -131 24.333 -193 73c-62.667 49.333 -112.667 114.666 -150 195.999l127 37c26.667 -31.333 69.334 -73.333 128.001 -126c23.333 -23.333 54.333 -34.333 93 -33c37.333 0 72 11.333 104 34c43.333 30.667 80.666 72.334 111.999 125.001l122 -74
c-32.667 -70 -80 -126.333 -142 -169c-62 -42 -129 -63 -201 -63zM984 -279l-135.002 98c24.667 34 37 58.333 37 73c0 2.66699 -16 28 -48 76c-16.667 26.667 -40.667 50.667 -72 72l-441 232c-69.333 53.333 -114.333 95.333 -135 126c-18 28.667 -27 64.334 -27 107.001
v600h-163l-86 115h994l86 -115h-194v-527c0 -42 -11.333 -76.333 -34 -103c-26 -31.333 -60.667 -47 -104 -47h-73l-95 114h98c19.333 0 36.333 9.33301 51 28c15.333 18.667 23 42 23 70v465h-368v-539c0 -48.667 17.667 -97.334 53 -146.001
c32.667 -44.667 80.334 -85.667 143.001 -123l368 -221c64 -38 111.667 -75 143 -111c34.667 -40 52.334 -76.333 53.001 -109c0 -20 -6.66699 -41.667 -20 -65c-13.333 -24 -31.333 -47.333 -54 -70z" />
    <glyph glyph-name="uni090E" unicode="&#x90e;" horiz-adv-x="909" 
d="M800 1220l107.997 0.000976562l86 -115h-194v-527c0 -42 -11.333 -76.333 -34 -103c-26 -31.333 -60.667 -47 -104 -47h-73l-95 114h98c19.333 0 36.333 9.33301 51 28c15.333 18.667 23 42 23 70v465h-368v-539c0 -48.667 17.667 -97.334 53 -146.001
c32.667 -44.667 80.334 -85.667 143.001 -123l368 -221c64 -38 111.667 -75 143 -111c34.667 -40 52.334 -76.333 53.001 -109c0 -20 -6.66699 -41.667 -20 -65c-13.333 -24 -31.333 -47.333 -54 -70l-135 98c24.667 34 37 58.333 37 73c0 2.66699 -16 28 -48 76
c-16.667 26.667 -40.667 50.667 -72 72l-441 232c-69.333 53.333 -114.333 95.333 -135 126c-18 28.667 -27 64.334 -27 107.001v600h-163l-86 115h751l-475 164c-60.667 21.333 -112.667 52.666 -156 93.999c-42 40.667 -69.667 85.334 -83 134.001
c-4.66699 17.333 -6.33398 34.666 -5.00098 51.999c0 4 0.333008 8 1 12c2.66699 21.333 9.33398 43.666 20.001 66.999l182 -65c-8 -14 -12.667 -31.333 -14 -52c-0.666992 -13.333 0 -27.333 2 -42c1.33301 -7.33301 3 -14.666 5 -21.999
c7.33301 -26.667 23 -51.667 47 -75c22.667 -22 52.334 -40 89.001 -54l354 -132l76 -33z" />
    <glyph glyph-name="uni090F" unicode="&#x90f;" horiz-adv-x="909" 
d="M984 -279l-135.002 98c24.667 34 37 58.333 37 73c0 2.66699 -16 28 -48 76c-16.667 26.667 -40.667 50.667 -72 72l-441 232c-69.333 53.333 -114.333 95.333 -135 126c-18 28.667 -27 64.334 -27 107.001v600h-163l-86 115h994l86 -115h-194v-527
c0 -42 -11.333 -76.333 -34 -103c-26 -31.333 -60.667 -47 -104 -47h-73l-95 114h98c19.333 0 36.333 9.33301 51 28c15.333 18.667 23 42 23 70v465h-368v-539c0 -48.667 17.667 -97.334 53 -146.001c32.667 -44.667 80.334 -85.667 143.001 -123l368 -221
c64 -38 111.667 -75 143 -111c34.667 -40 52.334 -76.333 53.001 -109c0 -20 -6.66699 -41.667 -20 -65c-13.333 -24 -31.333 -47.333 -54 -70z" />
    <glyph glyph-name="uni0910" unicode="&#x910;" horiz-adv-x="909" 
d="M800 1220h107.997l86 -115h-194v-527c0 -42 -11.333 -76.333 -34 -103c-26 -31.333 -60.667 -47 -104 -47h-73l-95 114h98c19.333 0 36.333 9.33301 51 28c15.333 18.667 23 42 23 70v465h-368v-539c0 -48.667 17.667 -97.334 53 -146.001
c32.667 -44.667 80.334 -85.667 143.001 -123l368 -221c64 -38 111.667 -75 143 -111c34.667 -40 52.334 -76.333 53.001 -109c0 -20 -6.66699 -41.667 -20 -65c-13.333 -24 -31.333 -47.333 -54 -70l-135 98c24.667 34 37 58.333 37 73c0 2.66699 -16 28 -48 76
c-16.667 26.667 -40.667 50.667 -72 72l-441 232c-69.333 53.333 -114.333 95.333 -135 126c-18 28.667 -27 64.334 -27 107.001v600h-163l-86 115h751l-245 343c-22.667 32 -47.667 56 -75 72c-28.667 17.333 -56.667 26 -84 26c-23.333 0 -44.666 -3.33301 -63.999 -10
s-35 -15.667 -47 -27l-110 160c20 16 40 28 60 36c20.667 8 41.667 12 63 12c50.667 0 100.667 -15 150 -45c88 -53.333 142.333 -95.333 163 -126l261 -385z" />
    <glyph glyph-name="uni0911" unicode="&#x911;" horiz-adv-x="1740" 
d="M1360 1329c-67.333 0 -132 24.335 -194 73.002c-62 49.333 -112 114.666 -150 195.999l128 37c26 -31.333 68.333 -73.333 127 -126c24 -23.333 55 -34.333 93 -33c38 0 73 11.333 105 34c42.667 31.333 79.667 73 111 125l122 -73
c-32.667 -70.667 -80 -127.334 -142 -170.001c-62 -42 -128.667 -63 -200 -63zM1503 1105l-174.998 0.000976562v-1105l-135 74v479c-20 -20 -42.667 -35 -68 -45c-26 -10.667 -52.667 -16 -80 -16c-34.667 0 -69 6 -103 18c-34 12.667 -65 31 -93 55
c16 -60 24 -92.667 24 -98c0 -82.667 -28.667 -152.334 -86 -209.001s-127 -85 -209 -85c-90 0 -183.333 38.333 -280 115c-96.667 77.333 -183.334 182 -260.001 314l74 50c56.667 -98.667 122.334 -176.667 197.001 -234s148 -86 220 -86
c57.333 0 106.666 20.333 147.999 61c40.667 41.333 61 90.666 61 147.999c0 28 -10 55.667 -30 83c-19.333 26.667 -46 48.334 -80 65.001c-30 -16.667 -62.333 -30.334 -97 -41.001c-36 -10.667 -73.667 -17.667 -113 -21l-61 123c90.667 8 166.667 35.333 228 82
s92 101.334 92 164.001c0 34 -14.667 63 -44 87c-28.667 23.333 -63.334 35 -104.001 35c-54 0 -106 -6 -156 -18c-50 -12.667 -96.333 -31 -139 -55l-110 135c42.667 24.667 87.667 43 135 55c47.333 12.667 96.333 19 147 19c75.333 0 159.666 -37.667 252.999 -113
s140 -144.333 140 -207c0 -34 -6.33301 -66.333 -19 -97c-13.333 -30.667 -31.666 -55.667 -54.999 -75c42.667 -36 85.667 -63.333 129 -82c42 -18.667 81 -28 117 -28c30.667 0 66 7.33301 106 22c38 14 76.667 35 116 63v369l-271 -1l-86 115h602h310l86 -115h-196v-1105
l-135 74v1031z" />
    <glyph glyph-name="uni0912" unicode="&#x912;" horiz-adv-x="1740" 
d="M1638 1220l110.001 0.00195312l86 -115h-196v-1105l-135 74v1031h-175v-1105l-135 74v479c-20 -20 -42.667 -35 -68 -45c-26 -10.667 -52.667 -16 -80 -16c-34.667 0 -69 6 -103 18c-34 12.667 -65 31 -93 55c16 -60 24 -92.667 24 -98
c0 -82.667 -28.667 -152.334 -86 -209.001s-127 -85 -209 -85c-90 0 -183.333 38.333 -280 115c-96.667 77.333 -183.334 182 -260.001 314l74 50c56.667 -98.667 122.334 -176.667 197.001 -234s148 -86 220 -86c57.333 0 106.666 20.333 147.999 61
c40.667 41.333 61 90.666 61 147.999c0 28 -10 55.667 -30 83c-19.333 26.667 -46 48.334 -80 65.001c-30 -16.667 -62.333 -30.334 -97 -41.001c-36 -10.667 -73.667 -17.667 -113 -21l-61 123c90.667 8 166.667 35.333 228 82s92 101.334 92 164.001
c0 34 -14.667 63 -44 87c-28.667 23.333 -63.334 35 -104.001 35c-54 0 -106 -6 -156 -18c-50 -12.667 -96.333 -31 -139 -55l-110 135c42.667 24.667 87.667 43 135 55c47.333 12.667 96.333 19 147 19c75.333 0 159.666 -37.667 252.999 -113s140 -144.333 140 -207
c0 -34 -6.33301 -66.333 -19 -97c-13.333 -30.667 -31.666 -55.667 -54.999 -75c42.667 -36 85.667 -63.333 129 -82c42 -18.667 81 -28 117 -28c30.667 0 66 7.33301 106 22c38 14 76.667 35 116 63v369l-271 -1l-86 115h602h65l-475 164
c-60.667 21.333 -112.667 52.666 -156 93.999c-42 40.667 -69.667 85.334 -83 134.001c-4.66699 17.333 -6.33398 34.666 -5.00098 51.999c0 4 0.333008 8 1 12c2.66699 21.333 9.33398 43.666 20.001 66.999l182 -65c-8 -14 -12.667 -31.333 -14 -52
c-0.666992 -13.333 0 -27.333 2 -42c1.33301 -7.33301 3 -14.666 5 -21.999c7.33301 -26.667 23 -51.667 47 -75c22.667 -22 52.334 -40 89.001 -54l354 -132l76 -33z" />
    <glyph glyph-name="uni0913" unicode="&#x913;" horiz-adv-x="1749" 
d="M1498 1220l-239.997 343.001c-22 31.333 -47 55.333 -75 72c-32.667 20 -59 29 -79 27c-2 0 -3.66699 -0.333008 -5 -1c-30 -6.66699 -51.333 -10 -64 -10c-30.667 0 -46.334 -9 -47.001 -27l-110 160c20.667 20 40.667 32 60 36c38.667 8 59.667 12 63 12
c50.667 0 100.667 -15 150 -45c88 -53.333 142.333 -95.333 163 -126l261 -385l63 -56h110l86 -115h-196v-1105l-135 74v1031h-175v-1105l-135 74v479c-20 -20 -42.667 -35 -68 -45c-26 -10.667 -52.667 -16 -80 -16c-34.667 0 -69 6 -103 18c-34 12.667 -65 31 -93 55
c16 -60 24 -92.667 24 -98c0 -82.667 -28.667 -152.334 -86 -209.001s-127 -85 -209 -85c-90 0 -183.333 38.333 -280 115c-96.667 77.333 -183.334 182 -260.001 314l74 50c56.667 -98.667 122.334 -176.667 197.001 -234s148 -86 220 -86
c57.333 0 106.666 20.333 147.999 61c40.667 41.333 61 90.666 61 147.999c0 28 -10 55.667 -30 83c-19.333 26.667 -46 48.334 -80 65.001c-30 -16.667 -62.333 -30.334 -97 -41.001c-36 -10.667 -73.667 -17.667 -113 -21l-61 123c90.667 8 166.667 35.333 228 82
s92 101.334 92 164.001c0 34 -14.667 63 -44 87c-28.667 23.333 -63.334 35 -104.001 35c-54 0 -106 -6 -156 -18c-50 -12.667 -96.333 -31 -139 -55l-110 135c42.667 24.667 87.667 43 135 55c47.333 12.667 96.333 19 147 19c75.333 0 159.666 -37.667 252.999 -113
s140 -144.333 140 -207c0 -34 -6.33301 -66.333 -19 -97c-13.333 -30.667 -31.666 -55.667 -54.999 -75c42.667 -36 85.667 -63.333 129 -82c42 -18.667 81 -28 117 -28c30.667 0 66 7.33301 106 22c38 14 76.667 35 116 63v369l-271 -1l-86 115h662z" />
    <glyph glyph-name="uni0914" unicode="&#x914;" horiz-adv-x="1749" 
d="M1658 1220l90.0039 0.00195312l86 -115h-196v-1105l-135 74v1031h-175v-1105l-135 74v479c-20 -20 -42.667 -35 -68 -45c-26 -10.667 -52.667 -16 -80 -16c-34.667 0 -69 6 -103 18c-34 12.667 -65 31 -93 55c16 -60 24 -92.667 24 -98
c0 -82.667 -28.667 -152.334 -86 -209.001s-127 -85 -209 -85c-90 0 -183.333 38.333 -280 115c-96.667 77.333 -183.334 182 -260.001 314l74 50c56.667 -98.667 122.334 -176.667 197.001 -234s148 -86 220 -86c57.333 0 106.666 20.333 147.999 61
c40.667 41.333 61 90.666 61 147.999c0 28 -10 55.667 -30 83c-19.333 26.667 -46 48.334 -80 65.001c-30 -16.667 -62.333 -30.334 -97 -41.001c-36 -10.667 -73.667 -17.667 -113 -21l-61 123c90.667 8 166.667 35.333 228 82s92 101.334 92 164.001
c0 34 -14.667 63 -44 87c-28.667 23.333 -63.334 35 -104.001 35c-54 0 -106 -6 -156 -18c-50 -12.667 -96.333 -31 -139 -55l-110 135c42.667 24.667 87.667 43 135 55c47.333 12.667 96.333 19 147 19c75.333 0 159.666 -37.667 252.999 -113s140 -144.333 140 -207
c0 -34 -6.33301 -66.333 -19 -97c-13.333 -30.667 -31.666 -55.667 -54.999 -75c42.667 -36 85.667 -63.333 129 -82c42 -18.667 81 -28 117 -28c30.667 0 66 7.33301 106 22c38 14 76.667 35 116 63v369l-271 -1l-86 115h667l-279 174l-171 116
c-41.333 28 -71.333 45 -90 51c-32.667 8.66699 -62.334 9.66699 -89.001 3c-24 -6.66699 -43.667 -15.334 -59 -26.001c-26 -19.333 -38.667 -32 -38 -38l-147 125c14 24.667 30 41.667 48 51c35.333 18 54.333 27.333 57 28c32.667 8.66699 66.667 11 102 7
c18 -2.66699 36.333 -6.66699 55 -12c88 -25.333 151.667 -52 191 -80l241 -169l173 -148l-162 355c-15.333 34 -35.666 62 -60.999 84c-24.667 22 -50.667 35.333 -78 40c-18.667 3.33301 -35.334 4.33301 -50.001 3c-5.33301 0 -10.333 -0.666992 -15 -2
c-32.667 -6 -49.334 -12 -50.001 -18l-81 176c23.333 16.667 45 25.334 65 26.001l64 1c50 -8.66699 96.667 -32.334 140 -71.001c80 -70 126.333 -121 139 -153l86 -214l72 -209z" />
    <glyph glyph-name="uni0915" unicode="&#x915;" horiz-adv-x="1351" 
d="M60 632c0 75.333 26 138.999 78 190.999c52.667 52.667 116.334 79 191.001 79c60.667 0 120.334 -17.333 179.001 -52c58.667 -34 109.334 -82 152.001 -144v399h-660l-86 115h1437l86 -115h-642v-399c16.667 15.333 59 36.333 127 63c38 14.667 73.333 22 106 22
c70 0 130.333 -34.667 181 -104s76 -153 76 -251c0 -60.667 -10.667 -119 -32 -175c-21.333 -56.667 -51.666 -108.667 -90.999 -156l-110 123c47.333 56.667 83.666 109.334 108.999 158.001c25.333 48 38 89.333 38 124c0 44 -14.333 81.333 -43 112
c-28.667 31.333 -63.334 47 -104.001 47c-50.667 0 -136.334 -50.667 -257.001 -152v-522l-135 73v380c-42.667 -42 -86.334 -75 -131.001 -99c-44.667 -23.333 -86.667 -35 -126 -35c-118 0 -199 23.333 -243 70c-66.667 71.333 -100 154 -100 248zM333 420.999
c42.667 0 93.002 17 151.002 51s118 82.333 180 145c-47.333 38.667 -94.333 68.667 -141 90s-89.334 32 -128.001 32c-64 0 -119 -15.667 -165 -47c-45.333 -30.667 -68 -68 -68 -112s16.667 -81.667 50 -113c33.333 -30.667 73.666 -46 120.999 -46z" />
    <glyph glyph-name="uni0916" unicode="&#x916;" horiz-adv-x="1424" 
d="M785 24c-70 0 -145.666 21.333 -226.999 64c-80.667 42.667 -160 103.334 -238 182.001c-78.667 78 -139.334 151 -182.001 219c-42.667 67.333 -64 125 -64 173c0 12.667 7.66699 24 23 34c14.667 9.33301 31.667 14 51 14c-1.33301 0 12.667 -5.33301 42 -16l56 -20
c8 6.66699 14 20.334 18 41.001c4 21.333 6 48.333 6 81v176c4 17.333 5 33.666 3 48.999c-0.666992 8 -2.33398 15.667 -5.00098 23c-10.667 28.667 -28 49 -52 61h-216l-86 115h1508l86 -115h-236v-1105l-95 74v110c-73.333 -52.667 -143.666 -92.334 -210.999 -119.001
c-66.667 -27.333 -127 -41 -181 -41zM736.001 147c94.667 0 180.335 15 257.002 45c76.667 30.667 138 72.667 184 126v148c-36 -36 -72.667 -63.667 -110 -83c-38 -18.667 -75 -28 -111 -28c-100.667 0 -187 32.333 -259 97s-108 142.667 -108 234
c0 66.667 28.667 124.334 86 173.001c57.333 48 126.666 72 207.999 72c47.333 0 96.666 -15 147.999 -45c51.333 -30.667 100 -72.667 146 -126v342l-845 2c24.667 -6.66699 43.334 -21.334 56.001 -44.001c9.33301 -16.667 15.333 -42 18 -76v-249
c0 -66.667 -10.667 -120.667 -32 -162c-26.667 -48.667 -53 -86 -79 -112c55.333 -96.667 122.666 -173 201.999 -229c79.333 -56.667 159 -85 239 -85zM858.002 466c59.333 0 116.999 15.998 172.999 47.998c56.667 33.333 105.334 78.333 146.001 135v42
c-46 37.333 -89.667 66.333 -131 87c-42 20 -80 30 -114 30c-64 0 -118.667 -16.667 -164 -50c-46 -33.333 -69 -73.666 -69 -120.999s15.667 -87.666 47 -120.999c30.667 -33.333 68 -50 112 -50z" />
    <glyph glyph-name="uni0917" unicode="&#x917;" horiz-adv-x="983" 
d="M325 416c-47.333 0 -99.999 26.333 -157.999 79c-58 52 -87 99.333 -87 142c0 16 8.33301 30.333 25 43c17.333 12 37.666 18 60.999 18h85v407h-251l-86 115h1060l86 -115h-196v-1105l-135 74v1031h-343v-615c0 -19.333 -6.16699 -36.5 -18.5 -51.5
s-26.5 -22.5 -42.5 -22.5z" />
    <glyph glyph-name="uni0918" unicode="&#x918;" horiz-adv-x="1066" 
d="M135 637c0 31.333 11 61.001 33 89.001c22 28.667 52 52 90 70c-46 26 -82 58 -108 96c-30.667 43.333 -44.334 78.666 -41.001 105.999c0.666992 2 1 4 1 6c5.33301 22.667 8.66602 40 9.99902 52c2 16 27.333 32.333 76 49h-196l-86 115h1152l86 -115h-196v-1105
l-135 74v392c-39.333 -48 -82.666 -84.667 -129.999 -110s-93.666 -38 -138.999 -38c-114.667 0 -212.667 31.333 -294 94c-82 62 -123 137 -123 225zM454 416.001c66.667 0 133.002 23.001 199.002 69.001s122 109 168 189v428h-490c-29.333 -11.333 -53 -28 -71 -50
s-27 -46 -27 -72c0 -22.667 10.667 -48.334 32 -77.001s51.666 -56 90.999 -82c30.667 8 59 12 85 12c20 0 37.333 -1.33301 52 -4c14.667 -2 26 -4.66699 34 -8l49 -147c-14.667 8 -32.334 14 -53.001 18c-20 4 -43 6 -69 6c-54 0 -100.333 -14.333 -139 -43
c-38 -28 -57 -62.667 -57 -104c0 -37.333 19 -69 57 -95c38.667 -26.667 85 -40 139 -40z" />
    <glyph glyph-name="uni0919" unicode="&#x919;" horiz-adv-x="1340" 
d="M701 0c-96.667 0 -202.001 43.667 -316.001 131c-114.667 86 -225.667 206 -333 360l61 49c86.667 -122.667 177.334 -218.667 272.001 -288s183.667 -104 267 -104c70 0 129.667 20.333 179 61c48.667 40.667 73 89.667 73 147c0 29.333 -12.667 54.333 -38 75
c-25.333 20 -56 30 -92 30c-27.333 0 -68 -7.33301 -122 -22s-94.667 -22 -122 -22c-66 0 -131.333 38.333 -196 115c-65.333 77.333 -98 153.333 -98 228c0 47.333 19 88 57 122c38.667 33.333 85 50 139 50h318v173h-750l-86 115h1431l86 -115h-546v-320h-380
c-40.667 0 -75.334 -12 -104.001 -36c-28.667 -23.333 -43 -52.333 -43 -87c0 -27.333 14.333 -50.666 43 -69.999c28.667 -18.667 63.334 -28 104.001 -28c26 0 64.667 6.33301 116 19c52 12 91 18 117 18c55.333 0 114 -35 176 -105c62 -70.667 93 -137.667 93 -201
c0 -82 -29.667 -151.667 -89 -209c-60 -56.667 -132.333 -85.334 -217 -86.001zM1093 552l-135 135l135 147l135 -147z" />
    <glyph glyph-name="uni091A" unicode="&#x91a;" horiz-adv-x="1223" 
d="M292 564c0 27.333 6.33398 53.668 19.001 79.001c13.333 25.333 31.333 47.666 54 66.999h-233l-86 135h772l86 -135h-343c-37.333 -20.667 -67 -46.667 -89 -78c-22.667 -30.667 -34 -61.667 -34 -93c0 -44 14.333 -81.5 43 -112.5s63.667 -46.5 105 -46.5
c60 0 122.333 18.333 187 55s124.667 87.667 180 153v517h-953l-86 115h1308l86 -115h-220v-1105l-135 74v330c-52 -44 -103.333 -77.333 -154 -100s-97.334 -34 -140.001 -34c-75.333 0 -155.333 33.667 -240 101c-84.667 68 -127 132.333 -127 193z" />
    <glyph glyph-name="uni091B" unicode="&#x91b;" horiz-adv-x="1274" 
d="M651 20c-96.667 0 -194.332 32.668 -292.999 98.001s-148 130.666 -148 195.999c0 36 6.66699 68.333 20 97c12.667 28.667 30.667 49.334 54 62.001c-60.667 28 -108.667 62 -144 102c-34.667 40 -52 79.667 -52 119c0 60 26 111.667 78 155s115.667 65 191 65
c34 0 64.667 -1.66699 92 -5c26.667 -3.33301 49 -8 67 -14l62 -140c-44.667 16.667 -77.334 25 -98.001 25c-70.667 0 -131.334 -13.333 -182.001 -40c-50.667 -26 -76 -57.667 -76 -95c0 -18 9.83301 -38.833 29.5 -62.5s46.5 -47.834 80.5 -72.501
c52.667 24.667 126.334 37 221.001 37l86 -147h-135c-40.667 0 -75.334 -13 -104.001 -39c-28.667 -26.667 -43 -58.667 -43 -96s19.333 -69.333 58 -96c38 -26 84 -39 138 -39c93.333 0 178.333 19.667 255 59s134.667 93.333 174 162
c-93.333 44 -167.666 97.667 -222.999 161c-55.333 64 -83 128.667 -83 194c0 58.667 16 110 48 154c33.333 44 78.333 70.333 135 79v166h-859l-86 115h1360l86 -115h-366v-179c68.667 -38.667 122.667 -86.667 162 -144c38.667 -57.333 58 -115.333 58 -174
c0 -162 -55 -300.333 -165 -415c-110 -115.333 -242.667 -173 -398 -173zM1006 412.001c28 32.667 49.333 70.332 64 112.999c14.667 42 22 86 22 132c0 50.667 -12 94 -36 130c-23.333 36 -52 54 -86 54c-38 0 -70 -15.667 -96 -47c-26 -30.667 -39 -68 -39 -112
c0 -48 15 -95.667 45 -143s72 -89.666 126 -126.999z" />
    <glyph glyph-name="uni091C" unicode="&#x91c;" horiz-adv-x="1227" 
d="M67 747l73.001 48.998c57.333 -122.667 122.666 -220.667 195.999 -294c74 -73.333 143.667 -110 209 -110c30.667 0 56.667 12 78 36c21.333 23.333 32 52 32 86c0 54 -29 108 -87 162s-135.333 98 -232 132l13 50h600v247h-949l-86 115h1304l86 -115h-220v-1105
l-135 74v636h-319c54 -45.333 96.333 -91.666 127 -138.999c30 -47.333 45 -90.666 45 -129.999c0 -60.667 -21.667 -112.667 -65 -156s-95 -65 -155 -65c-82 0 -169.667 48 -263 144c-92.667 95.333 -176.667 223 -252 383z" />
    <glyph glyph-name="uni091D" unicode="&#x91d;" horiz-adv-x="1214" 
d="M626 -196l-219.998 244.999c-75.333 0 -139 18 -191 54c-52.667 36 -79 79.333 -79 130c0 22.667 8.66699 42.667 26 60c17.333 16.667 37.333 25 60 25c18 0 41 -10.333 69 -31c27.333 -21.333 57.666 -51.666 90.999 -90.999c78 0 144.333 19.333 199 58
c54.667 38 82 84 82 138c0 22.667 -8.33301 42.667 -25 60c-17.333 17.333 -37.333 26 -60 26c-16.667 0 -41.334 -4 -74.001 -12c-32.667 -8.66699 -57.334 -13 -74.001 -13c-64.667 0 -134 41 -208 123c-73.333 81.333 -110 158.666 -110 231.999
c0 41.333 20.333 76.333 61 105c40.667 28 89.667 42.333 147 43h220v149h-540l-86 115h1300l86 -115h-212v-1105l-143 74v465c-19.333 -19.333 -39.666 -34.333 -60.999 -45s-42 -16 -62 -16c-19.333 0 -39.333 3.33301 -60 10c-20 6 -40.667 14.667 -62 26
c16.667 -22.667 29 -46.667 37 -72s12 -50 12 -74c0 -68.667 -25 -131.667 -75 -189c-49.333 -57.333 -114 -96.666 -194 -117.999l220 -183zM357.002 575.999c19.333 0 48.001 8 86.001 24c37.333 16.667 65.666 25 84.999 25c23.333 0 46.333 -3.33301 69 -10
s44.667 -15.667 66 -27c54 0 105 8.66699 153 26c48.667 16.667 91.667 40.667 129 72v416h-269v-294h-294c-41.333 0 -76.333 -9.33301 -105 -28s-43 -42 -43 -70c0 -37.333 12 -69 36 -95s53 -39 87 -39z" />
    <glyph glyph-name="uni091E" unicode="&#x91e;" horiz-adv-x="1218" 
d="M945 546c-0.666992 -32.667 -19.335 -56.335 -56.002 -71.002c-21.333 -8 -43.666 -12 -66.999 -12c-30.667 0 -58 7 -82 21c-23.333 14 -36.666 31.667 -39.999 53c-21.333 -80.667 -59.333 -145.667 -114 -195c-54.667 -50 -114.667 -75 -180 -75
c-88 0 -175 29.333 -261 88s-158.333 139.667 -217 243l62 49c53.333 -76.667 110.333 -136.667 171 -180s117.667 -65 171 -65c67.333 0 125 21.667 173 65c48.667 43.333 73 95 73 155c0 34.667 -10.667 63.667 -32 87c-21.333 24 -47.666 36 -78.999 36
c-22.667 0 -48.334 -10.667 -77.001 -32s-56 -51.666 -82 -90.999l-135 135c24.667 34 56.667 61 96 81c39.333 19.333 81 29 125 29c39.333 0 76 -6.33301 110 -19c34 -13.333 62.667 -31.333 86 -54c30.667 -31.333 54.667 -59.666 72 -84.999s26 -46 26 -62
c8 -14.667 21 -26.667 39 -36c18 -8.66699 37.667 -13 59 -13c22.667 0 48 6 76 18c14 6.66699 41.667 26 83 58v431h-412h-533l-86 115h1300l86 -115h-220v-1105l-135 74v472z" />
    <glyph glyph-name="uni091F" unicode="&#x91f;" horiz-adv-x="928" 
d="M0 1105l-86 115h1016l86 -115h-325v-333c0 -28 -8.33301 -52.333 -25 -73c-16 -20 -36.333 -32.333 -61 -37c-117.333 0 -216 -30 -296 -90c-80 -50 -120 -106 -120 -168c0 -66.667 27.333 -124 82 -172c54.667 -48.667 121 -73 199 -73c45.333 0 104.333 11.667 177 35
c72.667 22.667 127.667 52 165 88l75 -135c-57.333 -39.333 -113 -69.666 -167 -90.999c-53.333 -21.333 -104 -32 -152 -32c-138.667 0 -257 46.667 -355 140s-147 206 -147 338c0 60.667 38 117.667 114 171c82 56.667 178.667 93.667 290 111
c21.333 3.33301 39 10.666 53 21.999c15.333 12 23 25 23 39v260h-546z" />
    <glyph glyph-name="uni0920" unicode="&#x920;" horiz-adv-x="1019" 
d="M540 27c-117.333 0 -230.331 47.666 -338.998 142.999c-108.667 96 -163 195.333 -163 298c0 76.667 36.333 144.334 109 203.001c71.333 58 161.666 92.333 270.999 103c49.333 5.33301 94.666 23.333 135.999 54c40 31.333 60 66.666 60 105.999
c0 30.667 -5.33301 61 -16 91c-10.667 30.667 -26 57.334 -46 80.001h-552l-86 115h1106l96 -115h-429c24.667 -28 43 -56.667 55 -86s18 -57.666 18 -84.999c0 -50.667 -5 -95.334 -15 -134.001c-10.667 -38.667 -26 -67.667 -46 -87c72 -40.667 129 -87.667 171 -141
c41.333 -52.667 62 -103.667 62 -153c0 -108 -38.333 -200.333 -115 -277s-169 -115 -277 -115zM466.002 161.999c116 0 194 21.667 234 65c48.667 52.667 73 124.334 73 215.001c0 51.333 -14.333 88.666 -43 111.999l-95 75c-182 0 -296.667 -20 -344 -60
c-56 -49.333 -84 -108.333 -84 -177c0 -60 31 -111.667 93 -155s117.333 -65 166 -65v-10z" />
    <glyph glyph-name="uni0921" unicode="&#x921;" horiz-adv-x="1094" 
d="M707 20c-106 0 -217.331 40.667 -333.998 122c-117.333 82 -226.333 195 -327 339l68 41c78.667 -110.667 165.667 -197.667 261 -261c95.333 -62.667 189.666 -94 282.999 -94c70 0 130.333 19.333 181 58c50.667 38 76 84 76 138c0 22.667 -10.667 42.667 -32 60
c-20.667 17.333 -46.667 26 -78 26c-28 0 -68.833 -8.16699 -122.5 -24.5s-94.5 -24.5 -122.5 -24.5c-66.667 0 -134.334 39.667 -203.001 119c-68.667 78.667 -103 157.334 -103 236.001c0 47.333 19 87.666 57 120.999c38.667 33.333 85 50 139 50h306v179h-756l-86 115
h1185l86 -115h-294v-325h-380c-37.333 0 -69.333 -9.66699 -96 -29c-26 -18.667 -39 -41.667 -39 -69c0 -38 10.667 -70 32 -96s47.333 -39 78 -39c30 0 73 8 129 24c56.667 16.667 99.667 25 129 25c58.667 0 123.667 -37.667 195 -113c70.667 -75.333 106 -144 106 -206
c0 -70 -33 -130.333 -99 -181s-145.667 -76 -239 -76z" />
    <glyph glyph-name="uni0922" unicode="&#x922;" horiz-adv-x="980" 
d="M652 20c-145.333 0 -279.667 59.334 -403 178.001c-123.333 118 -185 246.667 -185 386c0 88 36 163 108 225s158.667 93 260 93h269v203h-701l-86 115h1066l86 -115h-230v-350h-306c-92 0 -170 -21.667 -234 -65c-64.667 -43.333 -97 -95.333 -97 -156
c0 -102.667 30.667 -191.667 92 -267c60.667 -74.667 136 -116.334 226 -125.001c-24.667 34.667 -43 72 -55 112s-18 80.333 -18 121c0 60.667 21.667 112.667 65 156s95 65 155 65c76.667 0 142 -30 196 -90c54 -59.333 81 -131.333 81 -216
c0 -75.333 -28 -139.333 -84 -192c-56.667 -52 -125 -78 -205 -78zM577.999 130.001c70.667 -12.667 133.334 1.99707 188.001 43.9971c54.667 42.667 82 97.334 82 164.001c0 34.667 -14.333 63.667 -43 87c-28.667 24 -63.334 36 -104.001 36
c-44 0 -81.667 -16.667 -113 -50c-30.667 -33.333 -46 -73.666 -46 -120.999c0 -31.333 3.33301 -60.333 10 -87c6 -27.333 14.667 -51.666 26 -72.999z" />
    <glyph glyph-name="uni0923" unicode="&#x923;" horiz-adv-x="1016" 
d="M76 840l0.000976562 265h-76l-86 115h1100l86 -115h-176v-1105l-135 74v1031l-175 -3v-514c0 -64 -22.667 -118.667 -68 -164c-34.667 -34.667 -85.334 -57.667 -152.001 -69c-100 -16.667 -182.333 18.333 -247 105c-54.667 73.333 -79 144 -73 212l2 14v154z
M332.001 478c41.333 0 76 13 104 39c28.667 26 43 57.667 43 95v490h-267v-465c0 -44 11.667 -81.667 35 -113c24 -30.667 52.333 -46 85 -46z" />
    <glyph glyph-name="uni0924" unicode="&#x924;" horiz-adv-x="899" 
d="M91 671c14 40.667 33.001 71.667 57.001 93c80.667 70.667 151 106 211 106h294v235h-653l-86 115h986l86 -115h-198v-1105l-135 74v661h-245c-60.667 0 -112.667 -19.333 -156 -58c-42.667 -38 -64 -84 -64 -138c0 -70 22.333 -146.667 67 -230s108 -166 190 -248
l-61 -49c-140.667 140.667 -225.334 247.667 -254.001 321c-36 92.667 -54 165.667 -54 219z" />
    <glyph glyph-name="uni0925" unicode="&#x925;" horiz-adv-x="1106" 
d="M704 1102l-86.002 117.997h482l86 -115h-224v-1105l-135 74v342c-47.333 -47.333 -97.666 -83.666 -150.999 -108.999c-52.667 -24.667 -104.334 -37 -155.001 -37c-94.667 0 -182.667 31.333 -264 94c-80.667 62.667 -139.667 145.334 -177 248.001
c56.667 0 111.334 9.66699 164.001 29c52 18.667 99.333 46 142 82c-101.333 27.333 -183.666 71.666 -246.999 132.999c-64 61.333 -96 127.333 -96 198c0 53.333 23 99.333 69 138c45.333 38.667 100 58 164 58c84.667 0 163 -36 235 -108s108 -150.667 108 -236
c0 -97.333 -36.333 -182.666 -109 -255.999c-72.667 -72.667 -163 -113.667 -271 -123c11.333 -39.333 37.333 -71.666 78 -96.999c41.333 -25.333 89 -38 143 -38c70 0 137.667 22 203 66s120 103.667 164 179v468zM422.998 771.997c27.333 22.667 48.333 48 63 76
c14.667 27.333 22 55 22 83c0 60.667 -16.667 112.667 -50 156s-73.666 65 -120.999 65c-40.667 0 -75.334 -14.333 -104.001 -43s-43 -63.667 -43 -105c0 -50 21.667 -96.667 65 -140s99.333 -74 168 -92z" />
    <glyph glyph-name="uni0926" unicode="&#x926;" horiz-adv-x="871" 
d="M0 1105l-86.0039 114.999h957l86 -115h-211v-426h-294c-70 0 -130.333 -21.667 -181 -65s-76 -95 -76 -155c0 -98 26 -168.667 78 -212c52.667 -43.333 116.334 -65 191.001 -65c20 0 39.333 3.33301 58 10s36.334 15.667 53.001 27
c-11.333 14.667 -20.333 32.334 -27 53.001c-6.66699 20 -10 43.333 -10 70c0 16 9.33301 30 28 42c18.667 12.667 42 19 70 19c32.667 0 67.334 -21.333 104.001 -64s55 -82.667 55 -120c0 -19.333 -7.66699 -39 -23 -59c-15.333 -19.333 -36 -36.333 -62 -51l122 -233
l-110 -49l-86 257c-18 -8 -39.333 -14 -64 -18c-24 -4 -51.667 -6 -83 -6c-91.333 0 -183.666 46.333 -276.999 139c-93.333 93.333 -140 204.333 -140 333c0 82 33.667 151.333 101 208c66.667 57.333 147.667 86 243 86h196v279h-562h-50z" />
    <glyph glyph-name="uni0927" unicode="&#x927;" horiz-adv-x="1072" 
d="M139 564c0 37.333 12.333 71.332 37 101.999c24.667 31.333 57.334 54.333 98.001 69c-76.667 28 -138.667 73.333 -186 136s-71.333 131.667 -72 207c0 54 20.667 100 62 138c40.667 38.667 89.667 58 147 58c63.333 0 118 -19.333 164 -58c46 -38 69 -84 69 -138
c0 -47.333 -17 -87.666 -51 -120.999c-33.333 -34 -73.666 -51 -120.999 -51c-21.333 0 -42 4.33301 -62 13c-20.667 8 -40.667 20.333 -60 37c8 -42.667 28.333 -81.667 61 -117s73.334 -61.666 122.001 -78.999c93.333 16 154.666 24 183.999 24l73 -122
c-94.667 0 -175.334 -14.333 -242.001 -43s-100 -63.667 -100 -105c0 -40.667 16.667 -75.334 50 -104.001c33.333 -28 73.666 -42 120.999 -42c58.667 0 127.667 21.333 207 64c77.333 43.333 139 100.666 185 171.999v501h-208l-86 115h541l86 -115h-198v-1105l-135 74
v318c-47.333 -39.333 -98.333 -69.666 -153 -90.999c-54.667 -20.667 -110 -31 -166 -31c-100.667 0 -187 28.333 -259 85c-72 57.333 -108 127 -108 209zM262 979.999c30.667 0 56.667 9.33301 78 28s32 42 32 70c0 34 -10.667 63 -32 87c-21.333 23.333 -47.333 35 -78 35
c-31.333 0 -57.666 -11.667 -78.999 -35c-21.333 -24 -32 -53 -32 -87c0 -28 10.667 -51.333 32 -70s47.666 -28 78.999 -28z" />
    <glyph glyph-name="uni0928" unicode="&#x928;" horiz-adv-x="912" 
d="M69 637c0 19.333 9.33301 36.333 28 51s42 22 70 22h490v392h-654l-110 123h1009l110 -123h-208v-1102l-147 74v502h-319v-147c0 -16.667 -4.66699 -31 -14 -43c-10 -12 -21.333 -18 -34 -18c-36 0 -82 33.667 -138 101c-55.333 67.333 -83 123.333 -83 168z" />
    <glyph glyph-name="uni0929" unicode="&#x929;" horiz-adv-x="912" 
d="M237 17l-135 135l135 147l135 -147zM69 637c0 19.333 9.33301 36.333 28 51s42 22 70 22h490v392h-654l-110 123h1009l110 -123h-208v-1102l-147 74v502h-319v-147c0 -16.667 -4.66699 -31 -14 -43c-10 -12 -21.333 -18 -34 -18c-36 0 -82 33.667 -138 101
c-55.333 67.333 -83 123.333 -83 168z" />
    <glyph glyph-name="uni092A" unicode="&#x92a;" horiz-adv-x="901" 
d="M82 723l-0.000976562 381.998h-82l-86 115h986l86 -115h-230v-1105l-135 74v404c-28 -24.667 -59 -43 -93 -55c-17.333 -6 -51.666 -12.333 -102.999 -19c-68.667 -8 -130.667 8 -186 48c-28 20.667 -54.333 47.334 -79 80.001c-58 76.667 -84 140.334 -78 191.001z
M375.999 513.998c58 -1.33301 105.999 7.33301 143.999 26c49.333 24.667 83 52.667 101 84v478h-404v-440c0 -33.333 18.333 -68.333 55 -105c28.667 -28.667 63.334 -43 104.001 -43z" />
    <glyph glyph-name="uni092B" unicode="&#x92b;" horiz-adv-x="1288" 
d="M110 747l0.00195312 358h-110l-86 115h1372l86 -115h-624v-401c84.667 49.333 154 74 208 74c102.667 0 176.667 -37.667 222 -113c48 -79.333 72 -154 72 -224c0 -47.333 -14.667 -98.333 -44 -153s-72 -110 -128 -166l-122 98c54 46 96 93.667 126 143
c30.667 48.667 46 95 46 139c0 41.333 -12 76 -36 104c-24 28.667 -53 43 -87 43c-58.667 0 -144.334 -32.667 -257.001 -98v-551l-135 74v404c-22.667 -20 -50 -35.333 -82 -46s-66 -16 -102 -16c-81.333 0 -153 37 -215 111c-46.667 56.667 -81.334 130 -104.001 220z
M368.002 551c50.667 0 91.333 5.33301 122 16c42.667 14.667 83.667 36 123 64v474h-367v-419c0 -37.333 11.667 -69.333 35 -96c24 -26 53 -39 87 -39z" />
    <glyph glyph-name="uni092C" unicode="&#x92c;" horiz-adv-x="971" 
d="M27 612c0 82 32.334 151.666 97.001 208.999c64 56.667 142 85 234 85c62 0 124.333 -12.333 187 -37c62.667 -25.333 122.667 -61.666 180 -108.999v345h-725l-86 115h1057l86 -115h-197v-1105l-135 74v379c-48.667 -58.667 -104.334 -104 -167.001 -136
c-62 -31.333 -124.667 -47 -188 -47c-80 0 -157.333 37 -232 111c-74 74 -111 151 -111 231zM333.001 391.999c66.667 0 111.667 4.00098 135 12.001l-208 343c-38 -18 -68 -43.333 -90 -76s-33 -68.334 -33 -107.001c0 -48 19.333 -88.667 58 -122
c38 -33.333 84 -50 138 -50zM566.001 441c48.667 22.667 87.332 49.667 115.999 81c28.667 30.667 43 60.667 43 90c0 48 -28.667 88.667 -86 122s-126.666 50 -207.999 50c-10 0 -30.333 -4 -61 -12z" />
    <glyph glyph-name="uni092D" unicode="&#x92d;" horiz-adv-x="1112" 
d="M163 576c0 9.33301 6.00098 17.667 18.001 25c12.667 7.33301 27 11 43 11h110v148c-94.667 24 -171.334 63.333 -230.001 118s-88 113.334 -88 176.001c0 47.333 19.333 87.666 58 120.999c38 33.333 84 50 138 50c44 0 100 -35.667 168 -107
c68 -70.667 102 -129 102 -175v-347h349v509h-190l-86 115h559l86 -115h-234v-1105l-135 74v408h-349v-127c0 -16 -5 -30.333 -15 -43c-10 -12 -21.667 -18 -35 -18c-44 0 -99.667 35.667 -167 107c-68 70.667 -102 129 -102 175zM334.001 833.001v171
c0 28 -8.33301 51.333 -25 70c-17.333 18.667 -37.333 28 -60 28c-23.333 0 -43.333 -9.33301 -60 -28c-17.333 -18.667 -26 -42 -26 -70c0 -32 15.667 -64 47 -96c30.667 -32 72 -57 124 -75z" />
    <glyph glyph-name="uni092E" unicode="&#x92e;" horiz-adv-x="993" 
d="M51 564c0 12.667 4.99902 24 14.999 34c10 9.33301 21.333 14 34 14h86v493h-186l-86 115h1080l86 -115h-220v-1105l-135 74v408h-392v-114c0 -16.667 -5 -31 -15 -43c-9.33301 -12.667 -20.666 -19 -33.999 -19c-47.333 0 -98 30 -152 90
c-54 59.333 -81 115.333 -81 168zM332.999 596h392v509h-392v-509z" />
    <glyph glyph-name="uni092F" unicode="&#x92f;" horiz-adv-x="1004" 
d="M67 735c88 0 163 15.666 225 46.999c62.667 30.667 94 68 94 112c0 29.333 -8.66699 62 -26 98s-41.333 73.667 -72 113h-288l-86 115h1090l96 -115h-212v-1105l-135 74v342c-42.667 -35.333 -86 -62.666 -130 -81.999c-44 -18.667 -86.333 -28 -127 -28
c-103.333 3.33301 -195.333 45.333 -276 126c-80.667 81.333 -131.667 182.333 -153 303zM422 440.999c106.667 0 171.331 6.33301 193.998 19c58.667 32.667 104.334 77.667 137.001 135v510h-349c47.333 -52.667 75.333 -96.334 84 -131.001
c11.333 -46.667 17 -93.667 17 -141c0 -62 -27.667 -114 -83 -156c-57.333 -43.333 -126.666 -65 -207.999 -65c0 -47.333 20.333 -87.666 61 -120.999c41.333 -33.333 90.333 -50 147 -50z" />
    <glyph glyph-name="uni0930" unicode="&#x930;" horiz-adv-x="700" 
d="M586 -24l-514 562.998c-8.66699 9.33301 -14.667 20 -18 32c-4.66699 12.667 -7 26.334 -7 41.001c0 28 8.66699 51.333 26 70s37.333 28 60 28c10 0 27.333 -2 52 -6c27.333 -4 46.666 -10 57.999 -18c8 18 14.333 35 19 51c4 16.667 6 32.334 6 47.001v321h-268
l-86 115h786l86 -115h-383v-443c0 -46 -10.667 -90.333 -32 -133c-21.333 -42 -51.666 -79.667 -90.999 -113l380 -367z" />
    <glyph glyph-name="uni0931" unicode="&#x931;" horiz-adv-x="700" 
d="M112 92l-108 108l108 117l108 -117zM586 -24l-514 562.998c-8.66699 9.33301 -14.667 20 -18 32c-4.66699 12.667 -7 26.334 -7 41.001c0 28 8.66699 51.333 26 70s37.333 28 60 28c10 0 27.333 -2 52 -6c27.333 -4 46.666 -10 57.999 -18c8 18 14.333 35 19 51
c4 16.667 6 32.334 6 47.001v321h-268l-86 115h786l86 -115h-383v-443c0 -46 -10.667 -90.333 -32 -133c-21.333 -42 -51.666 -79.667 -90.999 -113l380 -367z" />
    <glyph glyph-name="uni0932" unicode="&#x932;" horiz-adv-x="1247" 
d="M50 625c0 66.667 26 124.001 78 172.001c52 48.667 115.667 73 191 73c50.667 0 100 -16.333 148 -49c48.667 -32.667 89 -77.667 121 -135c38 54 78.667 96 122 126c43.333 30.667 84.666 46 123.999 46c37.333 0 71 -5.33301 101 -16c30.667 -10.667 54 -26 70 -46v309
h-1005l-86 115h1333l86 -115h-193v-1105l-135 74v624c-10 11.333 -23.333 20.333 -40 27c-17.333 6.66699 -36.666 10 -57.999 10c-65.333 0 -123 -25.667 -173 -77c-49.333 -51.333 -77.333 -115.333 -84 -192l-123 85c10 26 18.333 46.333 25 61
c-26 39.333 -58.667 69.666 -98 90.999s-80.333 32 -123 32c-37.333 0 -69 -16.667 -95 -50c-26.667 -33.333 -40 -73.666 -40 -120.999c0 -88.667 39.333 -181 118 -277c78.667 -96.667 186.667 -184.334 324 -263.001l-37 -61c-168.667 78.667 -302.667 177.667 -402 297
s-149 241 -149 365z" />
    <glyph glyph-name="uni0933" unicode="&#x933;" horiz-adv-x="1341" 
d="M399 122c-86.667 0 -169.334 39.666 -248.001 118.999c-79.333 79.333 -119 162.333 -119 249c0 98 31 181.667 93 251s137 104 225 104c60.667 0 118.667 -18.667 174 -56s102 -88 140 -152c42.667 62 88.334 110.333 137.001 145c49.333 34 99 51 149 51v272h-950
l-86 115h1416l86 -115h-331v-297c62 -42 110.333 -93.667 145 -155c34 -61.333 51 -123.666 51 -186.999c0 -95.333 -31 -176.333 -93 -243c-62 -67.333 -137 -101 -225 -101c-50.667 0 -102.667 12.667 -156 38s-103.666 62 -150.999 110
c-38.667 -48 -80.667 -84.667 -126 -110c-44.667 -25.333 -88.334 -38 -131.001 -38zM326 244.999c66.667 0 129 30.333 187 91c58 60 100 138.333 126 235c-27.333 39.333 -64.333 70.333 -111 93s-97.667 34 -153 34c-64 0 -118.667 -25.333 -164 -76
c-46 -50.667 -69 -111 -69 -181c0 -54 18 -100 54 -138c36 -38.667 79.333 -58 130 -58zM938 244.999c64 0 118.666 27.332 163.999 81.999c46 54.667 69 121.334 69 200.001c0 50.667 -15.667 94 -47 130c-30.667 35.333 -68 53 -112 53c-68.667 0 -133.667 -34 -195 -102
c-61.333 -68.667 -106.666 -157 -135.999 -265c18 -31.333 49.667 -55.333 95 -72c46 -17.333 100 -26 162 -26z" />
    <glyph glyph-name="uni0934" unicode="&#x934;" horiz-adv-x="1341" 
d="M287 -206l-135 135l135 147l135 -147zM399 122c-86.667 0 -169.334 39.666 -248.001 118.999c-79.333 79.333 -119 162.333 -119 249c0 98 31 181.667 93 251s137 104 225 104c60.667 0 118.667 -18.667 174 -56s102 -88 140 -152c42.667 62 88.334 110.333 137.001 145
c49.333 34 99 51 149 51v272h-950l-86 115h1416l86 -115h-331v-297c62 -42 110.333 -93.667 145 -155c34 -61.333 51 -123.666 51 -186.999c0 -95.333 -31 -176.333 -93 -243c-62 -67.333 -137 -101 -225 -101c-50.667 0 -102.667 12.667 -156 38s-103.666 62 -150.999 110
c-38.667 -48 -80.667 -84.667 -126 -110c-44.667 -25.333 -88.334 -38 -131.001 -38zM326 244.999c66.667 0 129 30.333 187 91c58 60 100 138.333 126 235c-27.333 39.333 -64.333 70.333 -111 93s-97.667 34 -153 34c-64 0 -118.667 -25.333 -164 -76
c-46 -50.667 -69 -111 -69 -181c0 -54 18 -100 54 -138c36 -38.667 79.333 -58 130 -58zM938 244.999c64 0 118.666 27.332 163.999 81.999c46 54.667 69 121.334 69 200.001c0 50.667 -15.667 94 -47 130c-30.667 35.333 -68 53 -112 53c-68.667 0 -133.667 -34 -195 -102
c-61.333 -68.667 -106.666 -157 -135.999 -265c18 -31.333 49.667 -55.333 95 -72c46 -17.333 100 -26 162 -26z" />
    <glyph glyph-name="uni0935" unicode="&#x935;" horiz-adv-x="991" 
d="M39 625c0 70 33.332 130.333 99.999 181c67.333 50.667 148.333 76 243 76c64 0 126.333 -17 187 -51c61.333 -34.667 113.333 -83 156 -145v419h-725l-86 115h1080l86 -115h-220v-1105l-135 74v330c-42.667 -42 -87.667 -75 -135 -99c-47.333 -23.333 -92 -35 -134 -35
c-103.333 0 -198.666 37 -285.999 111s-131 155.333 -131 244zM351.999 404c38 -6.66699 78.335 -4.99902 121.002 5.00098c21.333 5.33301 43 12.666 65 21.999c66.667 28 130 71.667 190 131c-34.667 49.333 -77 90.333 -127 123c-50.667 33.333 -105 55 -163 65
c-46 8 -89 7.33301 -129 -2c-20.667 -4 -40.334 -10.667 -59.001 -20c-56 -26.667 -88.333 -64.667 -97 -114c-6 -31.333 -1 -61.333 15 -90c7.33301 -14 17.666 -28 30.999 -42c39.333 -40.667 90.333 -66.667 153 -78z" />
    <glyph glyph-name="uni0936" unicode="&#x936;" horiz-adv-x="1129" 
d="M575 -24l-232.999 341.998c-18 -6 -37.333 -10.667 -58 -14c-20 -3.33301 -41.333 -5 -64 -5c-50.667 0 -94 15 -130 45c-36 30.667 -54 67 -54 109c0 28 13 51.333 39 70s58 28 96 28c27.333 0 56.333 -8.33301 87 -25c30 -17.333 58 -41.666 84 -72.999
c34 20 64.667 48 92 84c26.667 35.333 49 77 67 125c-144.667 24.667 -238 67 -280 127c-46 65.333 -69 137 -69 215c0 20.667 2 38 6 52c5.33301 16 11.666 32.333 18.999 49h-177l-86 115h1218l86 -115h-220v-1105l-135 74v1031h-332c43.333 -11.333 78 -50 104 -116
c25.333 -68 38 -128.333 38 -181c0 -91.333 -24 -177.666 -72 -258.999c-48.667 -82 -114.667 -146.667 -198 -194l258 -318zM514.001 734.998c16 93.333 24.002 134.332 24.002 122.999c0 63.333 -14.333 118 -43 164c-28.667 45.333 -63.334 68 -104.001 68
s-75.334 -10.667 -104.001 -32c-28.667 -20.667 -43 -46.667 -43 -78c0 -50.667 25 -99 75 -145c50 -45.333 115 -78.666 195 -99.999z" />
    <glyph glyph-name="uni0937" unicode="&#x937;" horiz-adv-x="919" 
d="M116 815l-2.00098 290h-114l-86 115h1000l86 -115h-220v-1105l-135 74v354c-19.333 -23.333 -55.333 -42.333 -108 -57c-37.333 -10.667 -75 -16 -113 -16c-110 0 -191 34.667 -243 104c-53.333 71.333 -76.666 141.333 -69.999 210c0.666992 6 1.66699 11.667 3 17z
M350.999 478c50.667 0 101 7.99902 151 23.999c49.333 16.667 97 41.334 143 74.001l-417 452v-440c0.666992 -31.333 12.667 -57.333 36 -78c24 -21.333 53 -32 87 -32zM644.999 716.999v385h-382z" />
    <glyph glyph-name="uni0938" unicode="&#x938;" horiz-adv-x="1086" 
d="M543 -12l-293.999 305.999c-67.333 66.667 -119 130.667 -155 192s-54 115.666 -54 162.999c0 20 7.66699 37.333 23 52c14.667 14.667 31.667 22 51 22c26 0 49.667 -5.66699 71 -17c21.333 -12 36 -26.667 44 -44c18 6.66699 29.667 18.334 35 35.001
c6 15.333 9 32 9 50v358h-273l-86 115h1170l86 -115h-220v-1105l-135 74v527c-40 -41.333 -69.667 -65.333 -89 -72c-40 -15.333 -80.667 -23 -122 -23c-40.667 0 -75.667 6 -105 18c-36 14.667 -70.333 36 -103 64c-8.66699 -47.333 -25 -87.666 -49 -120.999
c-24.667 -33.333 -53.334 -54.333 -86.001 -63l367 -330zM616.001 623.999c46 6.66699 79.333 16 100 28c42 24 75 60 99 108v345h-407v-419c22.667 -19.333 44.667 -34.333 66 -45c16 -8 34.667 -13.333 56 -16c34 -4 62.667 -4.33301 86 -1z" />
    <glyph glyph-name="uni0939" unicode="&#x939;" horiz-adv-x="916" 
d="M664 -122c-170 45.333 -308.334 113.333 -415.001 204c-107.333 90.667 -161 186 -161 286c0 42 13 82.667 39 122c26.667 39.333 62.667 72 108 98c-52 24.667 -93.667 57.667 -125 99c-30.667 42 -46 86.667 -46 134c0 30.667 15.333 56.667 46 78
c31.333 21.333 69 32 113 32h404v174h-627l-86 115h1000l86 -115h-238v-309h-478c-19.333 0 -36.333 -6 -51 -18s-22 -26.333 -22 -43c0 -22.667 9 -45 27 -67s41.667 -40.667 71 -56c26 12 54.333 21 85 27c31.333 6.66699 64 10 98 10c116.667 0 203.334 -37 260.001 -111
c56 -74.667 84 -152 84 -232c0 -37.333 -10 -72.333 -30 -105c-19.333 -32.667 -46.333 -59 -81 -79l-110 59c29.333 11.333 53 30.666 71 57.999c18 28 27 79 27 153c0 40.667 -18 75.334 -54 104.001s-79.333 43 -130 43c-78 0 -144.333 -21.667 -199 -65
s-82 -95.333 -82 -156c0 -74.667 40 -146 120 -214s182.667 -119 308 -153z" />
    <glyph glyph-name="uni093C" unicode="&#x93c;" 
d="M-659 -460l-108 108l108 118l108 -118z" />
    <glyph glyph-name="uni093D" unicode="&#x93d;" horiz-adv-x="851" 
d="M785 1174l-115.001 -99.002l-156 63c-2.66699 1.33301 -5.33398 2.33301 -8.00098 3c-23.333 4.66699 -49.666 -9.33301 -78.999 -42c-23.333 -26 -35 -57.667 -35 -95c0 -36 7.33301 -71 22 -105c14.667 -33.333 35.667 -63.666 63 -90.999l77 -53
c64 -46.667 107.333 -76.667 130 -90c4 -2 22.667 -30.333 56 -85c4.66699 -7.33301 8 -15.333 10 -24c9.33301 -38 -4 -86.667 -40 -146c-40.667 -67.333 -95.667 -110.666 -165 -129.999c-45.333 -12.667 -127 -7.66699 -245 15c-30.667 6 -69.334 24 -116.001 54
c-90 59.333 -139.333 89.666 -148 90.999v172c30 -46 100.333 -90.333 211 -133c110.667 -42 183.334 -63 218.001 -63c40.667 0 75.334 13 104.001 39s43 57.667 43 95c-108 50.667 -194 111.667 -258 183c-64.667 70.667 -97 140.334 -97 209.001
c0 83.333 32.333 157.333 97 222c64 64.667 137.667 97 221 97c58 0 128 -29 210 -87z" />
    <glyph glyph-name="uni093E" unicode="&#x93e;" horiz-adv-x="420" 
d="M-86 1220h501l86 -115h-196v-1105l-135 74v1031h-175z" />
    <glyph glyph-name="uni093F" unicode="&#x93f;" horiz-adv-x="454" 
d="M328 1108l0.000976562 -1105l-135 74v1031h-207l-86 115h327l-76 128c-20.667 37.333 -31 78 -31 122c0 94.667 38.333 175.667 115 243c76.667 66.667 169 100 277 100c130 0 239 -31 327 -93c1.33301 -1.33301 3 -2.66602 5 -3.99902
c54.667 -39.333 113 -101.333 175 -186c20 -26.667 37.667 -52.667 53 -78l106 -164c13.333 -23.333 25.666 -46 36.999 -68h-103l-135 205c-48.667 70 -92.667 118 -132 144c-98 64.667 -193 97 -285 97c-84.667 0 -156.667 -24 -216 -72
c-60 -48.667 -90 -106.334 -90 -173.001c0 -70.667 24.333 -137.667 73 -201h135l86 -115h-220z" />
    <glyph glyph-name="uni0940" unicode="&#x940;" horiz-adv-x="492" 
d="M228 1105h-365.002l-92 115h458c7.33301 16.667 21 82 41 196c12 68 0 134 -36 198l-90 52c-46 5.33301 -72 8 -78 8c-45.333 0 -83.333 -22 -114 -66c-52 -75.333 -80.667 -123 -86 -143c-22.667 -84.667 -50 -166.667 -82 -246l-136 1c15.333 55.333 23 84 23 86
c8.66699 86 36.334 170.667 83.001 254c53.333 95.333 103.333 157.333 150 186c90.667 56.667 164.667 74.667 222 54c52.667 -18.667 100 -47.667 142 -87c50.667 -47.333 85.334 -94.333 104.001 -141c16 -40 26 -98 30 -174l-73 -178h155l86 -115h-207v-1105l-135 74
v1031z" />
    <glyph glyph-name="uni0941" unicode="&#x941;" 
d="M-289 -474c-80 0 -165.001 32 -255.001 96s-175 153 -255 267l49 39c66.667 -95.333 139 -170 217 -224c78 -53.333 152.667 -80 224 -80c43.333 0 80.333 16.333 111 49s46 72 46 118c0 30 -8.33301 55.333 -25 76c-10.667 12.667 -24 22 -40 28
c4 -1.33301 1 -0.333008 -9 3c-23.333 8 -42.666 10.333 -57.999 7l-5 -1c-36.667 -12 -59.667 -22 -69 -30l-78 73c22 20 46 35 72 45c25.333 9.33301 50.333 14 75 14c60 0 111 -24.667 153 -74c42 -50 63 -110.333 63 -181c0 -62.667 -21 -115.667 -63 -159
c-42 -44 -93 -66 -153 -66z" />
    <glyph glyph-name="uni0942" unicode="&#x942;" 
d="M-365 -340c-59.333 0 -109.334 21.0029 -150.001 63.0029c-41.333 41.333 -62 91 -62 149c0 38.667 13.667 71.667 41 99c28 28 61.333 42 100 42c30.667 0 59.667 -4.66699 87 -14c28 -8.66699 52 -21.667 72 -39c146 -122.667 272.333 -237.334 379 -344.001l-44 -44
c-103.333 103.333 -191.666 185.666 -264.999 246.999c-34 28 -66.667 49.667 -98 65c-32 15.333 -61 23 -87 23c-29.333 0 -54.333 -7.66699 -75 -23s-31 -34.333 -31 -57c0 -24.667 7.66699 -45.334 23 -62.001c15.333 -17.333 34.333 -26 57 -26
c20 0 40.667 4.66699 62 14c20.667 8.66699 41 21.667 61 39l62 -88c-20 -14 -41.333 -25 -64 -33c-23.333 -7.33301 -46 -11 -68 -11z" />
    <glyph glyph-name="uni0943" unicode="&#x943;" 
d="M-309 -46c4.66699 -2.66699 3.66602 -4.33496 -3.00098 -5.00195c-22 -0.666992 -34.667 -1.66699 -38 -3s-10.666 -2.33301 -21.999 -3c-44.667 -3.33301 -70.667 -6 -78 -8c-6 -2 -13.667 -4 -23 -6c-30 -6 -56.667 -17.333 -80 -34
c-43.333 -27.333 -65 -63.333 -65 -108c0 -40 16.333 -74.667 49 -104c33.333 -28.667 73.333 -43 120 -43c49.333 -2 88 0.333008 116 7c8 2.66699 15 5.33398 21 8.00098c18 6.66699 36.667 19.334 56 38.001l57 -60c-34 -24 -67.333 -42.333 -100 -55
c-32 -12.667 -62.333 -19 -91 -19c-83.333 0 -154.333 28 -213 84s-88 123.667 -88 203c0 36 22.667 70 68 102c10.667 7.33301 24 14.333 40 21c22.667 10 69.667 23.667 141 41l36 4c56 4 85 7 87 9c2.66699 2 4.66699 -2 6 -12z" />
    <glyph glyph-name="uni0944" unicode="&#x944;" 
d="M-310 78l18.998 -81l-25 -7c-29.333 -14 -44 -35.667 -44 -65c0 -18.667 7 -35 21 -49s30.333 -21 49 -21c27.333 0 48.333 10 63 30l33 -72c-18 -21.333 -48.333 -32 -91 -32c-8.66699 -15.333 -13 -33 -13 -53c0 -16.667 5.33301 -30.334 16 -41.001
c10.667 -11.333 24.334 -17 41.001 -17c32 0 62.667 12.333 92 37l30 -71c-37.333 -30.667 -77.666 -46 -120.999 -46c-34.667 0 -65.667 12.333 -93 37c-30.667 26.667 -46 60.667 -46 102c0 26 6 49 18 69c-16 6 -31.333 18.667 -46 38c-20.667 26.667 -31 56 -31 88
c0 28 7.33301 53.333 22 76c3.33301 6 10.333 13.333 21 22c30 24.667 58.333 43.334 85 56.001z" />
    <glyph glyph-name="uni0945" unicode="&#x945;" 
d="M-553 1331c-66.667 0 -131.333 24.333 -194 73c-62 49.333 -111.667 114.666 -149 195.999l127 37c26.667 -31.333 69.334 -73.333 128.001 -126c23.333 -23.333 54.333 -34.333 93 -33c37.333 0 72 11.333 104 34c43.333 30.667 80.666 72.334 111.999 125.001l122 -74
c-32.667 -70 -80 -126.333 -142 -169c-62 -42 -129 -63 -201 -63z" />
    <glyph glyph-name="uni0946" unicode="&#x946;" 
d="M-273 1220l-475.001 164c-60 20.667 -112 52 -156 94c-42 40.667 -69.667 85.334 -83 134.001c-4.66699 17.333 -6.33398 34.666 -5.00098 51.999c0 4 0.333008 8 1 12c2.66699 21.333 9.33398 43.666 20.001 66.999l182 -65c-8 -14 -12.667 -31.333 -14 -52
c-0.666992 -13.333 0 -27.333 2 -42c1.33301 -7.33301 3 -14.666 5 -21.999c7.33301 -26.667 23 -51.667 47 -75c22.667 -22 52.334 -40 89.001 -54l354 -132l76 -33l92 -48h-135z" />
    <glyph glyph-name="uni0947" unicode="&#x947;" 
d="M-350 1220l-240 343c-23.333 32 -48.333 56 -75 72c-33.333 20 -60 29 -80 27l-4 -1c-30 -6.66699 -51.333 -10 -64 -10c-30.667 0 -46 -9 -46 -27l-111 160c20.667 20 40.667 32 60 36c38.667 8 59.667 12 63 12c50.667 0 100.667 -15 150 -45
c88 -53.333 142.667 -95.333 164 -126l256 -353l67 -88h-140z" />
    <glyph glyph-name="uni0948" unicode="&#x948;" 
d="M-369 1220l-278.998 174.001l-171 116c-41.333 28 -71.333 45 -90 51c-32.667 8.66699 -62.334 9.66699 -89.001 3c-24 -6.66699 -43.667 -15.334 -59 -26.001c-26 -19.333 -38.667 -32 -38 -38l-147 125c14 24.667 30 41.667 48 51c35.333 18 54.333 27.333 57 28
c32.667 8.66699 66.667 11 102 7c18 -2.66699 36.333 -6.66699 55 -12c88 -25.333 151.667 -52 191 -80l241 -169l173 -148l-162 355c-15.333 34 -35.666 62 -60.999 84c-24.667 22 -50.667 35.333 -78 40c-18.667 3.33301 -35.334 4.33301 -50.001 3
c-5.33301 0 -10.333 -0.666992 -15 -2c-32.667 -6 -49.334 -12 -50.001 -18l-81 176c23.333 16.667 45 25.334 65 26.001l64 1c50 -8.66699 96.667 -32.334 140 -71.001c80 -70 126.333 -121 139 -153l86 -214l72 -209l92 -100h-155z" />
    <glyph glyph-name="uni0949" unicode="&#x949;" horiz-adv-x="585" 
d="M337 1270c-66.667 0 -131.333 24.667 -194 74c-62 48.667 -111.667 114 -149 196l127 36c26.667 -30.667 69.334 -72.667 128.001 -126c23.333 -22.667 54.333 -33.667 93 -33c37.333 0 72 11.333 104 34c43.333 31.333 80.666 73 111.999 125l122 -73
c-32.667 -70.667 -80 -127 -142 -169c-62 -42.667 -129 -64 -201 -64zM-93.999 1220h696l86 -115h-196v-1105l-135 74v1031h-365z" />
    <glyph glyph-name="uni094A" unicode="&#x94a;" horiz-adv-x="432" 
d="M4 1105l-86.001 115.001h204h65l-475 164c-60.667 21.333 -112.667 52.666 -156 93.999c-42 40.667 -69.667 85.334 -83 134.001l-4 22c-2 13.333 -2 27.333 0 42c2.66699 21.333 9.33398 43.666 20.001 66.999l182 -65c-8 -14 -12.667 -31.333 -14 -52v-5
c-0.666992 -19.333 1.66602 -39 6.99902 -59c7.33301 -26.667 23 -51.667 47 -75c22.667 -22 52.334 -40 89.001 -54l354 -132l76 -33l92 -48h110l86 -115h-196v-1105l-135 74v1031h-183z" />
    <glyph glyph-name="uni094B" unicode="&#x94b;" horiz-adv-x="411" 
d="M-85 1220h252l-240 343c-22 31.333 -47 55.333 -75 72c-33.333 20 -60 29 -80 27c-1.33301 -0.666992 -2.66602 -1 -3.99902 -1c-30 -6.66699 -51.333 -10 -64 -10c-30.667 0 -46.334 -9 -47.001 -27l-110 160c20.667 20 40.667 32 60 36c38.667 8 59.667 12 63 12
c50.667 0 100.667 -15 150 -45c88 -53.333 142.333 -95.333 163 -126l261 -385l63 -56h110l86 -115h-196v-1105l-135 74v1031h-171z" />
    <glyph glyph-name="uni094C" unicode="&#x94c;" horiz-adv-x="417" 
d="M-82 1215l259.001 5.00098l-279 174l-171 116c-41.333 28 -71.333 45 -90 51c-23.333 6.66699 -45.333 9 -66 7c-8 -0.666992 -15.667 -2 -23 -4c-24 -6.66699 -43.667 -15.334 -59 -26.001c-26 -19.333 -38.667 -32 -38 -38l-147 125c14 24.667 30 41.667 48 51
c35.333 18 54.333 27.333 57 28c32.667 8.66699 66.667 11 102 7c18 -2.66699 36.333 -6.66699 55 -12c88 -25.333 151.667 -52 191 -80l241 -169l173 -148l-162 355c-15.333 34 -35.666 62 -60.999 84c-24.667 22 -50.667 35.333 -78 40
c-18.667 3.33301 -35.334 4.33301 -50.001 3c-5.33301 0 -10.333 -0.666992 -15 -2c-32.667 -6 -49.334 -12 -50.001 -18l-81 176c23.333 16.667 45 25.334 65 26.001l64 1c50 -8.66699 96.667 -32.334 140 -71.001c80 -70 126.333 -121 139 -153l86 -214l72 -209l92 -100
h90l86 -115h-196v-1105l-135 74v1031h-177z" />
    <glyph glyph-name="uni094D" unicode="&#x94d;" 
d="M-665 -72c40.667 44 91.333 66 152 66c80 0 165 -32 255 -96s175 -152.667 255 -266l-49 -40c-66.667 95.333 -139 170 -217 224c-78 53.333 -152.667 80 -224 80c-28 0 -57 -10.333 -87 -31c-6 -4 -14 -10 -24 -18c1.33301 0.666992 -19 27.667 -61 81z" />
    <glyph glyph-name="uni0950" unicode="&#x950;" horiz-adv-x="1960" 
d="M547 94c-92.667 0 -184.668 48.0029 -276.001 144.003c-92 96.667 -166.333 224 -223 382l61 25c44 -120.667 102.667 -218.334 176 -293.001c74 -74 149.333 -111 226 -111c54 0 100 20.333 138 61c38.667 40.667 58 89.667 58 147s-18 106.333 -54 147
s-79.333 61 -130 61l-98 -24l-61 122c74.667 13.333 136.334 39.666 185.001 78.999c48 38.667 72 82 72 130c0 34 -10.667 62.667 -32 86c-21.333 24 -47.333 36 -78 36c-42.667 0 -84 -7.33301 -124 -22s-76.333 -36 -109 -64l-98 135c37.333 31.333 79.333 55.333 126 72
c46.667 17.333 94.334 26 143.001 26c59.333 0 125.333 -42 198 -126s109 -160.333 109 -229c0 -32.667 -12.333 -64.667 -37 -96c-24.667 -30.667 -57.334 -56 -98.001 -76c37.333 -12.667 73 -32.667 107 -60c33.333 -26.667 63 -59.667 89 -99
c37.333 -31.333 76 -55.333 116 -72c40 -17.333 79 -26 117 -26c44 0 87.667 13 131 39s81.333 62 114 108c160 228.667 274.333 343 343 343c66.667 0 123.334 -33.333 170.001 -100c46.667 -67.333 70 -148.333 70 -243c0 -57.333 -17.667 -106.333 -53 -147
s-77.333 -61 -126 -61c-36 0 -75.333 18.667 -118 56c-42 37.333 -82 88 -120 152c-62 -88 -124 -157 -186 -207s-116.667 -75 -164 -75c-54 0 -104.333 7.33301 -151 22s-86.334 36 -119.001 64c0 -84.667 -28.5 -156.834 -85.5 -216.501s-126.5 -89.5 -208.5 -89.5z
M1650 502.003c34 0 63 18.002 87 54.002s36 79.333 36 130c0 31.333 -7.66699 57.666 -23 78.999c-14.667 20.667 -31.667 31 -51 31c-32.667 0 -66.667 -14 -102 -42c-34.667 -28.667 -66 -67.667 -94 -117c19.333 -40.667 42.333 -73.334 69 -98.001
c26 -24.667 52 -37 78 -37zM1209 1062c-75.333 0 -152 30.333 -230 91c-78.667 61.333 -149 145 -211 251l61 25c38 -64 90.667 -114.667 158 -152c68 -37.333 142 -56 222 -56s154 18.667 222 56c67.333 37.333 120 88 158 152l61 -25
c-62 -106 -132.333 -189.667 -211 -251c-78 -60.667 -154.667 -91 -230 -91zM1209 1331l-110 123l110 122l110 -122z" />
    <glyph glyph-name="uni0951" unicode="&#x951;" 
d="M-290 1320h-96v688h96v-688z" />
    <glyph glyph-name="uni0952" unicode="&#x952;" 
d="M10 -208h-960v88h960v-88z" />
    <glyph glyph-name="uni0953" unicode="&#x953;" 
d="M-486 1389l-58 -100l-534 253l100 178z" />
    <glyph glyph-name="uni0954" unicode="&#x954;" 
d="M-197 1542l-534 -253l-57 100l491 331z" />
    <glyph glyph-name="uni0958" unicode="&#x958;" horiz-adv-x="1351" 
d="M348 84l-86 86l86 94l86 -94zM60 632c0 75.333 26 138.999 78 190.999c52.667 52.667 116.334 79 191.001 79c60.667 0 120.334 -17.333 179.001 -52c58.667 -34 109.334 -82 152.001 -144v399h-660l-86 115h1437l86 -115h-642v-399c16.667 15.333 59 36.333 127 63
c38 14.667 73.333 22 106 22c70 0 130.333 -34.667 181 -104s76 -153 76 -251c0 -60.667 -10.667 -119 -32 -175c-21.333 -56.667 -51.666 -108.667 -90.999 -156l-110 123c47.333 56.667 83.666 109.334 108.999 158.001c25.333 48 38 89.333 38 124
c0 44 -14.333 81.333 -43 112c-28.667 31.333 -63.334 47 -104.001 47c-50.667 0 -136.334 -50.667 -257.001 -152v-522l-135 73v380c-42.667 -42 -86.334 -75 -131.001 -99c-44.667 -23.333 -86.667 -35 -126 -35c-118 0 -199 23.333 -243 70
c-66.667 71.333 -100 154 -100 248zM333 420.999c42.667 0 93.002 17 151.002 51s118 82.333 180 145c-47.333 38.667 -94.333 68.667 -141 90s-89.334 32 -128.001 32c-64 0 -119 -15.667 -165 -47c-45.333 -30.667 -68 -68 -68 -112s16.667 -81.667 50 -113
c33.333 -30.667 73.666 -46 120.999 -46z" />
    <glyph glyph-name="uni0959" unicode="&#x959;" horiz-adv-x="1424" 
d="M347 -119l-86 86l86 93l86 -93zM785 24c-70 0 -145.666 21.333 -226.999 64c-80.667 42.667 -160 103.334 -238 182.001c-78.667 78 -139.334 151 -182.001 219c-42.667 67.333 -64 125 -64 173c0 12.667 7.66699 24 23 34c14.667 9.33301 31.667 14 51 14
c-1.33301 0 12.667 -5.33301 42 -16l56 -20c8 6.66699 14 20.334 18 41.001c4 21.333 6 48.333 6 81v176c4 17.333 5 33.666 3 48.999c-0.666992 8 -2.33398 15.667 -5.00098 23c-10.667 28.667 -28 49 -52 61h-216l-86 115h1508l86 -115h-236v-1105l-95 74v110
c-73.333 -52.667 -143.666 -92.334 -210.999 -119.001c-66.667 -27.333 -127 -41 -181 -41zM736.001 147c94.667 0 180.335 15 257.002 45c76.667 30.667 138 72.667 184 126v148c-36 -36 -72.667 -63.667 -110 -83c-38 -18.667 -75 -28 -111 -28
c-100.667 0 -187 32.333 -259 97s-108 142.667 -108 234c0 66.667 28.667 124.334 86 173.001c57.333 48 126.666 72 207.999 72c47.333 0 96.666 -15 147.999 -45c51.333 -30.667 100 -72.667 146 -126v342l-845 2c24.667 -6.66699 43.334 -21.334 56.001 -44.001
c9.33301 -16.667 15.333 -42 18 -76v-249c0 -66.667 -10.667 -120.667 -32 -162c-26.667 -48.667 -53 -86 -79 -112c55.333 -96.667 122.666 -173 201.999 -229c79.333 -56.667 159 -85 239 -85zM858.002 466c59.333 0 116.999 15.998 172.999 47.998
c56.667 33.333 105.334 78.333 146.001 135v42c-46 37.333 -89.667 66.333 -131 87c-42 20 -80 30 -114 30c-64 0 -118.667 -16.667 -164 -50c-46 -33.333 -69 -73.666 -69 -120.999s15.667 -87.666 47 -120.999c30.667 -33.333 68 -50 112 -50z" />
    <glyph glyph-name="uni095A" unicode="&#x95a;" horiz-adv-x="983" 
d="M251 91l-86 86l86 94l86 -94zM325 416c-47.333 0 -99.999 26.333 -157.999 79c-58 52 -87 99.333 -87 142c0 16 8.33301 30.333 25 43c17.333 12 37.666 18 60.999 18h85v407h-251l-86 115h1060l86 -115h-196v-1105l-135 74v1031h-343v-615
c0 -19.333 -6.16699 -36.5 -18.5 -51.5s-26.5 -22.5 -42.5 -22.5z" />
    <glyph glyph-name="uni095B" unicode="&#x95b;" horiz-adv-x="1216" 
d="M570 -40l-86 86l86 94l86 -94zM67 747l73.001 48.998c57.333 -122.667 122.666 -220.667 195.999 -294c74 -73.333 143.667 -110 209 -110c30.667 0 56.667 12 78 36c21.333 23.333 32 52 32 86c0 54 -29 108 -87 162s-135.333 98 -232 132l13 50h600v247h-949l-86 115
h1304l86 -115h-220v-1105l-135 74v636h-319c54 -45.333 96.333 -91.666 127 -138.999c30 -47.333 45 -90.666 45 -129.999c0 -60.667 -21.667 -112.667 -65 -156s-95 -65 -155 -65c-82 0 -169.667 48 -263 144c-92.667 95.333 -176.667 223 -252 383z" />
    <glyph glyph-name="uni095C" unicode="&#x95c;" horiz-adv-x="1183" 
d="M295 -94l-86 86l86 93l86 -93zM701 0c-96.667 0 -202.001 43.667 -316.001 131c-114.667 86 -225.667 206 -333 360l61 49c86.667 -122.667 177.334 -218.667 272.001 -288s183.667 -104 267 -104c70 0 129.667 20.333 179 61c48.667 40.667 73 89.667 73 147
c0 29.333 -12.667 54.333 -38 75c-25.333 20 -56 30 -92 30c-27.333 0 -68 -7.33301 -122 -22s-94.667 -22 -122 -22c-66 0 -131.333 38.333 -196 115c-65.333 77.333 -98 153.333 -98 228c0 47.333 19 88 57 122c38.667 33.333 85 50 139 50h318v173h-750l-86 115h1261
l86 -115h-376v-320h-380c-40.667 0 -75.334 -12 -104.001 -36c-28.667 -23.333 -43 -52.333 -43 -87c0 -27.333 14.333 -50.666 43 -69.999c28.667 -18.667 63.334 -28 104.001 -28c26 0 64.667 6.33301 116 19c52 12 91 18 117 18c55.333 0 114 -35 176 -105
c62 -70.667 93 -137.667 93 -201c0 -82 -29.667 -151.667 -89 -209c-60 -56.667 -132.333 -85.334 -217 -86.001z" />
    <glyph glyph-name="uni095D" unicode="&#x95d;" horiz-adv-x="980" 
d="M137 -15l-86 86l86 94l86 -94zM652 20c-145.333 0 -279.667 59.334 -403 178.001c-123.333 118 -185 246.667 -185 386c0 88 36 163 108 225s158.667 93 260 93h269v203h-701l-86 115h1066l86 -115h-230v-350h-306c-92 0 -170 -21.667 -234 -65
c-64.667 -43.333 -97 -95.333 -97 -156c0 -102.667 30.667 -191.667 92 -267c60.667 -74.667 136 -116.334 226 -125.001c-24.667 34.667 -43 72 -55 112s-18 80.333 -18 121c0 60.667 21.667 112.667 65 156s95 65 155 65c76.667 0 142 -30 196 -90
c54 -59.333 81 -131.333 81 -216c0 -75.333 -28 -139.333 -84 -192c-56.667 -52 -125 -78 -205 -78zM577.999 130.001c70.667 -12.667 133.334 1.99707 188.001 43.9971c54.667 42.667 82 97.334 82 164.001c0 34.667 -14.333 63.667 -43 87
c-28.667 24 -63.334 36 -104.001 36c-44 0 -81.667 -16.667 -113 -50c-30.667 -33.333 -46 -73.666 -46 -120.999c0 -31.333 3.33301 -60.333 10 -87c6 -27.333 14.667 -51.666 26 -72.999z" />
    <glyph glyph-name="uni095E" unicode="&#x95e;" horiz-adv-x="1288" 
d="M314 134l-86 86l86 94l86 -94zM110 747l0.00195312 358h-110l-86 115h1372l86 -115h-624v-401c84.667 49.333 154 74 208 74c102.667 0 176.667 -37.667 222 -113c48 -79.333 72 -154 72 -224c0 -47.333 -14.667 -98.333 -44 -153s-72 -110 -128 -166l-122 98
c54 46 96 93.667 126 143c30.667 48.667 46 95 46 139c0 41.333 -12 76 -36 104c-24 28.667 -53 43 -87 43c-58.667 0 -144.334 -32.667 -257.001 -98v-551l-135 74v404c-22.667 -20 -50 -35.333 -82 -46s-66 -16 -102 -16c-81.333 0 -153 37 -215 111
c-46.667 56.667 -81.334 130 -104.001 220zM368.002 551c50.667 0 91.333 5.33301 122 16c42.667 14.667 83.667 36 123 64v474h-367v-419c0 -37.333 11.667 -69.333 35 -96c24 -26 53 -39 87 -39z" />
    <glyph glyph-name="uni095F" unicode="&#x95f;" horiz-adv-x="1004" 
d="M314 22l-86 86l86 94l86 -94zM67 735c88 0 163 15.666 225 46.999c62.667 30.667 94 68 94 112c0 29.333 -8.66699 62 -26 98s-41.333 73.667 -72 113h-288l-86 115h1090l96 -115h-212v-1105l-135 74v342c-42.667 -35.333 -86 -62.666 -130 -81.999
c-44 -18.667 -86.333 -28 -127 -28c-103.333 3.33301 -195.333 45.333 -276 126c-80.667 81.333 -131.667 182.333 -153 303zM422 440.999c106.667 0 171.331 6.33301 193.998 19c58.667 32.667 104.334 77.667 137.001 135v510h-349
c47.333 -52.667 75.333 -96.334 84 -131.001c11.333 -46.667 17 -93.667 17 -141c0 -62 -27.667 -114 -83 -156c-57.333 -43.333 -126.666 -65 -207.999 -65c0 -47.333 20.333 -87.666 61 -120.999c41.333 -33.333 90.333 -50 147 -50z" />
    <glyph glyph-name="uni0960" unicode="&#x960;" horiz-adv-x="1642" 
d="M1163 714c-52.667 -31.333 -96.999 -51.001 -132.999 -59.001c-72.667 -16 -129.334 -22.333 -170.001 -19l-14 1v-637l-135 74v428l-490 -294l-73 123l563 306c-46 32.667 -93 57 -141 73c-48 16.667 -95 25 -141 25c-52 0 -102 -7.33301 -150 -22
c-48.667 -14.667 -92.334 -36 -131.001 -64l-86 159c112.667 41.333 214.667 62 306 62c49.333 0 103.333 -14 162 -42s119 -67.333 181 -118v395h-711l-86 115h1728l86 -115h-882v-407c58.667 0 110.334 8.66699 155.001 26c45.333 17.333 83.333 41.333 114 72
c-11.333 14.667 -20.333 28.334 -27 41.001c-6.66699 12 -10 23 -10 33c0 27.333 7.66699 50.666 23 69.999c14.667 18.667 31.667 28 51 28c40.667 0 81.334 -20.667 122.001 -62c41.333 -40.667 62 -81.334 62 -122.001c0 -8 -36.667 -15 -110 -21l78 -164
c-8.66699 -26 -17.667 -41.333 -27 -46c-35.333 -16 -53 -42 -53 -78c0 -22 8.33301 -41.333 25 -58c17.333 -17.333 37 -26 59 -26c33.333 0 58.666 12 75.999 36l39 -87c-21.333 -25.333 -57.666 -38 -108.999 -38c-10.667 -18.667 -16 -40 -16 -64
c0 -19.333 6.66699 -35.666 20 -48.999c12.667 -13.333 29 -20 49 -20c38.667 0 75.667 14.667 111 44l36 -85c-44.667 -37.333 -93.334 -56 -146.001 -56c-41.333 0 -78.333 14.667 -111 44c-36.667 32 -55 73 -55 123c0 32 7 59.667 21 83c-19.333 8 -38 23.333 -56 46
c-24.667 32 -37 67.333 -37 106c0 40.667 8.66699 71.334 26 92.001l46 58z" />
    <glyph glyph-name="uni0961" unicode="&#x961;" horiz-adv-x="1278" 
d="M1048 372c8 10.667 16.0029 22.6631 24.0029 35.9961c36 62 54 116.333 54 163c0 40.667 -10.667 75.334 -32 104.001s-47.666 43 -78.999 43c-81.333 0 -152.333 -35 -213 -105c-60 -70 -95 -157.333 -105 -262l-135 61c21.333 82 41.666 143.333 60.999 184
c-26 39.333 -57.667 69.333 -95 90c-37.333 21.333 -75 32 -113 32c-50.667 0 -94 -20.333 -130 -61s-54 -89.667 -54 -147c0 -75.333 36 -155.666 108 -240.999c72 -86 171 -165 297 -237l-49 -73c-155.333 89.333 -278 187.666 -368 294.999
c-90 106.667 -135 208.334 -135 305.001c0 82 30 151.333 90 208c59.333 57.333 131.666 86 216.999 86c56.667 0 110 -15.667 160 -47c50 -30.667 90.333 -72 121 -124c34.667 50 73.667 89 117 117s86 42 128 42v264h-917l-86 115h1364l86 -115h-312v-277
c62 -16 104 -53.667 126 -113c38.667 -60 58 -128.333 58 -205c0 -20 -1 -36.667 -3 -50c-4.66699 -31.333 -22.334 -70 -53.001 -116c-10 -15.333 -21.667 -30 -35 -44c-26 -28 -48 -46.333 -66 -55c-35.333 -16 -53 -42 -53 -78c0 -22 8.33301 -41.333 25 -58
c17.333 -17.333 37 -26 59 -26c33.333 0 58.666 12 75.999 36l39 -87c-21.333 -25.333 -57.666 -38 -108.999 -38c-10.667 -18.667 -16 -40 -16 -64c0 -19.333 6.66699 -35.666 20 -48.999c12.667 -13.333 29 -20 49 -20c38.667 0 75.667 14.667 111 44l36 -85
c-44.667 -37.333 -93.334 -56 -146.001 -56c-41.333 0 -78.333 14.667 -111 44c-36.667 32 -55 73 -55 123c0 32 7 59.667 21 83c-19.333 8 -38 23.333 -56 46c-24.667 32 -37 67.333 -37 106c0 40.667 8.66699 71.334 26 92.001z" />
    <glyph glyph-name="uni0962" unicode="&#x962;" 
d="M-129 21c36 -9.33301 65.6699 -25.6699 89.0029 -49.0029c8.66699 -9.33301 14.667 -18.333 18 -27c23.333 -36 35 -77 35 -123c0 -40 -12.667 -82 -38 -126c-25.333 -43.333 -61.666 -84.666 -108.999 -123.999l2 -6c0 -1.33301 -17 -22.333 -51 -63
c-16.667 -19.333 -25 -37.333 -25 -54v-48c9.33301 -12.667 20.666 -19 33.999 -19c8 0 19 5.66699 33 17c12.667 10.667 24 25 34 43l56 -11c-13.333 -36 -28.666 -61.333 -45.999 -76c-26.667 -22.667 -46.667 -34.334 -60 -35.001
c-46.667 -1.33301 -81.334 8 -104.001 28c-11.333 10 -20.666 31.333 -27.999 64c-8 32.667 -9.33301 59 -4 79c2.66699 10 7 18.333 13 25l87 108c19.333 22.667 53.666 67 102.999 133c24.667 33.333 37 67.333 37 102c0 24 -6.33301 44.667 -19 62s-28.334 26 -47.001 26
c-49.333 0 -92 -21 -128 -63c-36.667 -42.667 -57.667 -95.334 -63 -158.001l-81 37c12.667 49.333 25 86 37 110c-16 24 -35.333 42.333 -58 55s-45 19 -67 19c-30.667 0 -56.667 -12.333 -78 -37c-22 -24.667 -33 -54 -33 -88c0 -45.333 21.667 -93.666 65 -144.999
s102.666 -98.666 177.999 -141.999l-30 -44c-92.667 54 -166 113 -220 177c-54 64.667 -81 125.667 -81 183c0 49.333 18 91 54 125c35.333 34 78.666 51 129.999 51c34 0 66 -9.16699 96 -27.5s54.333 -43.166 73 -74.499c20.667 30 44 53.333 70 70
c20.667 12.667 58 21.334 112 26.001h14z" />
    <glyph glyph-name="uni0963" unicode="&#x963;" 
d="M-128 13c49.333 -14.667 79.3379 -36.332 90.0049 -64.999c23.333 -35.333 35 -76 35 -122c0 -8 -0.333008 -14.667 -1 -20c-2 -22.667 -13 -49.334 -33 -80.001c-3.33301 -5.33301 -7 -10.333 -11 -15c-18.667 -22.667 -35.334 -37.334 -50.001 -44.001
c-20.667 -10 -31 -25.667 -31 -47c0 -13.333 5 -25 15 -35s21.667 -15 35 -15c20 0 35.333 7 46 21l23 -52c-12.667 -15.333 -34.334 -23 -65.001 -23c-6.66699 -10.667 -10 -23.334 -10 -38.001c0 -12 4 -22 12 -30s17.667 -12 29 -12c23.333 0 45.666 9 66.999 27l22 -51
c-26.667 -22.667 -56 -34 -88 -34c-24.667 0 -47 9 -67 27c-22 19.333 -33 43.666 -33 72.999c0 19.333 4.33301 36 13 50c-11.333 4.66699 -22.666 14 -33.999 28c-14.667 19.333 -22 40.333 -22 63c0 24.667 5.33301 43.334 16 56.001l54 68
c2 3.33301 4.33301 6.66602 7 9.99902c26 40 39 76.667 39 110c0 24 -6.33301 44.667 -19 62s-28.334 26 -47.001 26c-48.667 0 -91.334 -21.333 -128.001 -64c-36 -42 -57 -94.333 -63 -157l-81 37c12.667 48.667 25 85.334 37 110.001
c-15.333 23.333 -34.333 41.666 -57 54.999c-22.667 12.667 -45.334 19 -68.001 19c-30 0 -56 -12.333 -78 -37c-21.333 -24.667 -32 -54 -32 -88c0 -45.333 21.667 -93.666 65 -144.999c42.667 -51.333 101.667 -98.666 177 -141.999l-29 -44
c-93.333 54 -166.666 113 -219.999 177c-54 64.667 -81 125.667 -81 183c0 49.333 17.667 91 53 125c36 34 79.333 51 130 51c34.667 0 67 -9.16699 97 -27.5s54 -43.166 72 -74.499c20.667 30 44 53.333 70 70c9.33301 5.33301 23.666 10 42.999 14c41.333 8 75 8 101 0z
" />
    <glyph glyph-name="uni0964" unicode="&#x964;" horiz-adv-x="767" 
d="M570 -8h-176v1228h176v-1228z" />
    <glyph glyph-name="uni0965" unicode="&#x965;" horiz-adv-x="1200" 
d="M984 -7h-176v1227h176v-1227zM584 -7h-176v1227h176v-1227z" />
    <glyph glyph-name="uni0966" unicode="&#x966;" horiz-adv-x="696" 
d="M354 222c-75.333 0 -139.999 24.667 -193.999 74c-53.333 50 -80 110 -80 180c0 82.667 30.667 159 92 229s128.666 105 201.999 105c70.667 0 130.667 -29 180 -87c50 -57.333 75 -126.333 75 -207c0 -60.667 -31.667 -125 -95 -193
c-63.333 -67.333 -123.333 -101 -180 -101zM384.001 329c40 0 74.667 14.333 104 43c28.667 29.333 43 64 43 104c0 65.333 -21 121 -63 167s-93 69 -153 69c-38 0 -70.333 -15.333 -97 -46c-26.667 -31.333 -40 -68.333 -40 -111c0 -62.667 20.333 -116 61 -160
c40 -44 88.333 -66 145 -66z" />
    <glyph glyph-name="uni0967" unicode="&#x967;" horiz-adv-x="698" 
d="M509 -145l-87.999 78.001c18 13.333 32.333 26.666 43 39.999c10.667 14 16 27 16 39c0 28.667 -5.33301 55.667 -16 81s-25 47.333 -43 66l-323 264l186 196c-68 47.333 -121 93.333 -159 138c-38 45.333 -57 84.333 -57 117c0 53.333 19.333 99.333 58 138
s84.667 58 138 58c58.667 0 117.667 -30.667 177 -92c58.667 -61.333 88 -122 88 -182c0 -52.667 -26 -114.667 -78 -186c-51.333 -72 -123.333 -147.333 -216 -226l225 -196c47.333 -39.333 83.666 -76 108.999 -110s38 -62.667 38 -86c0 -27.333 -8.66699 -53.333 -26 -78
c-18 -25.333 -42 -45 -72 -59zM323.001 688.001c31.333 26 55.332 55.333 71.999 88c17.333 32.667 26 65.334 26 98.001s-7.66699 60.334 -23 83.001c-14.667 23.333 -33 35 -55 35c-38 0 -70.333 -11.667 -97 -35c-27.333 -22.667 -41 -50.334 -41 -83.001
s10.667 -65.334 32 -98.001c20.667 -32.667 49.334 -62 86.001 -88z" />
    <glyph glyph-name="uni0968" unicode="&#x968;" horiz-adv-x="665" 
d="M529 -86l-225.999 440.995c-56 0 -104.333 16.333 -145 49c-40 32.667 -60 71.667 -60 117c0 22.667 6.66699 41.334 20 56.001c14 15.333 30 23 48 23c20 0 40.333 -7 61 -21c20.667 -13.333 39.667 -32.666 57 -57.999c69.333 18.667 125.666 53.334 168.999 104.001
c44 51.333 66 108.333 66 171c0 40.667 -18.333 75.334 -55 104.001s-80.334 43 -131.001 43c-38 0 -75.667 -6 -113 -18c-37.333 -11.333 -71.666 -28.333 -102.999 -51l-88 108c34 28.667 71.333 50.667 112 66c40 14.667 81 22 123 22c77.333 0 155.333 -39.333 234 -118
c79.333 -79.333 119 -157.666 119 -234.999c0 -70 -24.333 -136 -73 -198c-48 -61.333 -112 -106.333 -192 -135l255 -441z" />
    <glyph glyph-name="uni0969" unicode="&#x969;" horiz-adv-x="665" 
d="M479 -106l-146.999 273.999c-56 0 -104.333 16.333 -145 49s-61 72 -61 118c0 22 7 40.667 21 56c13.333 14.667 29.333 22 48 22c15.333 0 34.666 -9.33301 57.999 -28c22.667 -18.667 45.667 -45 69 -79c56 10 102.667 29.667 140 59s56 61.666 56 96.999
c0 28 -8.66699 55.333 -26 82c-18 26.667 -42 48.334 -72 65.001c-48 -12.667 -97 -19 -147 -19c-35.333 0 -71.333 3.33301 -108 10l-68 137c95.333 0 180.333 -6.66699 255 -20c41.333 14.667 74.666 33.667 99.999 57c24.667 23.333 37 47 37 71
c0 32.667 -37.333 58.667 -112 78s-168 29 -280 29l-59 118h176c82.667 0 165.334 -30.667 248.001 -92c83.333 -61.333 125 -122 125 -182c0 -32.667 -9.66699 -64 -29 -94c-18.667 -29.333 -45 -53.666 -79 -72.999c47.333 -39.333 83.666 -77 108.999 -113s38 -67 38 -93
c0 -50.667 -22 -98 -66 -142c-43.333 -44 -99.666 -75 -168.999 -93l166 -245z" />
    <glyph glyph-name="uni096A" unicode="&#x96a;" horiz-adv-x="917" 
d="M494 70c-66.667 0 -125.668 26 -177.001 78c-52 51.333 -78 110.333 -78 177c0 22.667 13.667 53 41 91c26.667 38.667 65.334 83.667 116.001 135l-362 382l78 59l333 -402l333 392l98 -69l-372 -392c62.667 -52 111 -103 145 -153c34 -49.333 51 -93 51 -131
c0 -46 -20.333 -85.333 -61 -118s-89 -49 -145 -49zM425.999 159c50.667 0 94.333 10.333 131 31s55 46 55 76c0 22.667 -11.667 51.667 -35 87c-24 35.333 -58 75 -102 119c-50 -42 -88.667 -82.333 -116 -121c-27.333 -39.333 -41 -74 -41 -104
c0 -24.667 10.333 -45.667 31 -63c21.333 -16.667 47 -25 77 -25z" />
    <glyph glyph-name="uni096B" unicode="&#x96b;" horiz-adv-x="848" 
d="M701 -96l-157.003 499.999c-26 -22 -53.333 -39 -82 -51c-28.667 -11.333 -56.667 -17 -84 -17c-91.333 0 -169.666 37 -234.999 111c-65.333 74.667 -98 165 -98 271c0 70.667 6.33301 136 19 196c13.333 60 33 112.333 59 157l118 -108
c-32.667 -39.333 -58 -90 -76 -152c-17.333 -62 -26 -132.333 -26 -211c0 -42.667 15.667 -79.667 47 -111c31.333 -30.667 69 -46 113 -46c29.333 0 59 7.66699 89 23c30 14.667 59.333 36.667 88 66c-9.33301 4.66699 -16.666 12.334 -21.999 23.001s-8 22.334 -8 35.001
c0 25.333 7.66699 46.333 23 63c14.667 17.333 33.334 26 56.001 26c30 0 55.333 -11.667 76 -35c21.333 -22.667 32 -50.334 32 -83.001c0 -27.333 -5.33301 -53 -16 -77c-10.667 -24.667 -25 -44.667 -43 -60l215 -480z" />
    <glyph glyph-name="uni096C" unicode="&#x96c;" horiz-adv-x="664" 
d="M653 -66l-118.001 254.001c-66 -11.333 -132.333 -2.33301 -199 27c-33.333 14.667 -66.666 34.667 -99.999 60c-100.667 74 -151 156.333 -151 247c0 27.333 8.33301 55 25 83c17.333 28 41.666 52.333 72.999 73c-46 26.667 -82 60.667 -108 102
c-26 42 -39 86.667 -39 134c0 42.667 27.667 79.334 83 110.001s122.333 46 201 46c46.667 0 88 -1.33301 124 -4c36 -3.33301 66.333 -8.33301 91 -15l40 -118c-48.667 13.333 -107.667 20 -177 20c-65.333 0 -120.666 -11.667 -165.999 -35
c-46 -22.667 -69 -50.334 -69 -83.001c0 -26 8 -49.667 24 -71c16.667 -22 38 -37.333 64 -46c48.667 12.667 104.334 19 167.001 19c-10.667 0 -1.33398 -2.66699 27.999 -8c14.667 -3.33301 34.667 -7 60 -11l39 -118c-74.667 13.333 -136.667 20 -186 20
c-46 0 -85.333 -15.333 -118 -46c-32.667 -31.333 -49 -68.333 -49 -111c0 -48.667 18.333 -90.334 55 -125.001s80.667 -52 132 -52c11.333 0 23.666 1.66699 36.999 5c12.667 3.33301 26.334 8.33301 41.001 15c-13.333 27.333 -20 50.333 -20 69c0 18 9.66699 34 29 48
c18.667 13.333 41.667 20 69 20c22.667 0 48 -14 76 -42s42 -53 42 -75c0 -24 -5.33301 -46.333 -16 -67c-10 -20.667 -24.333 -37.667 -43 -51l137 -235z" />
    <glyph glyph-name="uni096D" unicode="&#x96d;" horiz-adv-x="899" 
d="M531 60c-136 0 -251.667 88 -347 264c-95.333 175.333 -143 388 -143 638h98c-9.33301 -52.667 -14 -114.667 -14 -186c0 -162 39.667 -300.667 119 -416c79.333 -114.667 175 -172 287 -172c60 0 111 26.667 153 80s63 118 63 194c-18.667 -16 -37.334 -28 -56.001 -36
c-18.667 -8.66699 -36 -13 -52 -13c-52 0 -104.333 29.333 -157 88c-52 58.667 -78 117.667 -78 177c0 45.333 14.333 84.333 43 117s63.334 49 104.001 49c64 0 129 -43.667 195 -131s99 -174.333 99 -261c0 -108 -30.667 -200.333 -92 -277
c-61.333 -76 -135.333 -114.333 -222 -115zM590 511c18 0 39.999 7.66602 65.999 22.999c25.333 14.667 52.333 36.334 81 65.001c-8 43.333 -24.667 78.666 -50 105.999s-54.333 41 -87 41c-27.333 0 -50.666 -13.333 -69.999 -40c-18.667 -26.667 -28 -59 -28 -97
c0 -27.333 8.33301 -50.666 25 -69.999c17.333 -18.667 38.333 -28 63 -28z" />
    <glyph glyph-name="uni096E" unicode="&#x96e;" horiz-adv-x="665" 
d="M384 36c-65.333 0 -137.667 35.002 -217 105.002c-78.667 70 -124 139.667 -136 209c0 9.33301 3.33301 20.666 10 33.999c6.66699 14 16.334 28.667 29.001 44l471 608l98 -88l-422 -530c-15.333 -19.333 -27.333 -40.666 -36 -63.999c-8.66699 -24 -13 -48.333 -13 -73
c0 -40.667 18.333 -75.334 55 -104.001s80.667 -43 132 -43c37.333 0 82 18 134 54c51.333 36 104.666 86.667 159.999 152l88 -78c-60 -72 -120.667 -127.667 -182 -167c-61.333 -38.667 -118.333 -58.334 -171 -59.001z" />
    <glyph glyph-name="uni096F" unicode="&#x96f;" horiz-adv-x="665" 
d="M575 -66l-127 98c27.333 12.667 49 26 65 40c15.333 13.333 23 26 23 38c0 16.667 -3.33301 33.334 -10 50.001c-6 16 -15.667 32 -29 48l-333 353c-44.667 52 -78.667 102 -102 150c-23.333 47.333 -35 88.666 -35 123.999c0 65.333 24.667 121 74 167
c50 45.333 110 68 180 68c60.667 0 121.667 -29.333 183 -88s92 -117.334 92 -176.001c0 -50 -27.667 -97.333 -83 -142c-54.667 -45.333 -125 -79.666 -211 -102.999l333 -333c24.667 -25.333 44 -50 58 -74c13.333 -24 20 -45.333 20 -64c0 -31.333 -8.66699 -61 -26 -89
c-18 -28 -42 -50.333 -72 -67zM183 659c76 19.333 137.667 50.332 185 92.999c46.667 42.667 70 86.667 70 132c0 22.667 -10.333 41.334 -31 56.001c-21.333 15.333 -47 23 -77 23c-53.333 0 -99.333 -20.333 -138 -61s-58 -89 -58 -145c0 -13.333 4.33301 -28.333 13 -45
c8.66699 -17.333 20.667 -35 36 -53z" />
    <glyph glyph-name="uni0970" unicode="&#x970;" horiz-adv-x="634" 
d="M531 920c0 -52 -18.333 -96 -55 -132c-36 -36.667 -80 -55 -132 -55s-96.167 18.167 -132.5 54.5s-54.5 80.5 -54.5 132.5s18.333 96 55 132c36 36.667 80 55 132 55s96 -18.333 132 -55c36.667 -36 55 -80 55 -132zM435 920c0 25.333 -9 46.666 -27 63.999
c-17.333 18 -38.666 27 -63.999 27s-46.666 -9 -63.999 -27c-18 -17.333 -27 -38.666 -27 -63.999s9 -46.666 27 -63.999c17.333 -18 38.666 -27 63.999 -27s46.666 9 63.999 27c18 17.333 27 38.666 27 63.999z" />
    <glyph glyph-name="uni0B82" unicode="&#xb82;" 
d="M-333 1409c0 -42 -13.6689 -76.999 -41.002 -104.999c-26.667 -27.333 -63.667 -41 -111 -41c-44.667 0 -80 13.333 -106 40c-22.667 27.333 -34 64.666 -34 111.999c0 44.667 14 79 42 103c28.667 24.667 63.334 37 104.001 37c44.667 0 81.334 -16.333 110.001 -49
c24 -28 36 -60.333 36 -97z" />
    <glyph glyph-name="u0B83" unicode="&#xb83;" horiz-adv-x="1626" 
d="M1157 1289c0 -98.667 -35.667 -186 -107 -262c-66.667 -70 -136 -105 -208 -105c-52.667 0 -100.667 21.667 -144 65c-48.667 48.667 -73 111.334 -73 188.001c0 93.333 28.333 178.666 85 255.999c62.667 82.667 140.667 124 234 124c54 0 103 -27 147 -81
s66 -115.667 66 -185zM1502 554c0 -77.333 -30 -155.667 -90 -235c-60 -80 -134 -120 -222 -120c-80 0 -140.333 28.333 -181 85c-26 47.333 -39 103.666 -39 168.999c0 94.667 29 177.334 87 248.001c57.333 71.333 133.333 107 228 107c60.667 0 112 -25 154 -75
s63 -109.667 63 -179zM536 559.999c0 -82.667 -22.3311 -160.331 -66.998 -232.998c-56.667 -85.333 -137.334 -128 -242.001 -128c-68.667 0 -121 24.667 -157 74s-54 109.333 -54 180c0 97.333 31 182.666 93 255.999c61.333 74 132.666 111 213.999 111
c44.667 0 88 -19 130 -57c55.333 -48.667 83 -116.334 83 -203.001zM983.002 1226c0 40.667 -11.002 76.001 -33.002 106.001c-21.333 29.333 -51 44 -89 44c-42 0 -74.667 -19.667 -98 -59c-24 -36 -36 -77 -36 -123c0 -52 17.667 -93.333 53 -124
c18.667 -16.667 39.334 -28.334 62.001 -35.001c28.667 0 59.334 19.333 92.001 58s49 83 49 133zM1311 483.003c0 47.333 -10.998 85.667 -32.998 115c-22.667 28.667 -51.334 43 -86.001 43c-24.667 0 -53.667 -24.667 -87 -74c-32.667 -49.333 -49 -82.666 -49 -99.999
c0 -34 12.667 -70.333 38 -109c26 -38.667 51.667 -58 77 -58c39.333 0 72.666 19.667 99.999 59c26.667 39.333 40 80.666 40 123.999zM349.002 489.004c0 43.333 -7.33301 79.667 -22 109c-15.333 28.667 -44.333 43 -87 43c-44.667 0 -80 -37 -106 -111l-12 -41
c0 -14.667 -1.33301 -24.667 -4 -30c0 -43.333 14.667 -82 44 -116c24.667 -28.667 43.667 -43 57 -43c31.333 0 63.333 23 96 69c22.667 42 34 82 34 120z" />
    </font>
</defs>
</svg>
